<svg enable-background="new 0 0 2500 2500" height="2500" viewBox="0 0 2500 2500" width="2500" xmlns="http://www.w3.org/2000/svg" xmlns:xlink="http://www.w3.org/1999/xlink"><linearGradient id="a" gradientUnits="userSpaceOnUse" x1="1946.7671" x2="1751.0293" y1="879.0527" y2="1686.3896"><stop offset="0" stop-color="#b0c3ff"/><stop offset=".0166" stop-color="#a7bbfa"/><stop offset=".1682" stop-color="#5674d1"/><stop offset=".2377" stop-color="#3658c1"/><stop offset=".3977" stop-color="#2d4797"/><stop offset=".687" stop-color="#1e2a4f"/><stop offset=".8952" stop-color="#151822"/><stop offset="1" stop-color="#111"/></linearGradient><linearGradient id="b" gradientUnits="userSpaceOnUse" x1="252.6941" x2="1760.7836" y1="1560.2244" y2="1885.2551"><stop offset="0" stop-color="#b0c3ff"/><stop offset=".0492" stop-color="#a7bbfa"/><stop offset=".5005" stop-color="#5674d1"/><stop offset=".707" stop-color="#3658c1"/><stop offset=".7685" stop-color="#2d4797"/><stop offset=".8797" stop-color="#1e2a4f"/><stop offset=".9597" stop-color="#151822"/><stop offset="1" stop-color="#111"/></linearGradient><linearGradient id="c" gradientUnits="userSpaceOnUse" x1="544.0175" x2="450.7782" y1="1358.985" y2="1039.2146"><stop offset="0" stop-color="#111"/><stop offset=".0625" stop-color="#171d30"/><stop offset=".155" stop-color="#202d56"/><stop offset=".2546" stop-color="#263a77"/><stop offset=".3608" stop-color="#2c4592"/><stop offset=".476" stop-color="#314ea7"/><stop offset=".6049" stop-color="#3453b6"/><stop offset=".7583" stop-color="#3557be"/><stop offset="1" stop-color="#3658c1"/></linearGradient><path d="m2300.164 763.226-455.759-202.917c-4.863-2.165-10.082-1.825-14.288.466l-11.665 6.353c4.206-2.291 9.425-2.631 14.288-.466l455.76 202.917c8.516 3.792 12.702 13.825 9.355 22.42l-123.511 317.176c-1.436 3.688-4.024 6.509-7.184 8.23l11.665-6.353c3.16-1.721 5.748-4.543 7.184-8.23l123.51-317.176c3.347-8.596-.839-18.629-9.355-22.42z" fill="#111"/><path d="m2167.161 1118.406c-.354 0-.697-.188-.879-.521-.265-.485-.085-1.092.399-1.357 3.093-1.685 5.421-4.352 6.73-7.714l123.511-317.176c3.149-8.089-.812-17.574-8.831-21.144l-455.759-202.917c-4.41-1.962-9.294-1.807-13.402.43-.489.264-1.092.084-1.356-.4s-.085-1.092.399-1.356c.009-.004.017-.009.024-.013l11.64-6.339c4.659-2.537 10.188-2.72 15.174-.501l455.76 202.917c8.979 3.998 13.411 14.628 9.879 23.697l-123.51 317.176c-1.462 3.754-4.175 6.86-7.638 8.746l-11.664 6.353c-.152.08-.316.119-.477.119zm-341.165-554.2c2.406 0 4.837.513 7.15 1.542l455.759 202.917c8.979 3.998 13.412 14.628 9.881 23.697l-123.511 317.176c-.441 1.134-.997 2.209-1.653 3.209l4.724-2.573c3.094-1.684 5.421-4.352 6.731-7.714l123.51-317.176c3.15-8.089-.811-17.574-8.83-21.144l-455.76-202.917c-4.408-1.963-9.293-1.807-13.402.43l-4.688 2.554c.03-.001.059-.001.089-.001z" fill="#111"/><path d="m2288.499 769.579c8.516 3.792 12.702 13.825 9.355 22.42l-123.51 317.176c-3.347 8.596-12.956 12.487-21.472 8.696l-455.76-202.917c-8.516-3.792-12.702-13.824-9.355-22.421l123.51-317.176c3.347-8.596 12.956-12.487 21.472-8.696z" fill="#3658c1"/><path d="m2159.606 1120.329c-2.408 0-4.831-.516-7.142-1.545l-455.759-202.917c-8.979-3.998-13.412-14.628-9.88-23.697l123.51-317.176c1.707-4.384 4.999-7.766 9.27-9.523 4.33-1.782 9.139-1.683 13.54.276l455.76 202.917c8.979 3.998 13.412 14.628 9.88 23.697l-123.51 317.176c-1.707 4.384-4.999 7.767-9.27 9.523-2.056.847-4.221 1.269-6.399 1.269zm-333.601-554.124c-1.921 0-3.828.372-5.639 1.116-3.76 1.547-6.66 4.529-8.167 8.399l-123.51 317.176c-3.149 8.089.812 17.574 8.83 21.145l455.758 202.917c3.898 1.735 8.147 1.825 11.968.254 3.76-1.546 6.66-4.529 8.167-8.399l123.51-317.176c3.149-8.089-.812-17.574-8.83-21.144l-455.76-202.917c-2.049-.914-4.196-1.371-6.327-1.371z" fill="#111"/><path d="m2161.862 775.988c-12.104-5.389-25.765.142-30.524 12.361-4.749 12.196 1.203 26.46 13.308 31.849 12.083 5.38 25.767-.142 30.516-12.338 4.758-12.218-1.218-26.493-13.3-31.872" fill="#fff"/><path d="m2154.209 823.267c-3.362 0-6.745-.719-9.97-2.155-12.562-5.593-18.768-20.453-13.833-33.125 2.385-6.124 6.982-10.847 12.945-13.3 6.048-2.488 12.768-2.351 18.917.387h.001c12.562 5.594 18.764 20.464 13.824 33.149-2.377 6.104-6.969 10.817-12.93 13.269-2.878 1.185-5.908 1.775-8.954 1.775zm-1.919-48.35c-2.785 0-5.551.539-8.178 1.619-5.452 2.243-9.658 6.567-11.843 12.176-4.553 11.692 1.182 25.407 12.783 30.573 5.642 2.512 11.806 2.64 17.351.357 5.45-2.242 9.65-6.555 11.827-12.145 4.558-11.705-1.173-25.431-12.775-30.597-2.968-1.32-6.078-1.983-9.165-1.983z" fill="#111"/><path d="m1963.766 762.825c-2.856-1.272-6.197-1.3-9.135.309l-186.05 101.916c-7.697 4.214-6.875 15.888 1.383 19.565l153.617 68.395 116.362 51.808 81.735 36.391c8.258 3.677 16.608-3.913 13.983-12.724l-45.166-151.648c-1.003-3.365-3.375-5.879-6.232-7.151-2.856-1.272-6.196-1.301-9.135.309l-64.763 35.462-40.368-135.48c-1.003-3.365-3.375-5.88-6.231-7.152" fill="#fff"/><path d="m2126.006 1043.144c-1.584 0-3.193-.336-4.735-1.022l-351.715-156.593c-4.299-1.914-7.09-6.049-7.285-10.791-.186-4.515 1.994-8.465 5.83-10.565l186.05-101.916c3.079-1.685 6.733-1.81 10.022-.346 3.271 1.457 5.743 4.292 6.783 7.778l40.015 134.295 63.678-34.868c3.077-1.685 6.729-1.811 10.021-.346 3.272 1.457 5.744 4.292 6.783 7.779l45.165 151.648c1.35 4.53.069 9.205-3.342 12.201-2.058 1.81-4.629 2.746-7.27 2.746zm-166.539-280.246c-1.511 0-3.002.373-4.355 1.113l-186.05 101.916c-3.154 1.728-4.946 4.99-4.792 8.729.163 3.977 2.501 7.443 6.101 9.045l351.715 156.593c3.44 1.533 7.131 1.01 9.871-1.397 2.817-2.475 3.869-6.355 2.746-10.127l-45.165-151.648c-.872-2.926-2.942-5.304-5.681-6.523-2.716-1.209-5.723-1.11-8.247.272l-64.764 35.462c-.266.146-.58.163-.86.048-.279-.115-.492-.35-.578-.639l-40.367-135.48c-.874-2.927-2.944-5.304-5.682-6.523-1.26-.562-2.584-.841-3.892-.841z" fill="#111"/><path d="m663.601 1481.991 11.269 4.85c-4.179-.888-8.168-2.166-11.945-3.791l-11.27-4.85c3.778 1.625 7.767 2.902 11.946 3.791" fill="#fff"/><path d="m674.872 1487.841c-.069 0-.139-.007-.209-.022-4.177-.887-8.259-2.183-12.133-3.851l-11.261-4.846c-.003-.001-.006-.002-.009-.004-.507-.218-.741-.807-.523-1.314.219-.509.808-.742 1.314-.523 3.754 1.616 7.709 2.871 11.758 3.731.064.014.127.034.188.06l11.27 4.85c.472.203.713.731.558 1.222-.136.422-.526.697-.953.697z" fill="#111"/><path d="m1700.408 1702.371 11.27 4.85-1036.807-220.38-11.27-4.85z" fill="#111"/><path d="m1711.679 1708.221c-.069 0-.139-.007-.209-.022l-1036.807-220.38c-.064-.014-.127-.034-.188-.06l-11.27-4.85c-.472-.203-.713-.731-.558-1.222.156-.491.656-.786 1.161-.675l1036.807 220.38c.064.014.127.034.188.06l11.27 4.85c.472.203.713.731.558 1.222-.135.422-.526.697-.952.697zm-1036.503-222.338 1026.81 218.255-1.882-.81-1026.81-218.255z" fill="#111"/><path d="m1941.525 849.693-11.27-4.85c30.776 13.246 47.473 49.591 38.008 87.006l-179.394 709.146c-10.627 42.01-50.226 69.504-88.462 61.377l11.27 4.85c38.236 8.127 77.834-19.366 88.462-61.377l179.394-709.146c9.465-37.415-7.232-73.761-38.008-87.006z" fill="url(#a)"/><path d="m1725.187 1709.638c-4.561 0-9.148-.468-13.717-1.439-.064-.014-.127-.034-.188-.06l-11.27-4.85c-.472-.203-.713-.731-.558-1.222.156-.491.657-.786 1.161-.675 37.648 7.999 76.803-19.203 87.284-60.644l179.394-709.146c9.212-36.413-6.501-72.49-37.368-85.814l-.065-.028c-.507-.218-.741-.807-.523-1.314s.807-.743 1.314-.523l11.27 4.851c31.815 13.693 48.042 50.773 38.582 88.169l-179.394 709.146c-9.474 37.455-41.87 63.548-75.922 63.549zm-13.206-3.375c4.4.928 8.826 1.376 13.219 1.376 33.158.002 64.722-25.479 73.97-62.04l179.394-709.146c8.829-34.899-5.237-69.488-33.597-84.035 22.12 17.337 32.179 48.396 24.267 79.675l-179.394 709.146c-10.03 39.647-45.753 66.563-81.916 63.277z" fill="#111"/><path d="m1918.298 841.047c38.236 8.127 60.593 48.79 49.965 90.8l-179.394 709.146c-10.627 42.01-50.225 69.504-88.462 61.377l-1036.807-220.38c-38.215-8.123-60.571-48.785-49.944-90.796l179.394-709.146c10.627-42.01 50.225-69.504 88.44-61.382z" fill="#b0c3ff"/><path d="m1713.916 1704.788c-4.56 0-9.147-.468-13.716-1.439l-1036.807-220.38c-17.406-3.7-32.322-14.298-41.999-29.844-11.042-17.738-14.215-40.399-8.707-62.175l179.395-709.146c10.744-42.471 50.95-70.337 89.617-62.114l1036.808 220.38c17.418 3.702 32.341 14.305 42.021 29.854 11.041 17.736 14.214 40.396 8.706 62.169l-179.394 709.146c-9.476 37.454-41.872 63.549-75.924 63.549zm-845.939-1084.538c-33.148 0-64.708 25.482-73.956 62.044l-179.394 709.146c-5.376 21.251-2.29 43.349 8.466 60.627 9.387 15.08 23.847 25.359 40.717 28.945l1036.807 220.38c37.64 7.999 76.802-19.204 87.284-60.644l179.394-709.146c5.376-21.25 2.29-43.346-8.464-60.622-9.39-15.084-23.858-25.367-40.739-28.956l-1036.809-220.379c-4.431-.942-8.883-1.395-13.306-1.395z" fill="#111"/><path d="m1903.846 868.464-1022.507-217.34c-26.508-5.634-53.979 13.426-61.346 42.544l-176.562 697.954c-7.372 29.141 8.151 57.316 34.659 62.95l1022.506 217.341c26.487 5.63 53.953-13.407 61.325-42.548l176.562-697.954c7.367-29.118-8.15-57.317-34.637-62.947z" fill="#fff"/><path d="m1709.959 1673.894c-3.182 0-6.383-.326-9.57-1.004l-1022.506-217.34c-12.168-2.586-22.592-9.991-29.351-20.849-7.695-12.363-9.908-28.154-6.07-43.325l176.562-697.954c7.488-29.6 35.537-49.014 62.523-43.277l1022.507 217.34c12.15 2.583 22.563 9.983 29.32 20.838 7.7 12.369 9.915 28.163 6.078 43.331l-176.562 697.954c-6.602 26.103-29.188 44.286-52.931 44.286zm-838.003-1022.754c-22.856 0-44.616 17.567-50.992 42.773l-176.562 697.954c-3.706 14.647-1.581 29.874 5.828 41.777 6.47 10.393 16.438 17.478 28.069 19.95l1022.506 217.341c25.938 5.509 52.919-13.246 60.147-41.815l176.562-697.954c3.705-14.644 1.577-29.874-5.837-41.784-6.467-10.389-16.424-17.47-28.038-19.939l-1022.507-217.341c-3.055-.649-6.126-.962-9.176-.962z" fill="#111"/><path d="m1389.126 773.452c-6.234-1.325-12.676 3.164-14.41 10.019-1.734 6.853 1.902 13.46 8.136 14.785 6.235 1.325 12.693-3.136 14.427-9.989 1.733-6.856-1.918-13.49-8.153-14.815" fill="#111"/><path d="m1385.054 799.486c-.801 0-1.606-.082-2.41-.253-3.065-.651-5.688-2.511-7.385-5.236-1.915-3.076-2.466-7.002-1.513-10.772 1.862-7.359 8.853-12.184 15.588-10.751 3.065.651 5.691 2.515 7.393 5.248 1.921 3.086 2.476 7.019 1.521 10.79-1.637 6.47-7.266 10.974-13.194 10.974zm1.869-25.265c-5.025 0-9.822 3.902-11.237 9.495-.821 3.246-.357 6.608 1.271 9.226 1.406 2.259 3.573 3.799 6.103 4.336 5.703 1.212 11.651-2.94 13.249-9.256.821-3.247.355-6.615-1.28-9.242-1.411-2.267-3.581-3.812-6.11-4.349-.665-.143-1.333-.21-1.996-.21z" fill="#111"/><path d="m1659.743 1189.042-172.565-36.68c-13.146-2.794-26.77 6.66-30.432 21.133-3.656 14.452 4.039 28.436 17.185 31.23l172.565 36.68c13.145 2.794 26.769-6.659 30.424-21.11 3.662-14.473-4.033-28.459-17.177-31.253" fill="#3658c1"/><path d="m1651.137 1242.892c-1.612 0-3.232-.165-4.849-.509l-172.565-36.68c-6.166-1.311-11.448-5.062-14.873-10.565-3.891-6.251-5.011-14.229-3.073-21.888 3.783-14.958 17.963-24.767 31.609-21.867l172.565 36.68c6.163 1.31 11.443 5.06 14.866 10.56 3.894 6.255 5.014 14.243 3.073 21.917-3.333 13.176-14.747 22.351-26.753 22.352zm-168.611-90.018c-11.112 0-21.701 8.572-24.811 20.867-1.806 7.135-.773 14.549 2.832 20.341 3.135 5.036 7.961 8.469 13.591 9.666l172.565 36.68c12.612 2.68 25.727-6.463 29.247-20.377 1.809-7.149.776-14.574-2.831-20.37-3.134-5.033-7.958-8.464-13.585-9.66l-172.565-36.68c-1.478-.315-2.965-.467-4.443-.467z" fill="#111"/><path d="m1664.373 1611.839c-.069 0-.139-.007-.209-.022l-383.867-81.594c-.266-.057-.497-.219-.641-.45-.144-.23-.188-.51-.121-.773l69.433-274.47c.132-.521.649-.846 1.178-.733l383.868 81.593c.266.056.497.219.641.45.144.23.188.51.121.773l-69.434 274.47c-.114.453-.521.756-.969.756zm-382.644-83.356 381.909 81.178 68.942-272.53-381.91-81.177z" fill="#111"/><path d="m1364.412 1244.733-22.65-4.815-6.299 24.9 10.115 2.15 2.419.514 10.116 2.151 2.813-11.121.673-2.66z" fill="#b0c3ff"/><path d="m1358.114 1270.633c-.069 0-.139-.007-.209-.022l-22.65-4.814c-.266-.057-.497-.219-.641-.45-.144-.23-.188-.51-.121-.773l6.299-24.9c.133-.521.653-.845 1.178-.733l22.65 4.814c.266.057.497.219.641.45.144.23.188.51.121.773l-6.299 24.9c-.114.451-.521.755-.969.755zm-21.426-6.577 20.692 4.398 5.808-22.959-20.692-4.398z" fill="#111"/><path d="m1294.979 1519.204-10.116-2.151-2.42-.514-10.114-2.15-6.299 24.899 22.65 4.814 2.813-11.119.673-2.66z" fill="#b0c3ff"/><path d="m1288.682 1545.102c-.069 0-.139-.007-.209-.022l-22.65-4.814c-.266-.057-.497-.219-.641-.45-.144-.23-.188-.51-.121-.773l6.299-24.898c.132-.521.65-.846 1.178-.733l22.649 4.814c.266.057.497.219.641.45.144.23.188.51.121.773l-6.298 24.898c-.115.452-.521.755-.969.755zm-21.427-6.577 20.692 4.398 5.807-22.958-20.691-4.398z" fill="#111"/><path d="m1678.847 1600.797-10.116-2.15-2.42-.514-10.114-2.15-2.813 11.119-.673 2.66-2.813 11.119 22.65 4.815z" fill="#b0c3ff"/><path d="m1672.549 1626.696c-.069 0-.139-.007-.209-.022l-22.649-4.814c-.266-.057-.497-.219-.641-.45-.144-.23-.188-.51-.121-.773l6.298-24.898c.132-.521.651-.845 1.178-.733l22.65 4.814c.266.057.497.219.641.45.144.23.188.51.121.773l-6.299 24.898c-.115.451-.521.755-.969.755zm-21.426-6.577 20.691 4.398 5.808-22.958-20.692-4.398z" fill="#111"/><path d="m1748.28 1326.326-22.65-4.814-2.813 11.119-.673 2.66-2.813 11.121 10.114 2.15 2.42.514 10.116 2.15z" fill="#b0c3ff"/><g fill="#111"><path d="m1741.981 1352.226c-.069 0-.139-.007-.209-.022l-22.649-4.814c-.266-.057-.497-.219-.641-.45-.144-.23-.188-.51-.121-.773l6.299-24.9c.133-.522.653-.848 1.178-.733l22.649 4.814c.266.057.497.219.641.45.144.23.188.51.121.773l-6.299 24.9c-.114.452-.52.755-.969.755zm-21.425-6.576 20.691 4.398 5.808-22.959-20.691-4.398z"/><path d="m1089.776 1225.792c-.069 0-.139-.007-.209-.022l-202.168-42.972c-.54-.115-.885-.646-.771-1.186.115-.541.646-.887 1.187-.77l202.168 42.972c.54.115.885.646.771 1.186-.101.471-.516.792-.978.792z"/><path d="m943.067 1245.545c-.069 0-.139-.007-.209-.022l-142.591-30.309c-.54-.115-.885-.646-.771-1.186.115-.541.646-.886 1.187-.77l142.591 30.309c.54.115.885.646.771 1.186-.101.471-.516.792-.978.792z"/><path d="m1152.451 1290.052c-.069 0-.139-.007-.209-.022l-172.717-36.712c-.54-.115-.885-.646-.771-1.186.115-.541.644-.888 1.187-.77l172.717 36.712c.54.115.885.646.771 1.186-.101.47-.516.792-.978.792z"/><path d="m1140.218 1338.411c-.069 0-.139-.007-.209-.022l-105.553-22.436c-.54-.115-.885-.646-.771-1.186.116-.541.648-.886 1.187-.77l105.553 22.436c.54.115.885.646.771 1.186-.101.471-.516.792-.978.792z"/><path d="m1008.505 1310.415c-.069 0-.139-.007-.209-.022l-220.263-46.818c-.54-.115-.885-.646-.771-1.186.115-.541.646-.888 1.187-.77l220.263 46.818c.54.115.885.646.771 1.186-.101.471-.516.792-.978.792z"/><path d="m1633.082 971.16c-.069 0-.139-.007-.209-.022l-187.366-39.826c-.54-.115-.885-.646-.771-1.186.115-.541.643-.888 1.187-.77l187.366 39.826c.54.115.885.646.771 1.186-.101.47-.516.792-.978.792z"/><path d="m1548.175 1003.14c-.069 0-.139-.007-.209-.022l-114.469-24.331c-.54-.115-.885-.646-.771-1.186.115-.541.644-.887 1.187-.77l114.469 24.331c.54.115.885.646.771 1.186-.101.47-.516.792-.978.792z"/><path d="m1791.545 1054.87c-.069 0-.139-.007-.209-.022l-211.674-44.993c-.54-.115-.885-.646-.771-1.186.115-.541.647-.888 1.187-.77l211.674 44.993c.54.115.885.646.771 1.186-.101.47-.516.792-.978.792z"/><path d="m1779.541 1102.32c-.068 0-.139-.007-.209-.022l-357.839-76.061c-.54-.115-.885-.646-.771-1.186.115-.541.646-.888 1.187-.77l357.839 76.061c.54.115.885.646.771 1.186-.101.47-.516.792-.978.792z"/><path d="m1688.165 1132.899c-.069 0-.139-.007-.209-.022l-278.467-59.19c-.54-.115-.885-.646-.771-1.186.116-.54.643-.887 1.187-.77l278.467 59.19c.54.115.885.646.771 1.186-.101.47-.516.792-.978.792z"/></g><path d="m1290.636 874.872-75.152 297.432-415.466-88.317 75.17-297.454z" fill="#b0c3ff"/><path d="m1215.484 1173.304c-.069 0-.139-.007-.209-.022l-415.465-88.316c-.266-.056-.497-.219-.641-.449-.144-.231-.188-.51-.121-.774l75.17-297.454c.132-.521.655-.848 1.178-.733l415.447 88.339c.266.057.497.219.641.45.144.23.188.51.121.773l-75.152 297.431c-.114.451-.52.755-.969.755zm-414.242-90.079 413.508 87.9 74.662-295.491-413.49-87.923z" fill="#111"/><path d="m1215.483 1173.304c-.276 0-.553-.114-.75-.338l-340.295-385.771c-.365-.414-.326-1.046.089-1.412.413-.364 1.047-.327 1.411.088l340.295 385.771c.365.414.326 1.046-.089 1.412-.189.167-.425.25-.661.25z" fill="#111"/><path d="m800.018 1084.988c-.389 0-.758-.228-.92-.608-.217-.508.02-1.096.527-1.312l490.617-209.115c.513-.219 1.096.021 1.312.528.217.508-.02 1.095-.527 1.312l-490.617 209.115c-.127.054-.261.08-.392.08z" fill="#111"/><path d="m1738.17 1735.658-347.135 170.425c-20.577 10.102-68.225 11.702-106.439 3.579l-1036.807-220.38c-26.812-5.699-41.857-14.664-41.36-22.995l-1.57 26.298c-.497 8.332 14.548 17.296 41.36 22.995l1036.807 220.38c38.215 8.123 85.862 6.523 106.439-3.579l347.135-170.425c6.148-3.019 9.183-6.454 9.395-10.005l1.57-26.298c-.212 3.551-3.246 6.986-9.395 10.005z" fill="url(#b)"/><path d="m1334.473 1942.121c-17.062 0-35.244-1.694-51.655-5.182l-1036.807-220.38c-26.949-5.728-42.707-14.712-42.15-24.032l1.57-26.298c.033-.552.512-.979 1.058-.938.551.033.972.506.938 1.058-.478 7.999 15.447 16.617 40.57 21.957l1036.807 220.38c37.966 8.069 85.424 6.5 105.791-3.499l347.135-170.425c5.587-2.743 8.643-5.913 8.837-9.167.032-.552.509-.983 1.058-.938.551.033.972.506.938 1.058l-1.569 26.298c-.243 4.072-3.591 7.72-9.952 10.842l-347.136 170.426c-11.845 5.814-32.636 8.839-55.433 8.84zm-1127.376-270.236-1.24 20.76c-.477 7.999 15.447 16.617 40.57 21.957l1036.807 220.38c37.964 8.069 85.423 6.5 105.791-3.499l347.136-170.425c5.587-2.743 8.643-5.913 8.837-9.167l1.241-20.807c-1.664 1.965-4.211 3.793-7.628 5.471l-347.135 170.425c-20.71 10.166-68.747 11.809-107.088 3.66l-1036.807-220.38c-21.433-4.555-35.786-11.169-40.484-18.375z" fill="#111"/><path d="m1706.226 1702.664c38.215 8.123 52.521 22.892 31.944 32.994l-347.135 170.425c-20.577 10.102-68.225 11.702-106.439 3.579l-1036.807-220.38c-38.236-8.127-52.543-22.896-31.966-32.998l347.135-170.425c20.577-10.102 68.225-11.702 106.461-3.575z" fill="#b0c3ff"/><path d="m1336.042 1915.823c-17.061 0-35.243-1.694-51.654-5.182l-1036.808-220.381c-25.274-5.372-41.014-13.821-42.104-22.602-.396-3.186 1.002-7.901 9.905-12.272l347.136-170.425c20.71-10.167 68.76-11.806 107.109-3.655l1036.807 220.38c25.262 5.369 40.993 13.816 42.083 22.596.396 3.186-1.002 7.902-9.906 12.273l-347.135 170.425c-11.844 5.816-32.635 8.842-55.433 8.843zm-718.213-437.723c-22.43 0-42.827 2.96-54.431 8.656l-347.136 170.425c-4.33 2.126-9.373 5.627-8.802 10.231.966 7.777 16.497 15.782 40.535 20.892l1036.808 220.38c37.966 8.068 85.424 6.5 105.791-3.499l347.135-170.425c4.331-2.126 9.374-5.628 8.802-10.232-.965-7.776-16.488-15.779-40.514-20.886l-1036.807-220.38c-16.341-3.474-34.441-5.162-51.381-5.162z" fill="#111"/><path d="m1596.53 1703.775-886.87-188.51c-11.771-2.502-26.458-2.009-32.793 1.101l-182.225 89.463c-6.335 3.11-1.914 7.656 9.858 10.159l886.87 188.51c11.771 2.502 26.425 2.01 32.76-1.1l182.225-89.463c6.335-3.11 1.946-7.658-9.825-10.16" fill="#fff"/><path d="m1407.167 1807.08c-5.296 0-10.927-.524-16.006-1.604l-886.87-188.51c-8.211-1.745-13.139-4.499-13.518-7.554-.149-1.203.324-2.957 3.428-4.48l182.226-89.463c6.499-3.19 21.501-3.72 33.441-1.181l886.87 188.51c8.195 1.742 13.113 4.492 13.492 7.546.149 1.205-.325 2.962-3.436 4.489l-182.226 89.463c-3.726 1.83-10.257 2.784-17.401 2.784zm-713.44-292.419c-6.78 0-12.929.889-16.42 2.604l-182.226 89.462c-.925.454-2.456 1.375-2.324 2.439.21 1.689 3.986 4.151 11.949 5.844l886.87 188.51c11.557 2.457 25.961 1.999 32.111-1.02l182.226-89.463c.928-.455 2.464-1.379 2.331-2.448-.209-1.688-3.978-4.147-11.923-5.836l-886.87-188.51c-5.007-1.064-10.549-1.582-15.724-1.582z" fill="#111"/><path d="m1090.742 1751.203-315.788-67.123c-13.602-2.891-30.57-2.322-37.902 1.278l-105.419 51.755c-7.32 3.594-2.225 8.853 11.377 11.744l315.788 67.123c13.603 2.891 30.571 2.322 37.891-1.272l105.419-51.755c7.332-3.599 2.238-8.858-11.366-11.75" fill="#fff"/><path d="m977.08 1818.812c-6.115 0-12.621-.605-18.49-1.853l-315.788-67.123c-9.413-2-15.058-5.134-15.487-8.596-.167-1.341.371-3.302 3.878-5.023l105.42-51.755c7.486-3.676 24.781-4.287 38.55-1.359l315.788 67.123c9.411 2 15.055 5.133 15.484 8.595.167 1.343-.372 3.306-3.886 5.031l-105.42 51.755c-4.292 2.107-11.816 3.205-20.049 3.205zm-220.515-135.582c-7.87 0-15.014 1.034-19.072 3.026l-105.42 51.755c-1.106.543-2.939 1.654-2.774 2.982.249 2.008 4.649 4.916 13.919 6.886l315.788 67.123c13.395 2.847 30.103 2.312 37.242-1.191l105.42-51.755c1.109-.545 2.947-1.658 2.782-2.99-.249-2.008-4.648-4.915-13.916-6.885l-315.788-67.123c-5.787-1.23-12.194-1.828-18.181-1.828z" fill="#111"/><path d="m1993.202 1572.608 7.837 20.673-72.465 21.498-7.837-20.673z" fill="#b0c3ff"/><path d="m1928.574 1615.779c-.406 0-.784-.248-.936-.646l-7.837-20.673c-.098-.26-.084-.549.039-.798.124-.25.346-.436.612-.515l72.465-21.498c.507-.15 1.033.115 1.22.604l7.837 20.673c.098.26.084.549-.039.798-.124.25-.346.436-.612.515l-72.465 21.498c-.094.029-.19.042-.284.042zm-6.52-21.02 7.126 18.798 70.543-20.928-7.126-18.798z" fill="#111"/><path d="m2002.182 1556.033 7.837 20.673c1.745 4.602.391 10.192-3.731 13.745-1.424 1.228-3.178 2.212-5.249 2.83l-7.837-20.673c2.071-.617 3.825-1.602 5.249-2.829 4.122-3.554 5.476-9.144 3.731-13.746" fill="#b0c3ff"/><path d="m2001.039 1594.281c-.406 0-.784-.248-.936-.646l-7.837-20.673c-.098-.26-.084-.549.039-.798s.345-.436.61-.515c1.859-.554 3.502-1.438 4.882-2.628 3.714-3.201 5.1-8.276 3.45-12.63l-.001-.003c-.196-.517.063-1.094.58-1.29.516-.196 1.094.063 1.289.581l7.838 20.673c1.947 5.138.335 11.108-4.013 14.857-1.595 1.375-3.484 2.395-5.616 3.031-.095.028-.19.041-.285.041zm-6.533-21.054 7.128 18.803c1.501-.554 2.844-1.337 4.001-2.335 3.714-3.202 5.1-8.279 3.449-12.634l-5.413-14.278c-.59 2.92-2.159 5.678-4.566 7.753-1.337 1.152-2.88 2.055-4.599 2.691z" fill="#111"/><path d="m1886.107 1623.961 7.837 20.673-29.574 66.469-7.837-20.673z" fill="#b0c3ff"/><path d="m1864.37 1712.102c-.009 0-.019 0-.028 0-.405-.011-.763-.266-.907-.645l-7.837-20.672c-.093-.247-.085-.52.021-.761l29.573-66.469c.165-.369.492-.612.942-.593.405.011.763.266.907.645l7.837 20.672c.093.247.085.52-.021.761l-29.573 66.469c-.161.361-.519.593-.914.593zm-6.756-21.642 6.83 18.016 28.418-63.873-6.83-18.016z" fill="#111"/><path d="m1856.533 1690.43 7.837 20.673c-.849 1.9-2.049 3.462-3.473 4.689-6.504 5.607-17.642 4.182-20.862-4.311l-7.837-20.673c3.22 8.493 14.358 9.918 20.862 4.311 1.423-1.227 2.624-2.789 3.473-4.689" fill="#b0c3ff"/><path d="m1851.704 1720.142c-1.228 0-2.457-.148-3.657-.452-4.197-1.065-7.458-3.928-8.946-7.854l-7.838-20.673c-.195-.517.064-1.094.581-1.29.513-.196 1.094.063 1.29.581 1.271 3.356 3.96 5.709 7.568 6.625 4.08 1.035 8.562-.007 11.705-2.717 1.375-1.186 2.456-2.646 3.213-4.339.165-.371.523-.617.942-.592.404.012.763.266.906.645l7.837 20.672c.093.247.085.521-.022.762-.877 1.964-2.133 3.66-3.732 5.039-2.704 2.331-6.265 3.593-9.847 3.593zm-16.153-23.31 5.42 14.294c1.272 3.356 3.96 5.709 7.568 6.625 4.08 1.035 8.563-.007 11.705-2.717 1.274-1.099 2.297-2.434 3.042-3.972l-6.915-18.239c-.736 1.141-1.625 2.162-2.657 3.052-3.632 3.13-8.81 4.333-13.504 3.141-1.731-.438-3.305-1.184-4.659-2.184z" fill="#111"/><path d="m1965.18 1706.868 7.837 20.673-79.073-82.907-7.837-20.673z" fill="#b0c3ff"/><path d="m1973.018 1728.541c-.266 0-.529-.106-.724-.31l-79.074-82.908c-.092-.096-.164-.21-.212-.335l-7.837-20.672c-.168-.445 0-.947.402-1.201.404-.254.928-.19 1.257.156l79.073 82.907c.092.096.164.21.211.335l7.838 20.673c.169.445.001.947-.401 1.201-.164.104-.35.154-.533.154zm-78.211-84.451 75.524 79.185-6.015-15.863-75.523-79.185z" fill="#111"/><path d="m2004.075 1683.755 7.837 20.673c3.034 8.003.701 17.533-6.634 23.856-9.564 8.245-24.006 7.912-32.261-.743l-7.837-20.673c8.255 8.655 22.697 8.988 32.261.743 7.334-6.323 9.668-15.853 6.634-23.856" fill="#b0c3ff"/><path d="m1989.22 1735.241c-6.305 0-12.48-2.349-16.926-7.01-.092-.096-.164-.21-.211-.335l-7.838-20.673c-.169-.445-.001-.947.401-1.201s.927-.189 1.257.156c7.877 8.26 21.733 8.564 30.885.676 6.853-5.908 9.347-14.831 6.355-22.736l-.004-.009c-.195-.517.064-1.094.581-1.29.519-.195 1.094.063 1.29.581l7.837 20.673c3.298 8.701.584 18.502-6.916 24.968-4.806 4.144-10.815 6.2-16.711 6.2zm-15.34-8.246c7.901 8.121 21.649 8.375 30.745.532 6.856-5.911 9.35-14.839 6.352-22.745l-4.643-12.249c-.44 5.88-3.304 11.58-8.239 15.835-8.849 7.628-21.771 8.182-30.572 1.857z" fill="#111"/><path d="m1759.756 1458.403c3.71-3.198 9.162-4.569 14.347-2.383l221.547 93.459c8.904 3.737 9.39 14.618 2.8 20.299-1.424 1.227-3.178 2.212-5.249 2.829l-72.465 21.498 79.073 82.907c8.255 8.655 7.194 22.353-2.37 30.598s-24.006 7.912-32.261-.743l-79.073-82.907-29.574 66.469c-.849 1.9-2.049 3.462-3.473 4.689-6.585 5.677-17.918 4.146-20.978-4.629l-76.22-218.745c-1.781-5.118.187-10.143 3.896-13.341z" fill="#fff"/><path d="m1981.382 1714.568c-6.305 0-12.48-2.349-16.926-7.01l-78.043-81.826-28.966 65.105c-.879 1.965-2.135 3.66-3.733 5.04-3.689 3.182-8.933 4.368-13.69 3.092-4.237-1.136-7.476-4.106-8.886-8.149l-76.22-218.745c-1.788-5.133-.185-10.662 4.185-14.43 4.343-3.742 10.241-4.718 15.39-2.547l221.547 93.459c4.229 1.775 7.047 5.268 7.73 9.581.72 4.546-1.068 9.296-4.665 12.397-1.596 1.375-3.485 2.396-5.616 3.031l-70.898 21.033 77.944 81.724c4.031 4.227 6.095 9.768 5.81 15.602-.307 6.282-3.236 12.121-8.249 16.443-4.808 4.144-10.818 6.2-16.714 6.2zm-95.276-91.607c.271 0 .533.11.724.31l79.073 82.906c7.879 8.262 21.734 8.564 30.885.676 4.595-3.96 7.278-9.297 7.559-15.026.258-5.282-1.61-10.298-5.26-14.125l-79.073-82.907c-.24-.252-.332-.611-.242-.947.089-.336.348-.603.682-.701l72.465-21.498c1.857-.554 3.5-1.438 4.88-2.628 3.077-2.652 4.608-6.702 3.996-10.569-.572-3.615-2.953-6.549-6.53-8.051l-221.549-93.46c-4.445-1.875-9.544-1.023-13.306 2.219-3.734 3.22-5.114 7.916-3.603 12.257l76.22 218.745c1.206 3.458 3.875 5.899 7.516 6.875 4.122 1.104 8.669.08 11.865-2.675 1.375-1.186 2.456-2.646 3.213-4.339l29.572-66.467c.136-.305.415-.522.743-.579.056-.011.114-.016.17-.016z" fill="#111"/><path d="m711.475 1311.934-314.198 78.338c-4.267 1.064-8.761-1.592-10.063-5.948l-95.937-320.763c-.916-3.062-.006-6.132 2.097-8.055l-14.48 13.243c-2.103 1.923-3.013 4.994-2.097 8.055l95.937 320.763c1.302 4.355 5.796 7.012 10.062 5.948l314.199-78.338c1.268-.316 2.37-.924 3.258-1.737l14.48-13.243c-.888.813-1.99 1.421-3.258 1.737z" fill="url(#c)"/><path d="m380.908 1404.747c-4.055 0-7.899-2.77-9.132-6.894l-95.937-320.762c-1-3.344-.089-6.823 2.38-9.08l14.48-13.243c.406-.373 1.04-.345 1.413.063.372.408.344 1.04-.063 1.413l-.015.014c-1.887 1.735-2.576 4.422-1.8 7.017l95.937 320.763c1.147 3.835 5.126 6.199 8.863 5.265l314.198-78.338c1.076-.268 2.026-.774 2.825-1.504.406-.373 1.04-.345 1.413.063.372.408.344 1.04-.063 1.413-.002.001-.003.002-.004.004l-14.476 13.238c-1.031.944-2.309 1.625-3.691 1.97l-314.198 78.338c-.707.175-1.422.26-2.13.26zm-90.906-344.801-10.433 9.541c-1.897 1.735-2.592 4.429-1.813 7.031l95.937 320.763c1.147 3.836 5.129 6.196 8.862 5.265l314.198-78.338c1.077-.269 2.028-.775 2.826-1.505l10.179-9.309-312.238 77.85c-4.764 1.188-9.815-1.788-11.264-6.631l-95.937-320.763c-.39-1.309-.489-2.637-.317-3.904z" fill="#111"/><path d="m610.831 975.43c4.266-1.064 8.76 1.593 10.063 5.948l95.937 320.763c1.303 4.355-1.089 8.729-5.355 9.792l-314.199 78.339c-4.266 1.064-8.76-1.593-10.063-5.948l-95.936-320.763c-1.303-4.355 1.089-8.729 5.355-9.792z" fill="#fff"/><path d="m395.388 1391.504c-4.054 0-7.898-2.77-9.132-6.893l-95.937-320.763c-.724-2.42-.46-4.917.743-7.027 1.153-2.024 3.046-3.453 5.328-4.021l314.198-78.338c4.764-1.19 9.815 1.787 11.263 6.632l95.937 320.763c.724 2.42.46 4.917-.743 7.028-1.153 2.024-3.045 3.452-5.327 4.021l-314.199 78.339c-.709.174-1.423.259-2.131.259zm217.346-415.307c-.552 0-1.109.066-1.661.204l-314.198 78.338c-1.748.436-3.195 1.526-4.075 3.071-.93 1.631-1.13 3.572-.564 5.464l95.937 320.763c1.146 3.834 5.119 6.198 8.862 5.265l314.199-78.339c1.747-.436 3.194-1.526 4.074-3.071.93-1.632 1.13-3.572.564-5.464l-95.937-320.763c-.977-3.269-4.009-5.468-7.201-5.468zm-1.903-.766h.01z" fill="#111"/><g enable-background="new"><path d="m600.51 1210.742c-7.744 32.995-32.453 60.093-67.531 68.839-35.052 8.74-71.441-3.124-96.479-27.946l-23.878 24.318c33.855 33.598 83.121 49.613 130.572 37.782 47.452-11.831 80.965-48.485 91.443-93.137z" fill="#3658c1"/><path d="m511.896 1318.548c-36.359.001-72.728-14.841-99.979-41.885-.391-.388-.395-1.018-.01-1.411l23.878-24.318c.187-.19.441-.297.707-.299.294.033.522.103.711.29 25.605 25.384 62.212 35.993 95.532 27.686 33.295-8.301 58.891-34.395 66.8-68.097.062-.267.232-.496.469-.634.236-.139.521-.172.782-.098l34.128 9.856c.512.148.818.671.696 1.189-10.9 46.448-46.22 82.42-92.175 93.878-10.359 2.583-20.951 3.842-31.539 3.843zm-97.861-42.607c34.658 33.926 83.957 48.032 128.917 36.824 44.919-11.2 79.514-46.205 90.491-91.471l-32.206-9.301c-8.355 33.938-34.33 60.159-68.017 68.558-33.69 8.4-70.646-2.136-96.708-27.502z" fill="#111"/><path d="m464.908 1051.985c-70.803 17.653-110.663 90.539-89.044 162.821 7.13 23.84 20.073 44.616 36.758 61.146l23.878-24.318c-12.316-12.228-21.934-27.538-27.206-45.163-15.982-53.435 13.504-107.313 65.821-120.357z" fill="#b0c3ff"/><path d="m412.622 1276.953c-.264 0-.517-.104-.704-.29-17.288-17.126-30.088-38.417-37.013-61.569-10.782-36.051-6.867-73.199 11.026-104.601 17.065-29.951 45.027-51.074 78.733-59.478.519-.131 1.048.172 1.2.684l10.208 34.129c.078.262.046.544-.089.782-.136.237-.362.409-.627.475-24.446 6.095-44.728 21.417-57.106 43.144-12.989 22.796-15.83 49.771-7.999 75.956 5.004 16.73 14.324 32.201 26.953 44.74.39.387.394 1.018.009 1.41l-23.878 24.318c-.187.19-.441.297-.707.299-.001.001-.004.001-.006.001zm51.602-223.763c-32.756 8.424-59.919 29.097-76.555 58.293-17.619 30.922-21.472 67.515-10.848 103.037 6.734 22.514 19.103 43.245 35.793 60.012l22.479-22.892c-12.508-12.647-21.751-28.146-26.757-44.882-7.989-26.713-5.086-54.244 8.177-77.52 12.481-21.905 32.817-37.439 57.346-43.835z" fill="#111"/><path d="m464.908 1051.985 10.208 34.129c52.342-13.05 107.704 19.673 123.685 73.107 5.271 17.625 5.51 35.274 1.709 51.52l34.127 9.856c5.144-21.973 4.749-45.877-2.381-69.717-21.619-72.282-96.545-116.548-167.348-98.895" fill="#fff"/><path d="m634.638 1221.598c-.093 0-.187-.013-.277-.039l-34.128-9.856c-.512-.148-.817-.67-.696-1.189 3.895-16.643 3.309-34.28-1.693-51.005-15.802-52.834-70.746-85.323-122.485-72.424-.52.132-1.048-.172-1.2-.684l-10.208-34.129c-.078-.262-.046-.544.089-.782.136-.237.362-.409.627-.475 71.206-17.755 146.816 26.917 168.549 99.579 6.913 23.113 7.742 47.399 2.397 70.232-.062.267-.231.496-.468.635-.157.091-.332.137-.507.137zm-32.943-11.554 32.204 9.3c5.004-22.194 4.108-45.744-2.602-68.177-21.327-71.307-95.244-115.287-165.131-98.46l9.634 32.211c52.483-12.54 107.948 20.49 123.958 74.018 5.01 16.748 5.676 34.399 1.937 51.108z" fill="#111"/></g><path d="m238.617 1331.068c-4.497-4.5-10.463-7.054-16.8-7.192-6.931-.151-12.531 2.574-16.009 4.887-5.708 3.797-10.474 9.012-13.419 14.686-3.541 6.822-3.188 13.022-2.872 15.372.167 1.237.556 4.133 2.251 7.628 1.5 3.093 2.93 4.659 4.586 6.473 0 0 0 .001.001.001l27.089 27.367c-2.106-2.128-.943-7.42 3.787-14.653 7.598-11.619 21.523-23.847 31.102-27.312 3.616-1.308 6.096-1.18 7.373.11z" fill="#3658c1"/><path d="m223.444 1401.29c-.258 0-.515-.099-.711-.296-.002-.002-.004-.004-.005-.005l-27.084-27.362c-1.738-1.902-3.214-3.519-4.775-6.742-1.764-3.635-2.17-6.643-2.343-7.927-.33-2.447-.698-8.894 2.975-15.97 3.022-5.822 7.906-11.169 13.753-15.058 3.599-2.393 9.402-5.199 16.585-5.055 6.596.145 12.806 2.803 17.485 7.485.001.001.003.002.004.003l27.089 27.367c.389.393.385 1.026-.008 1.415-.392.389-1.026.384-1.414-.007-1.015-1.025-3.259-.98-6.322.127-9.391 3.396-23.119 15.472-30.604 26.918-5.045 7.713-5.261 12.041-3.913 13.402.389.393.385 1.026-.008 1.415-.195.194-.45.29-.704.29zm-2.178-76.42c-6.427 0-11.635 2.551-14.904 4.726-5.569 3.704-10.216 8.788-13.085 14.314-3.41 6.569-3.072 12.522-2.769 14.777.161 1.193.537 3.978 2.16 7.325 1.436 2.962 2.821 4.479 4.425 6.234l24.368 24.618c.17-3.001 1.843-7.05 4.934-11.775 7.687-11.754 21.861-24.183 31.599-27.705 1.733-.627 3.151-.911 4.311-.965l-24.395-24.646c-4.314-4.315-10.036-6.765-16.113-6.898-.179-.003-.356-.005-.531-.005z" fill="#111"/><path d="m286.746 1366.652c-1.553-4.377-3.621-6.219-6.731-8.669-13.102-10.32-28.949 2.366-39.796 11.765-11.978 11.631-29.198 31.166-17.369 44.849 3.813 4.189 8.009 8.116 14.327 7.705 18.385-.22 56.308-36.622 49.569-55.65zm-11.16 25.236c-6.004 9.182-17.008 18.844-24.578 21.583-7.57 2.738-8.838-2.485-2.834-11.667s17.008-18.844 24.578-21.583c7.569-2.738 8.838 2.485 2.834 11.667z" fill="#3658c1"/><path d="m236.212 1423.335c-6.215 0-10.374-3.969-14.102-8.064-13.787-15.947 9.695-38.748 17.412-46.24 9.366-8.12 26.725-23.162 41.111-11.833 3.202 2.523 5.423 4.521 7.055 9.12 2.329 6.577-.259 15.746-7.287 25.818-11.689 16.753-31.479 31.025-43.213 31.166-.331.022-.657.033-.976.033zm33.004-68.204c-9.037 0-18.844 7.143-28.342 15.373-20.041 19.461-25.703 33.683-17.268 43.439 3.575 3.926 7.559 7.749 13.506 7.361 11.036-.134 30.475-14.297 41.648-30.312 6.649-9.529 9.15-18.054 7.043-24.006-1.485-4.186-3.402-5.85-6.408-8.217-3.231-2.545-6.647-3.638-10.179-3.638zm-21.682 60.066c-1.746 0-2.743-.672-3.31-1.389-1.799-2.274-.693-6.731 3.113-12.552 6.095-9.321 17.343-19.179 25.074-21.976 4.269-1.545 6.23-.525 7.123.603 1.8 2.274.694 6.732-3.112 12.552-6.095 9.321-17.344 19.179-25.074 21.976-1.558.564-2.81.786-3.814.786zm28.688-34.703c-.837 0-1.9.223-3.13.667-7.384 2.671-18.187 12.177-24.08 21.19-3.775 5.771-4.093 9.111-3.219 10.216.678.854 2.453.839 4.876-.038 7.384-2.671 18.187-12.177 24.08-21.189 3.774-5.772 4.093-9.111 3.218-10.216-.332-.42-.933-.63-1.745-.63z" fill="#111"/><path d="m379.15 1503.052-8.371-8.456c4.159-11.253 1.823-18.264-4.795-25.983-.001 0-87.407-88.304-87.407-88.304-1.155-1.14-3.08-1.036-5.815-.145-7.045 2.294-21.792 14.638-26.647 25.102-1.334 2.874-2.673 6.304-.936 8.117.001.001 87.408 88.304 87.408 88.304 8.379 8.114 18.102 8.186 25.938 5.067l8.359 8.445c5.16 5.65 17.543-7.293 12.266-12.147z" fill="#b0c3ff"/><path d="m370.108 1517.597c-1.554 0-2.925-.587-3.962-1.723l-7.872-7.951c-5.863 2.18-16.535 4.02-26.382-5.517-.888-.896-87.208-88.102-87.423-88.318-2.104-2.196-.887-5.739.739-9.243 5.057-10.898 20.104-23.307 27.245-25.632 2.254-.734 5.065-1.354 6.826.384l87.415 88.312c6.213 7.243 9.454 14.507 5.24 26.432l7.91 7.992c1.44 1.338 1.92 3.309 1.35 5.552-1.052 4.134-5.353 8.482-9.391 9.494-.581.146-1.149.218-1.695.218zm-11.583-11.842c.262 0 .52.103.711.296l8.359 8.445c.935 1.022 2.179 1.331 3.724.943 3.293-.825 7.076-4.661 7.938-8.047.395-1.55.131-2.763-.783-3.604-.012-.01-.023-.021-.034-.032l-8.37-8.457c-.273-.276-.361-.686-.228-1.05 4.215-11.406 1.358-18.017-4.616-24.985l-87.358-88.251c-.756-.747-2.282-.716-4.794.102-6.656 2.168-21.28 14.294-26.05 24.573-1.19 2.564-2.393 5.677-1.121 7.004l-.006.005c.897.896 9.077 9.159 87.402 88.288 9.383 9.084 19.604 6.935 24.856 4.841.12-.048.246-.071.37-.071z" fill="#111"/></svg>