<svg xmlns="http://www.w3.org/2000/svg" viewBox="0 0 3000 3000" width="3000" height="3000"><g transform="translate(564.0 566.4) rotate(0.0 1157.3999999999999 765.0) scale(1.2244263212516355 1.2240518998005516)"><svg width="1890.518" height="1249.947" viewBox="0 0 1890.518 1249.947"><path d="M1.056 937.351 336.129 10.67c.281-.776 1.597-1.134 3.483-.889L4.538 936.462c-1.885-.245-3.202.113-3.482.889" fill="#111"/><path d="M1.057 938.359a1.006 1.006 0 0 1-.941-1.348L335.189 10.33c.468-1.293 2.128-1.854 4.551-1.541a.999.999 0 0 1 .812 1.331L5.479 936.801a.992.992 0 0 1-1.069.652c-1.692-.218-2.349.148-2.419.251a.992.992 0 0 1-.934.655zM338.212 10.711c-.768.041-1.099.241-1.148.312L2.821 935.408a7.726 7.726 0 0 1 1.039-.013z" fill="#111"/><path d="m676.657 1081.706 335.074-926.681c.173-.479.736-.815 1.656-.925l-335.074 926.681c-.92.11-1.483.447-1.656.925" fill="#fff"/><path d="M676.658 1082.711a1.004 1.004 0 0 1-.942-1.345v-.001a.03.03 0 0 0 .004-.008l335.07-926.671c.181-.5.743-1.371 2.479-1.578a1 1 0 0 1 1.058 1.333l-335.074 926.681a1.001 1.001 0 0 1-.822.653c-.58.07-.806.231-.838.282a.993.993 0 0 1-.935.654z" fill="#111"/><path d="M678.314 1080.781 1013.387 154.1l17.078-2.008-335.073 926.681z" fill="#111"/><path d="M678.313 1081.781a1 1 0 0 1-.94-1.339l335.074-926.681a1 1 0 0 1 .823-.653l17.078-2.008a1 1 0 0 1 1.057 1.333l-335.074 926.681a1 1 0 0 1-.823.653l-17.078 2.008a1.146 1.146 0 0 1-.117.006zm335.805-926.76-334.313 924.578 14.856-1.747 334.313-924.578z" fill="#111"/><path d="m700.418 1084.835 335.074-926.681 159.922 31.801-335.073 926.681z" fill="#3658c1"/><path d="M860.341 1117.636c-.065 0-.131-.006-.196-.019l-159.922-31.801a1 1 0 0 1-.745-1.321l335.073-926.681a1.008 1.008 0 0 1 1.136-.641l159.923 31.801a1 1 0 0 1 .745 1.321l-335.074 926.681a1 1 0 0 1-.94.66zm-158.586-33.555 157.938 31.407 334.387-924.779-157.938-31.407z" fill="#111"/><path d="M1053.92 153.903a3.61 3.61 0 0 0-.252-.323c-1.163-1.318-3.635-2.554-6.038-3.032L340.362 9.905a11.467 11.467 0 0 0-.75-.124L4.538 936.462c.241.031.492.072.75.124l707.267 140.643c2.403.478 4.876 1.714 6.038 3.032.095.11.179.218.252.323.342.498.44.95.307 1.318l335.074-926.681c.133-.368.036-.82-.306-1.318z" fill="#3658c1"/><path d="M719.153 1082.902a1 1 0 0 1-.941-1.34c.001-.023-.025-.17-.19-.411a2.73 2.73 0 0 0-.186-.237c-.998-1.131-3.305-2.272-5.476-2.704L5.094 937.567a9.828 9.828 0 0 0-.684-.113.998.998 0 0 1-.812-1.331L338.672 9.441a.997.997 0 0 1 1.069-.652c.263.034.535.079.816.135l707.268 140.643c2.637.525 5.286 1.872 6.593 3.352.126.145.231.282.324.417l.002.002c.664.967.597 1.743.423 2.224l-335.073 926.681c.003-.007.001-.003 0 0a1.002 1.002 0 0 1-.941.659zM5.882 935.684l706.869 140.563c2.445.487 4.901 1.68 6.287 3.031l334.247-924.397c.001-.023-.025-.17-.19-.411a2.56 2.56 0 0 0-.182-.233c-1.002-1.135-3.309-2.276-5.479-2.708L340.269 10.905zm1215.356-738.481c-.575-.837-1.808-1.742-3.422-2.451l-22.238-9.826-335.074 926.681 22.238 9.826c1.614.709 2.847 1.615 3.422 2.451.264.384.39.754.35 1.083a1.02 1.02 0 0 1-.051.223l335.074-926.681a.967.967 0 0 0 .052-.223c.039-.329-.086-.699-.351-1.083z" fill="#111"/><path d="M886.464 1126.19a1 1 0 0 1-.941-1.34c-.001-.001.005-.128-.182-.398-.374-.544-1.358-1.381-3.001-2.103l-22.24-9.827a1 1 0 0 1-.536-1.254l335.074-926.681a1 1 0 0 1 1.345-.575l22.237 9.826c1.743.766 3.145 1.786 3.842 2.798l.001.001c.413.602.588 1.198.519 1.77a2.007 2.007 0 0 1-.108.453l-335.069 926.67c-.149.407-.532.66-.941.66zm-24.702-15.121 21.385 9.449c1.313.577 2.432 1.298 3.201 2.05l334.248-924.4c0-.003.004-.129-.182-.399-.486-.704-1.607-1.49-3.001-2.102l-21.259-9.394z" fill="#111"/><path d="M1173.651 175.607a11.276 11.276 0 0 0-.751-.124c-1.849-.24-3.19.093-3.477.886L834.349 1103.05c.287-.793 1.628-1.126 3.477-.886.242.031.493.073.751.124l709.19 141.025 335.074-926.681z" fill="#3658c1"/><path d="M1547.768 1244.314a.932.932 0 0 1-.196-.02l-709.189-141.025a9.73 9.73 0 0 0-.684-.113c-1.675-.217-2.33.136-2.412.242a1 1 0 0 1-1.878-.687l.003-.009 335.07-926.673c.468-1.292 2.124-1.854 4.547-1.538.265.035.537.079.817.135l709.189 141.025a.999.999 0 0 1 .745 1.321l-335.073 926.682a1 1 0 0 1-.939.66zm-711.06-143.227c.389 0 .806.028 1.248.086.263.034.535.079.816.135l708.347 140.858 334.386-924.779-708.049-140.798a10.404 10.404 0 0 0-.686-.113c-1.693-.221-2.342.143-2.413.246l-334.243 924.39c.189-.017.388-.025.594-.025z" fill="#111"/><path d="M1889.386 320.42a2.49 2.49 0 0 0-.231-.408c-.955-1.389-3.631-2.846-6.314-3.38l-335.074 926.681c2.683.534 5.359 1.991 6.314 3.38.094.137.172.274.231.408.148.337.168.636.076.889l335.073-926.681c.093-.253.073-.551-.075-.889z" fill="#111"/><path d="M1554.389 1248.99a1 1 0 0 1-.942-1.338c-.003 0-.011-.056-.051-.147a1.484 1.484 0 0 0-.142-.25c-.716-1.041-3.039-2.436-5.684-2.961a1 1 0 0 1-.745-1.32L1881.9 316.292c.169-.465.66-.733 1.136-.641 2.909.579 5.829 2.174 6.943 3.794.131.19.238.382.322.57l.001.004c.312.714.227 1.281.101 1.631l-335.073 926.68c-.148.407-.532.66-.941.66zm-5.302-6.384c2.065.591 4.016 1.639 5.183 2.777l334.253-924.414-.001.003c-.004 0-.007-.05-.05-.149a1.483 1.483 0 0 0-.14-.243c-.643-.935-2.565-2.148-4.854-2.771z" fill="#111"/><path d="M1547.767 1243.313c2.948.586 5.887 2.287 6.545 3.788.658 1.5-1.216 2.23-4.164 1.643l-689.644-137.138 22.238 9.826c2.355 1.034 3.898 2.487 3.773 3.534-.119 1.063-1.844 1.465-4.279.98l-198.982-39.568c-2.403-.478-4.876-1.714-6.039-3.032-1.124-1.295-.681-2.354 1.098-2.566l17.078-2.008L7.67 942.017c-2.948-.586-5.88-2.271-6.538-3.772s1.209-2.246 4.157-1.66l707.267 140.643c2.403.478 4.875 1.714 6.038 3.032 1.124 1.295.681 2.354-1.098 2.566l-17.078 2.008 159.923 31.801-22.27-9.833c-2.322-1.028-3.899-2.487-3.773-3.534.119-1.063 1.876-1.458 4.279-.98z" fill="#111"/><path d="M1552.016 1249.946c-.624 0-1.316-.073-2.062-.222l-680.755-135.37 13.948 6.163c2.254.99 4.585 2.71 4.361 4.568-.063.561-.355 1.051-.846 1.409-.937.687-2.579.839-4.622.433l-198.981-39.568c-2.638-.525-5.287-1.872-6.594-3.352-1.066-1.23-.917-2.208-.733-2.683.188-.487.759-1.334 2.463-1.538l10.792-1.269L7.476 942.998c-2.843-.565-6.353-2.283-7.26-4.352-.347-.792-.269-1.593.216-2.197.814-1.013 2.657-1.322 5.051-.845l707.268 140.643c2.638.525 5.287 1.872 6.593 3.352 1.066 1.23.917 2.208.733 2.683-.188.487-.759 1.334-2.463 1.538l-10.792 1.269 144.812 28.797-13.969-6.168c-2.254-.997-4.583-2.721-4.361-4.568.062-.557.354-1.045.844-1.402 1.271-.931 3.443-.675 4.624-.439l709.189 141.026c2.842.564 6.354 2.287 7.266 4.367.347.79.269 1.588-.214 2.188-.559.695-1.61 1.056-2.997 1.056zm-691.512-139.339c.064 0 .13.006.196.019l689.645 137.138c2.008.397 2.976.051 3.109-.126l-.002.001c-.01 0-.02-.054-.056-.135-.465-1.062-3.054-2.659-5.824-3.21l-709.189-141.025c-2.022-.403-2.978-.043-3.099.132-.009.299.883 1.466 3.191 2.487l22.27 9.833a1 1 0 0 1-.599 1.895l-159.922-31.801a1.001 1.001 0 0 1 .078-1.975l17.078-2.008c.578-.069.804-.229.837-.28-.001-.034-.056-.266-.378-.638-1-1.133-3.307-2.274-5.478-2.706L5.094 937.567c-2.016-.4-2.978-.041-3.103.137.007-.015.017.048.057.141.462 1.055 2.965 2.625 5.818 3.192l687.721 136.756a1 1 0 0 1-.078 1.974l-17.078 2.008c-.578.069-.803.229-.837.28.001.034.056.266.378.637 1 1.134 3.307 2.275 5.479 2.707l198.981 39.568c2.03.404 2.979.048 3.097-.126.02-.306-.861-1.47-3.188-2.492l-22.24-9.827a1 1 0 0 1 .403-1.915z" fill="#111"/><path d="M22.511 918.592 345.618 25.007 376.654 1 53.547 894.585z" fill="#fff"/><path d="M22.511 919.592a.999.999 0 0 1-.941-1.34L344.677 24.666a.998.998 0 0 1 .329-.451L376.042.209a1.001 1.001 0 0 1 1.553 1.131L54.488 894.925a.987.987 0 0 1-.329.451l-31.037 24.007a.995.995 0 0 1-.611.209zM346.46 25.62 24.622 915.695l28.084-21.723L374.543 3.897z" fill="#111"/><path d="M562.82 973.604c71.821 11.108 166.04 41.699 201.679 62.357-23.346 1.387-28.867 11.277-30.523 24.109L22.511 918.592l31.036-24.007c236.718 41.84 381.389 53.59 509.273 79.019z" fill="#b0c3ff"/><path d="M733.976 1061.069a.991.991 0 0 1-.195-.019L22.316 919.573a1.002 1.002 0 0 1-.416-1.772l31.037-24.007a1 1 0 0 1 .786-.194c123.005 21.742 219.701 35.155 305.014 46.99 76.631 10.63 142.813 19.812 204.258 32.028 73.562 11.379 167.316 42.368 202.007 62.477a1 1 0 0 1-.441 1.863c-22.24 1.322-27.914 10.246-29.591 23.239a1.005 1.005 0 0 1-.994.872zM24.859 918.04l708.271 140.842c1.638-11.147 6.549-21.465 28.024-23.656-36.597-20.029-127.066-49.587-198.487-60.633l-.042-.007c-61.394-12.208-127.556-21.386-204.165-32.014-85.231-11.823-181.813-25.221-304.651-46.925z" fill="#111"/><g><path d="M919.695 1043.411c145.32 28.897 359.99 94.996 557.678 134.307l60.028 42.115-706.274-140.445c-14.3-16.005-37.522-31.61-66.628-43.427 27.211-12.15 82.523-7.001 155.196 7.45z" fill="#b0c3ff"/><path d="M1537.401 1220.833a.929.929 0 0 1-.195-.02l-706.273-140.444a1.004 1.004 0 0 1-.551-.314c-14.706-16.46-38.237-31.791-66.258-43.167a1.002 1.002 0 0 1-.031-1.84c24.946-11.14 74.454-8.792 155.798 7.383 67.109 13.345 149.7 34.802 237.141 57.518 100.371 26.076 214.133 55.631 320.538 76.79a.976.976 0 0 1 .379.162l60.027 42.114c.387.271.531.776.346 1.212a1.003 1.003 0 0 1-.921.606zM831.65 1078.472l701.293 139.455-55.971-39.269c-106.4-21.167-220.114-50.709-320.444-76.774-87.411-22.709-169.975-44.159-237.028-57.492-78.569-15.624-127.164-18.329-152.392-8.439 27.176 11.332 50.019 26.372 64.542 42.519z" fill="#111"/><path d="m1477.374 1177.719 323.106-893.586 60.028 42.115-323.107 893.585z" fill="#fff"/><path d="M1537.401 1220.833a.995.995 0 0 1-.574-.182l-60.027-42.114a.997.997 0 0 1-.366-1.158l323.106-893.586a.998.998 0 0 1 1.515-.479l60.027 42.115c.37.259.52.734.366 1.159l-323.106 893.585a.995.995 0 0 1-.941.66zm-58.827-43.493 58.331 40.924 322.402-891.636-58.331-40.925z" fill="#111"/></g><path d="M944.379 103.241C816.496 77.813 624.944 50.374 376.654 1L53.547 894.585c248.29 49.374 439.842 76.813 567.725 102.241 63.954 12.717 111.967 24.927 143.226 39.135l323.108-893.585c-31.26-14.207-79.273-26.418-143.227-39.135z" fill="#fff"/><path d="M764.498 1036.961c-.142 0-.282-.03-.414-.089-28.749-13.067-72.854-25.115-143.007-39.064-53.414-10.621-118.142-21.628-193.089-34.372-102.5-17.43-230.064-39.121-374.636-67.87a1.002 1.002 0 0 1-.746-1.321L375.714.66a.997.997 0 0 1 1.136-.641C521.398 28.763 648.951 50.453 751.44 67.88c74.959 12.746 139.696 23.754 193.136 34.38 70.308 13.98 114.548 26.072 143.444 39.205a1 1 0 0 1 .526 1.251L765.438 1036.3a1 1 0 0 1-.94.661zM54.882 893.831c144.076 28.631 271.222 50.251 373.44 67.633 74.963 12.747 139.703 23.755 193.145 34.382 69.515 13.823 113.544 25.798 142.457 38.759l322.426-891.698c-28.769-12.921-72.695-24.871-142.166-38.684-53.412-10.621-118.136-21.626-193.08-34.37C648.802 52.456 521.529 30.815 377.302 2.149z" fill="#111"/><path d="M864.396 165.507c-76.327-13.892-170.158-29.075-280.473-48.486l-11.514 31.842c110.315 19.411 204.146 34.594 280.473 48.486z" fill="#3658c1"/><path d="M852.883 198.349a.996.996 0 0 1-.18-.016c-41.343-7.524-88.915-15.613-139.28-24.178-44.557-7.577-90.629-15.411-141.188-24.307a.998.998 0 0 1-.767-1.325l11.514-31.842a1.006 1.006 0 0 1 1.114-.645c50.544 8.894 96.607 16.727 141.154 24.301 50.379 8.567 97.965 16.659 139.324 24.186a1 1 0 0 1 .745 1.368l-11.497 31.797a.998.998 0 0 1-.939.661zm-279.129-50.265c50.092 8.81 95.796 16.582 140.004 24.099 50.033 8.508 97.312 16.547 138.471 24.03l10.823-29.934c-41.075-7.465-88.237-15.485-138.138-23.97-44.308-7.534-90.11-15.323-140.337-24.158z" fill="#111"/><path d="M686.101 207.92c-82.004-13.95-176.175-30.079-281.89-50.179l-86.367 238.855c105.715 20.1 199.887 36.228 281.89 50.179z" fill="#b0c3ff"/><path d="M599.736 447.775a.972.972 0 0 1-.169-.014c-90.007-15.312-179.295-30.672-281.91-50.182a1.001 1.001 0 0 1-.754-1.322l86.367-238.855c.167-.462.644-.73 1.127-.643 102.647 19.516 191.903 34.87 281.871 50.175a1.002 1.002 0 0 1 .772 1.325l-86.366 238.855a.997.997 0 0 1-.938.661zm-280.552-51.942c101.803 19.344 190.512 34.609 279.895 49.816l85.675-236.944c-89.329-15.198-178.033-30.465-279.892-49.822zm311.286 245.19a1 1 0 0 1-.381-1.925l60.148-24.796a1.001 1.001 0 0 1 .762 1.849l-60.148 24.796a1.004 1.004 0 0 1-.381.076zm11.3 88.778a.993.993 0 0 1-.594-.196l-32.558-24.074a1 1 0 0 1 1.189-1.608l32.558 24.074a1 1 0 0 1-.595 1.804zm-122.329 15.944a1 1 0 0 1-.941-1.34l13.747-38.019a1 1 0 1 1 1.881.679l-13.747 38.019a1 1 0 0 1-.94.661zm-137.316-59.018a1 1 0 0 1-.117-1.993l73.491-8.75a1.006 1.006 0 0 1 1.111.875 1 1 0 0 1-.875 1.111l-73.491 8.75a.939.939 0 0 1-.119.007zm98.951-69.518a.996.996 0 0 1-.627-.221l-58.462-47.097a1 1 0 1 1 1.255-1.557l58.462 47.097a1 1 0 0 1-.628 1.778z" fill="#111"/><path d="M566.406 614.91c-83.986-13.308-151.571 12.488-126.871 48.425 38.877 56.561 202.237 64.585 210.597 10.344 3.939-25.565-30.49-49.732-83.726-58.769" fill="#3658c1"/><path d="M567.855 711.341c-50.241 0-108.098-16.82-129.144-47.439-6.367-9.264-7.032-18.442-1.921-26.542 14.389-22.804 70.178-32.88 129.772-23.438l.011.002c53.809 9.134 88.576 33.769 84.547 59.907-2.418 15.688-17.932 27.569-43.684 33.453-11.931 2.727-25.458 4.057-39.581 4.057zm-45.372-98.969c-13.744 0-26.811 1.115-38.561 3.347-22.795 4.33-38.933 12.395-45.441 22.709-4.717 7.476-4.085 15.666 1.878 24.341 26.537 38.606 112.854 54.853 166.632 42.566 24.897-5.689 39.868-16.985 42.152-31.808 3.853-24.993-30.239-48.691-82.905-57.631-14.824-2.348-29.646-3.524-43.755-3.524z" fill="#111"/><path d="M582.618 754.541c-19.504-3.37-108.088-18.441-131.202-22.397l-14.594 40.361c47.43 8.119 91.199 15.484 131.202 22.397z" fill="#b0c3ff"/><path d="M568.025 795.902c-.056 0-.113-.005-.171-.015-23.581-4.075-48.385-8.292-74.646-12.758-18.229-3.1-37.083-6.306-56.554-9.638a1 1 0 0 1-.771-1.326l14.594-40.361a.995.995 0 0 1 1.109-.646c8.749 1.498 26.88 4.588 47.094 8.033 33.743 5.751 71.988 12.27 84.109 14.364a.997.997 0 0 1 .77 1.325l-14.594 40.361a1 1 0 0 1-.94.661zm-129.856-24.181c19.052 3.26 37.513 6.399 55.374 9.437 25.957 4.414 50.49 8.585 73.827 12.617l13.903-38.451c-13.264-2.287-50.213-8.584-82.929-14.16a94498.14 94498.14 0 0 1-46.271-7.892z" fill="#111"/><path d="M388.767 668.974c-41.257-7.247-84.839-15.085-130.691-23.668l-14.594 40.361c45.852 8.583 89.434 16.421 130.691 23.668z" fill="#b0c3ff"/><path d="M374.174 710.335a1.02 1.02 0 0 1-.173-.015c-46.488-8.166-89.241-15.908-130.702-23.67a1 1 0 0 1-.756-1.322l14.594-40.361c.167-.461.644-.73 1.125-.643 41.442 7.758 84.188 15.499 130.68 23.667a.998.998 0 0 1 .767 1.325l-14.594 40.361a1.004 1.004 0 0 1-.941.658zm-129.351-25.434c40.848 7.642 82.966 15.269 128.696 23.304l13.903-38.452c-45.733-8.038-87.855-15.667-128.694-23.308z" fill="#111"/><path d="M788.757 742.308c-20.639-5.158-43.954-10.232-69.89-15.389-22.49-4.472-46.95-9.006-73.341-13.711l-14.594 40.361c26.391 4.705 50.851 9.239 73.341 13.711 25.937 5.158 49.251 10.232 69.89 15.389z" fill="#b0c3ff"/><path d="M774.163 783.669c-.08 0-.161-.01-.242-.03-19.636-4.907-42.481-9.938-69.844-15.378-20.808-4.138-44.791-8.622-73.321-13.708a1 1 0 0 1-.764-1.324l14.594-40.361a.997.997 0 0 1 1.116-.645c28.531 5.086 52.527 9.572 73.361 13.714 27.393 5.448 50.27 10.485 69.937 15.4a1.003 1.003 0 0 1 .699 1.31l-14.594 40.361a1.002 1.002 0 0 1-.942.661zm-141.888-30.876c28.03 5.002 51.655 9.422 72.192 13.506 26.987 5.367 49.592 10.336 69.062 15.182l13.91-38.47c-19.394-4.823-41.904-9.769-68.768-15.111-20.618-4.1-44.338-8.537-72.492-13.56z" fill="#111"/><path d="M486.432 538.658c-35.122-6.065-72.107-12.55-110.915-19.565l-14.594 40.361c20.324 3.674 96.724 17.114 110.915 19.565z" fill="#b0c3ff"/><path d="M471.839 580.019a.985.985 0 0 1-.17-.015c-13.949-2.408-90.857-15.938-110.923-19.566a.997.997 0 0 1-.763-1.324l14.594-40.361a1 1 0 0 1 1.118-.644c34.3 6.2 70.579 12.599 110.908 19.563a.997.997 0 0 1 .77 1.325l-14.594 40.361a1 1 0 0 1-.94.661zM362.266 558.68c21.307 3.838 93.307 16.506 108.917 19.21l13.903-38.45c-39.541-6.831-75.188-13.119-108.916-19.213z" fill="#111"/><path d="M753.544 585.303c-29.312-5.65-61.709-11.437-97.115-17.573l-14.594 40.361c15.145 2.625 81.959 14.652 97.115 17.573z" fill="#b0c3ff"/><g fill="#111"><path d="M738.951 626.664c-.063 0-.127-.006-.19-.018-15.468-2.981-83.013-15.129-97.097-17.57a1 1 0 0 1-.769-1.325l14.595-40.361a1 1 0 0 1 1.111-.646c40.786 7.069 70.743 12.49 97.133 17.577a1.001 1.001 0 0 1 .751 1.322l-14.594 40.361a1 1 0 0 1-.94.66zM643.18 607.31c16.025 2.798 78.626 14.06 95.119 17.211l13.905-38.458c-25.918-4.986-55.355-10.311-95.12-17.206zM969.097 281.9a.988.988 0 0 1-.251-.032c-66.347-17.146-142.043-30.099-222.184-43.811-13.61-2.329-27.303-4.672-41.038-7.051a1 1 0 1 1 .342-1.97c13.733 2.379 27.424 4.722 41.034 7.05 80.183 13.72 155.919 26.678 222.346 43.846a1 1 0 0 1-.249 1.968zm-24.298 67.196a.99.99 0 0 1-.24-.029c-86.35-21.253-180.318-36.984-263.226-50.864a1 1 0 1 1 .33-1.972c82.942 13.886 176.95 29.624 263.374 50.895a1 1 0 0 1-.238 1.97zm-77.675 54.582c-.069 0-.141-.007-.212-.022-65.885-14.201-159.771-30.062-209.872-38.253a1 1 0 0 1 .322-1.974c50.12 8.194 144.044 24.062 209.972 38.272a1 1 0 0 1-.21 1.977zm29.08 79.815c-.08 0-.161-.009-.242-.029-70.439-17.476-151.618-33.163-263.215-50.862a1 1 0 1 1 .313-1.976c111.656 17.709 192.887 33.406 263.385 50.896a1 1 0 0 1-.241 1.971zM540.23 488.13a.895.895 0 0 1-.17-.015c-95.051-16.347-173.358-30.39-239.395-42.931a1 1 0 0 1 .373-1.965c66.025 12.539 144.321 26.58 239.361 42.925a1 1 0 0 1-.169 1.986zm195.862 33.822a.971.971 0 0 1-.177-.016 14556.222 14556.222 0 0 0-153.34-26.569 1 1 0 0 1 .331-1.973 14586.01 14586.01 0 0 1 153.361 26.573 1 1 0 0 1-.175 1.985zm-215.92 319.416a.968.968 0 0 1-.168-.014c-136.076-23.035-247.558-42.731-340.815-60.212a1.001 1.001 0 0 1 .368-1.966c93.246 17.479 204.716 37.173 340.781 60.207a1 1 0 0 1-.166 1.985zm230.268 45.249a.96.96 0 0 1-.242-.03c-53.97-13.429-117.494-26.25-188.809-38.106a.998.998 0 0 1-.822-1.15.995.995 0 0 1 1.15-.822c71.366 11.865 134.942 24.696 188.963 38.139a1 1 0 0 1-.24 1.969zm-175.52 35.712a.95.95 0 0 1-.167-.014c-162.894-27.406-327.7-56.443-419.864-73.976a1 1 0 0 1 .374-1.964c92.151 17.53 256.941 46.564 419.822 73.968a1 1 0 0 1-.165 1.986z"/></g><path d="M1242.802 149.827c-55.125-10.962-100.26-16.571-130.72-13.339-9.697 1.029-17.906 2.954-24.476 5.888l-323.108 893.585c6.571-2.934 14.78-4.859 24.476-5.888 30.459-3.233 75.595 2.377 130.72 13.338 145.32 28.898 359.99 94.997 557.678 134.308l323.107-893.585c-197.688-39.311-412.357-105.41-557.677-134.307z" fill="#fff"/><path d="M1477.373 1178.719a.932.932 0 0 1-.196-.02c-106.463-21.17-220.256-50.733-320.654-76.816-87.409-22.708-169.972-44.158-237.023-57.491-59.937-11.919-102.597-16.277-130.419-13.325-9.721 1.031-17.854 2.985-24.175 5.806a1 1 0 0 1-1.348-1.253l323.107-893.584c.093-.256.285-.462.533-.573 6.512-2.907 14.849-4.916 24.778-5.969 28.021-2.974 70.88 1.393 131.021 13.352 67.109 13.345 149.7 34.802 237.14 57.518 100.37 26.076 214.133 55.63 320.538 76.79a.999.999 0 0 1 .745 1.321l-323.107 893.584c-.146.402-.527.66-.94.66zm-669.7-150.542c27.228 0 64.217 4.708 112.216 14.253 67.108 13.345 149.697 34.801 237.136 57.517 100.108 26.008 213.533 55.476 319.698 76.623l322.42-891.683c-106.131-21.154-219.475-50.6-319.51-76.588-87.411-22.709-169.975-44.159-237.027-57.492-59.939-11.919-102.598-16.276-130.419-13.325-9.523 1.011-17.523 2.906-23.787 5.636l-322.187 891.039c6.166-2.43 13.773-4.136 22.655-5.078 5.658-.601 11.921-.902 18.805-.902z" fill="#111"/><path d="M1520.097 344.746c-98.427 4.986-139.634 88.818-103.085 151.401 33.913-16.388 47.95-23.172 103.836-49.79-.229-27.267-.489-58.173-.751-101.611" fill="#fff"/><path d="M1417.013 497.147a.997.997 0 0 1-.864-.496c-17.038-29.174-17.691-64.191-1.748-93.669 19.043-35.208 57.549-56.798 105.646-59.234a.954.954 0 0 1 .737.271 1 1 0 0 1 .313.721c.263 43.583.522 74.41.751 101.609a1 1 0 0 1-.57.911c-55.897 26.624-69.93 33.405-103.83 49.787a.998.998 0 0 1-.435.1zm102.09-151.346c-46.893 2.658-84.378 23.809-102.942 58.133-15.464 28.589-14.978 62.504 1.253 90.909 33.189-16.039 47.461-22.932 102.43-49.114-.227-26.825-.482-57.236-.741-99.928z" fill="#111"/><path d="M1599.659 368.885c-72.064 70.905-72.064 70.905-78.811 77.473-56.943 27.137-72.47 34.582-103.836 49.79 60.111 91.211 206.822 51.22 222.646-36.691 4.3-23.884.849-58.984-39.999-90.572" fill="#3658c1"/><path d="M1516.15 548.969c-14.447 0-28.541-2.285-41.707-6.824-23.97-8.264-44.117-23.979-58.266-45.448a1 1 0 0 1 .398-1.45c31.333-15.19 46.857-22.635 103.693-49.721 6.63-6.454 7.049-6.866 78.688-77.354a1 1 0 0 1 1.337-.059c41.224 31.89 44.695 67.369 40.349 91.52-3.817 21.208-15.39 40.688-33.466 56.334-16.854 14.588-39.005 25.262-62.375 30.055-9.589 1.968-19.197 2.947-28.651 2.947zm-97.67-52.422c13.868 20.61 33.421 35.711 56.614 43.707 21.445 7.394 45.411 8.71 69.307 3.81 23.039-4.726 44.869-15.241 61.467-29.608 17.727-15.344 29.071-34.424 32.807-55.177 4.226-23.477.867-57.925-38.938-89.066-71.447 70.299-71.461 70.312-78.19 76.862a.993.993 0 0 1-.267.186c-56.322 26.84-72.131 34.419-102.8 49.286z" fill="#111"/><path d="M1556.086 348.904c-12.573-3.053-23-4.262-35.989-4.174v.016c.352 55.137.352 55.137.751 101.611 26.241-25.853 52.488-51.701 78.732-77.551-5.459-3.813-19.961-13.944-43.494-19.902" fill="#b0c3ff"/><path d="M1520.848 447.358a1.002 1.002 0 0 1-1-.992c-.399-46.476-.399-46.476-.751-101.614a1.013 1.013 0 0 1 .993-1.022c13.072-.097 23.572 1.128 36.232 4.202a.03.03 0 0 1 .009.002c23.709 6.002 38.32 16.209 43.821 20.051a1.002 1.002 0 0 1 .13 1.532l-26.94 26.535c-17.266 17.004-34.53 34.009-51.792 51.016a.993.993 0 0 1-.702.29zm.255-101.632c.34 53.216.348 54.403.725 98.263 16.702-16.455 33.406-32.907 50.11-49.36l26.083-25.69c-6.059-4.202-20.121-13.479-42.176-19.064-12.066-2.929-22.141-4.148-34.441-4.148l-.301-.001z" fill="#111"/><path d="M1496.541 661.245c-148.743-36.224-294.57-78.087-402.341-99.542l-45.062 124.624c107.771 21.455 253.598 63.318 402.341 99.542z" fill="#b0c3ff"/><path d="M1451.479 786.87c-.078 0-.157-.009-.236-.028-56.244-13.698-111.824-28.137-165.574-42.101-87.285-22.676-169.729-44.095-236.726-57.432a1.002 1.002 0 0 1-.745-1.321l45.062-124.625a1.01 1.01 0 0 1 1.136-.641c67.054 13.35 149.526 34.775 236.841 57.459 53.742 13.961 109.313 28.399 165.54 42.092a1 1 0 0 1 .705 1.311L1452.42 786.21c-.146.403-.528.66-.941.66zm-401.005-101.296c66.846 13.364 148.879 34.676 235.697 57.231 53.464 13.89 108.742 28.25 164.673 41.881l44.377-122.732c-55.873-13.619-111.083-27.962-164.487-41.836-86.918-22.581-169.04-43.916-235.885-57.265zm466.384-378.436a1.02 1.02 0 0 1-.25-.032 32673.373 32673.373 0 0 1-53.055-13.724c-130.558-33.846-265.56-68.844-332.671-73.714a1 1 0 0 1-.925-1.07c.04-.551.525-.957 1.069-.925 67.293 4.884 202.385 39.905 333.028 73.773 17.735 4.598 35.472 9.196 53.051 13.723a1.001 1.001 0 0 1-.247 1.969zm187.922 45.634a.998.998 0 0 1-.216-.023c-41.533-9.144-86.417-19.833-133.404-31.772a1 1 0 0 1 .492-1.938c46.967 11.933 91.829 22.618 133.342 31.757a1 1 0 0 1-.214 1.976zm-330.867-5.356a.965.965 0 0 1-.248-.032l-4.153-1.06c-97.481-24.873-189.557-48.366-264.216-55.977a1 1 0 0 1-.894-1.096 1.005 1.005 0 0 1 1.097-.893c74.807 7.625 166.952 31.136 264.507 56.028l4.153 1.06a1 1 0 0 1-.246 1.97zm-72.991 54.758c-.082 0-.166-.01-.249-.031-67.486-17.273-153.443-37.951-219.674-44.597a1 1 0 0 1 .199-1.991c66.364 6.659 152.416 27.359 219.971 44.649a1.001 1.001 0 0 1-.247 1.97zm12.792 76.649c-.086 0-.172-.011-.259-.034-112.368-29.924-205.947-49.623-256.741-54.045a1 1 0 0 1 .174-1.992c50.904 4.431 144.607 24.151 257.083 54.104a1 1 0 0 1-.257 1.967zm-146.395 26.651a.996.996 0 0 1-.215-.023c-60.915-13.321-101.372-20.482-131.182-23.22a1 1 0 1 1 .184-1.991c29.894 2.746 70.427 9.918 131.426 23.257a1 1 0 0 1-.213 1.977zm442.52 109.863c-.071 0-.144-.007-.217-.023-78.042-17.215-164.336-39.467-255.697-63.026-45.272-11.674-92.087-23.745-141.576-36.181a1 1 0 0 1 .488-1.939c49.495 12.437 96.312 24.509 141.587 36.184 91.344 23.554 177.622 45.801 255.63 63.009a1 1 0 0 1-.215 1.976zm-93.893 259.674c-.073 0-.147-.008-.222-.025-83.906-19.03-166.48-40.325-246.336-60.919-133.526-34.436-248.844-64.175-327.369-72.163a1 1 0 0 1-.894-1.096.99.99 0 0 1 1.097-.894c78.675 8.002 194.061 37.76 327.665 72.215 79.842 20.59 162.402 41.882 246.279 60.906a1 1 0 0 1-.22 1.976zm-284.078 3.314c-.085 0-.17-.011-.255-.033-127.486-33.498-253.759-65.025-313.972-68.86a1 1 0 1 1 .127-1.997c60.383 3.846 186.769 35.398 314.353 68.921a1 1 0 0 1-.253 1.969z" fill="#111"/></svg></g><g transform="translate(192.0 1266.0) rotate(0.0 589.1999999999999 618.5999999999999) scale(1.2236874487923561 1.2239991689627367)"><svg width="962.991" height="1010.785" viewBox="0 0 962.991 1010.785"><g><path d="m400.923 982.142-7.811 27.643L1 282.853l7.811-27.643z" fill="#3658c1"/><path d="M393.111 1010.785a.998.998 0 0 1-.879-.525L.12 283.328a1.002 1.002 0 0 1-.083-.747l7.812-27.643a1 1 0 0 1 .853-.722 1.01 1.01 0 0 1 .989.52l392.111 726.932a.999.999 0 0 1 .083.746l-7.812 27.643a1 1 0 0 1-.962.728zM2.073 282.735l390.747 724.403 7.03-24.878L9.103 257.857z" fill="#111"/><path d="m961.991 727.932-7.811 27.643-561.068 254.21 7.811-27.643z" fill="#b0c3ff"/><path d="M393.111 1010.785a1 1 0 0 1-.962-1.271l7.812-27.643a1 1 0 0 1 .55-.64l561.068-254.21a.998.998 0 0 1 1.375 1.182l-7.812 27.643a1 1 0 0 1-.55.64l-561.068 254.21a1.013 1.013 0 0 1-.413.089zm8.648-27.924-7.1 25.125 558.685-253.13 7.1-25.125z" fill="#111"/><path d="m569.88 1 392.111 726.932-561.068 254.21L8.811 255.21z" fill="#fff"/><g fill="#111"><path d="M400.923 983.142a.997.997 0 0 1-.88-.525L7.931 255.685a1 1 0 0 1 .468-1.385L569.467.089a1 1 0 0 1 1.292.436l392.112 726.932a1 1 0 0 1-.468 1.386l-561.068 254.21a.984.984 0 0 1-.412.089zM10.201 255.679 401.36 980.846l559.242-253.383L569.442 2.296z"/><path d="M66.806 292c-7.667 3.474-10.661 12.245-6.694 19.6 3.968 7.357 13.39 10.503 21.058 7.029 7.665-3.473 10.694-12.26 6.725-19.617-3.967-7.355-13.424-10.485-21.089-7.012"/><path d="M74.594 321.035c-6.218 0-12.316-3.313-15.362-8.96-2.042-3.786-2.433-8.049-1.1-12.001 1.346-3.989 4.279-7.18 8.261-8.984 8.137-3.687 18.178-.346 22.382 7.449 2.038 3.777 2.425 8.035 1.091 11.989-1.351 4.004-4.293 7.205-8.284 9.014a16.931 16.931 0 0 1-6.988 1.493zm-7.376-28.124c-3.471 1.573-6.024 4.344-7.191 7.802-1.154 3.421-.812 7.12.965 10.413 3.717 6.89 12.583 9.85 19.765 6.593 3.48-1.576 6.043-4.357 7.214-7.831 1.155-3.422.815-7.115-.957-10.4-3.714-6.888-12.595-9.838-19.796-6.577zm45.729 84.629c-7.667 3.474-10.645 12.275-6.677 19.632 3.968 7.355 13.39 10.501 21.057 7.027 7.665-3.473 10.694-12.26 6.726-19.615-3.969-7.357-13.441-10.517-21.106-7.044"/><path d="M120.75 406.604c-6.217 0-12.315-3.312-15.36-8.958-2.048-3.797-2.439-8.072-1.101-12.039 1.346-3.99 4.274-7.179 8.246-8.979 8.136-3.687 18.185-.332 22.398 7.48 2.038 3.776 2.425 8.033 1.091 11.987-1.351 4.004-4.293 7.205-8.285 9.014a16.89 16.89 0 0 1-6.989 1.495zm-7.391-28.153c-3.461 1.568-6.009 4.337-7.176 7.795-1.159 3.436-.815 7.147.966 10.451 3.716 6.889 12.582 9.848 19.764 6.591 3.481-1.576 6.043-4.357 7.215-7.831 1.154-3.422.815-7.115-.956-10.398-3.724-6.906-12.614-9.871-19.813-6.608zm45.744 84.658c-7.667 3.474-10.645 12.275-6.677 19.632 3.968 7.355 13.39 10.501 21.057 7.027 7.665-3.473 10.694-12.26 6.726-19.615-3.968-7.357-13.44-10.517-21.106-7.044"/><path d="M166.907 492.174c-6.217 0-12.315-3.312-15.36-8.959-2.048-3.797-2.439-8.073-1.101-12.04 1.346-3.989 4.274-7.177 8.245-8.977 8.136-3.688 18.186-.332 22.399 7.479 2.038 3.776 2.425 8.034 1.091 11.987-1.351 4.004-4.293 7.205-8.284 9.014a16.903 16.903 0 0 1-6.99 1.496zm-1.188-29.48c-2.101 0-4.216.427-6.203 1.327-3.46 1.567-6.008 4.336-7.175 7.794-1.159 3.436-.815 7.147.966 10.451 3.716 6.888 12.581 9.847 19.764 6.591 3.48-1.576 6.042-4.357 7.214-7.831 1.155-3.422.815-7.115-.956-10.398-2.697-5.001-8.1-7.934-13.61-7.934zm-6.616.416h.01zm46.157 85.569c-7.667 3.474-10.661 12.245-6.694 19.6 3.968 7.357 13.406 10.532 21.074 7.059 7.665-3.473 10.678-12.29 6.709-19.647-3.967-7.355-13.424-10.485-21.089-7.012"/><path d="M213.076 577.741c-6.224 0-12.335-3.324-15.39-8.986-2.043-3.787-2.434-8.05-1.1-12.003 1.346-3.989 4.28-7.18 8.261-8.983 8.138-3.686 18.179-.345 22.382 7.449 2.042 3.786 2.431 8.057 1.093 12.023-1.351 4.005-4.288 7.204-8.27 9.009a16.887 16.887 0 0 1-6.976 1.491zm-1.189-29.481a15.04 15.04 0 0 0-6.215 1.33c-3.47 1.572-6.024 4.343-7.191 7.801-1.154 3.422-.812 7.12.965 10.414 3.724 6.904 12.596 9.879 19.781 6.622 3.471-1.572 6.028-4.352 7.199-7.826 1.159-3.436.819-7.142-.958-10.435-2.687-4.983-8.078-7.906-13.581-7.906zm-6.627.419h.01zm46.157 85.569c-7.667 3.474-10.661 12.245-6.694 19.6 3.968 7.357 13.406 10.532 21.074 7.059 7.665-3.473 10.678-12.29 6.709-19.647-3.967-7.354-13.424-10.485-21.089-7.012"/><path d="M259.233 663.31c-6.225 0-12.336-3.324-15.39-8.986-2.043-3.787-2.434-8.05-1.1-12.003 1.346-3.989 4.28-7.18 8.261-8.983 8.138-3.686 18.179-.345 22.382 7.449 2.042 3.786 2.431 8.057 1.093 12.023-1.351 4.005-4.288 7.204-8.27 9.009a16.871 16.871 0 0 1-6.976 1.491zm-1.189-29.48a15.04 15.04 0 0 0-6.215 1.33c-3.47 1.572-6.024 4.343-7.191 7.801-1.154 3.422-.812 7.12.965 10.414 3.725 6.904 12.598 9.879 19.781 6.622 3.471-1.572 6.028-4.352 7.199-7.826 1.159-3.436.819-7.142-.958-10.435-2.687-4.983-8.079-7.906-13.581-7.906zm-6.627.419h.01zm46.156 85.569c-7.667 3.474-10.661 12.245-6.693 19.6 3.968 7.357 13.39 10.503 21.058 7.029 7.665-3.473 10.694-12.26 6.725-19.617-3.968-7.355-13.424-10.485-21.09-7.012"/><path d="M305.362 748.853c-6.218 0-12.317-3.313-15.362-8.96-2.043-3.787-2.434-8.05-1.1-12.003 1.346-3.989 4.28-7.18 8.261-8.983 8.14-3.687 18.178-.344 22.382 7.449 2.037 3.776 2.425 8.034 1.092 11.987-1.351 4.005-4.293 7.206-8.285 9.016a16.904 16.904 0 0 1-6.988 1.494zm-7.376-28.124c-3.47 1.572-6.024 4.343-7.191 7.801-1.154 3.422-.812 7.12.965 10.414 3.716 6.89 12.582 9.85 19.765 6.593 3.481-1.577 6.043-4.358 7.215-7.832 1.154-3.423.814-7.115-.957-10.399-3.716-6.889-12.596-9.841-19.797-6.577zm45.728 84.629c-7.667 3.474-10.645 12.275-6.677 19.632 3.968 7.355 13.39 10.501 21.057 7.027 7.665-3.473 10.694-12.26 6.726-19.615-3.968-7.357-13.44-10.517-21.106-7.044"/><path d="M351.518 834.422c-6.217 0-12.315-3.312-15.36-8.958-2.048-3.798-2.439-8.074-1.101-12.041 1.346-3.989 4.274-7.178 8.245-8.977 8.136-3.688 18.185-.332 22.399 7.48 2.037 3.776 2.424 8.033 1.091 11.985-1.351 4.005-4.293 7.206-8.285 9.016a16.894 16.894 0 0 1-6.989 1.495zm-1.188-29.48a15.01 15.01 0 0 0-6.203 1.327c-3.46 1.567-6.009 4.335-7.175 7.793-1.159 3.437-.816 7.148.966 10.453 3.715 6.887 12.581 9.847 19.764 6.591 3.481-1.577 6.043-4.359 7.215-7.832 1.154-3.422.814-7.114-.956-10.397-2.698-5-8.102-7.935-13.611-7.935zm-6.616.416h.01zm46.157 85.569c-7.667 3.474-10.661 12.245-6.693 19.6 3.984 7.387 13.406 10.533 21.074 7.059 7.665-3.473 10.694-12.26 6.709-19.647-3.968-7.355-13.425-10.485-21.09-7.012"/><path d="M397.687 919.989c-6.225 0-12.336-3.324-15.39-8.986-2.042-3.787-2.433-8.05-1.099-12.003 1.346-3.989 4.279-7.18 8.261-8.983 8.139-3.686 18.178-.344 22.382 7.449 2.046 3.794 2.438 8.064 1.102 12.024-1.349 4.001-4.29 7.2-8.279 9.008a16.895 16.895 0 0 1-6.977 1.491zm-1.189-29.48a15.03 15.03 0 0 0-6.214 1.329c-3.471 1.572-6.024 4.343-7.191 7.801-1.155 3.422-.812 7.12.965 10.414 3.725 6.905 12.598 9.878 19.781 6.622 3.479-1.576 6.039-4.355 7.209-7.825 1.157-3.429.813-7.135-.967-10.436-2.689-4.983-8.08-7.905-13.583-7.905zm-6.627.418h.01zM262.582 531.294a1 1 0 0 1-.413-1.911l338.68-153.45a1 1 0 1 1 .825 1.822l-338.68 153.45c-.134.06-.274.089-.412.089zm35.22 65.294a1 1 0 0 1-.413-1.911l98.11-44.452a1 1 0 1 1 .825 1.822l-98.11 44.452a.99.99 0 0 1-.412.089zm149.429-67.704a1 1 0 0 1-.413-1.911l257.171-116.52a1 1 0 1 1 .825 1.822l-257.171 116.52a.99.99 0 0 1-.412.089zm-114.192 133.03a1 1 0 0 1-.413-1.911l223.273-101.161a1 1 0 1 1 .825 1.822L333.451 661.825c-.134.06-.274.089-.412.089zm86.315-418.098a1.001 1.001 0 0 1-.829-1.557l24.707-36.839a1 1 0 0 1 1.661 1.115l-24.707 36.839c-.194.287-.51.442-.832.442z"/><path d="M444.396 223.275c-.542 0-.988-.434-1-.979l-.307-14.923-13.688 4.757a1 1 0 0 1-.656-1.888l14.987-5.209a1 1 0 0 1 1.328.924l.335 16.299a1.001 1.001 0 0 1-.979 1.021c-.006-.002-.014-.002-.02-.002zm.37 66.482a1.002 1.002 0 0 1-.058-1.999l43.441-2.52a1.002 1.002 0 0 1 1.057.94 1 1 0 0 1-.94 1.057l-43.441 2.52-.059.002z"/><path d="M475.406 297.94a1 1 0 0 1-.643-1.767l11.785-9.853-13.758-9.325a1 1 0 0 1 1.122-1.656l14.856 10.069a1 1 0 0 1 .081 1.594l-12.802 10.704a.99.99 0 0 1-.641.234zm-60.373 62.936a.999.999 0 0 1-.882-.527l-20.703-38.616a1 1 0 0 1 1.763-.946l20.703 38.616a1 1 0 0 1-.881 1.473z"/><path d="M415.032 360.876a.987.987 0 0 1-.409-.088l-17.718-7.939a1 1 0 0 1 .817-1.824l16.688 7.478 5.252-16.987a1 1 0 0 1 1.911.59l-5.586 18.066a1.003 1.003 0 0 1-.955.704zm-105.815-65.407c-.02 0-.041 0-.061-.002l-53.389-3.207a1 1 0 0 1-.938-1.058.993.993 0 0 1 1.058-.938l53.389 3.207a1 1 0 0 1-.059 1.998z"/><path d="M272.698 307.151a.994.994 0 0 1-.661-.25l-16.872-14.888a1 1 0 0 1 .238-1.657l20.333-9.498a1.001 1.001 0 0 1 .847 1.813l-18.95 8.852 15.727 13.878a1 1 0 0 1-.662 1.75zm23.342 66.802a.999.999 0 0 1-.69-1.724l36.324-34.602a1 1 0 0 1 1.38 1.447l-36.324 34.602a.996.996 0 0 1-.69.277z"/><path d="M296.04 373.953a.998.998 0 0 1-.979-1.205l4.658-22.193a.996.996 0 0 1 1.184-.773.999.999 0 0 1 .773 1.184l-4.346 20.709 21.093-4.245a1 1 0 0 1 .395 1.961l-22.581 4.544a1.183 1.183 0 0 1-.197.018z"/></g><path d="m530.1 140.381-74.002 33.529c-5.703 2.584-7.934 9.117-4.982 14.589s9.97 7.814 15.673 5.231l74.002-33.529c5.703-2.584 7.903-9.103 4.951-14.575-2.951-5.472-9.939-7.828-15.642-5.245" fill="#b0c3ff"/><path d="M461.898 195.775c-4.72 0-9.35-2.515-11.662-6.801-1.554-2.88-1.85-6.125-.834-9.136 1.025-3.039 3.257-5.467 6.284-6.838l74.002-33.529c6.144-2.788 13.742-.237 16.935 5.681 1.559 2.89 1.857 6.14.842 9.151-1.021 3.024-3.244 5.443-6.261 6.81l-74.002 33.529a12.844 12.844 0 0 1-5.304 1.133zm73.091-55.44a10.82 10.82 0 0 0-4.476.957l-74.002 33.529c-2.516 1.14-4.368 3.149-5.213 5.656-.837 2.48-.588 5.161.699 7.547 2.704 5.012 9.154 7.163 14.381 4.795l74.002-33.529c2.506-1.136 4.35-3.134 5.191-5.627.836-2.48.585-5.166-.707-7.562-1.961-3.633-5.882-5.766-9.875-5.766zm-4.889.046h.01z" fill="#111"/><path d="m230.182 267.984-69.948 31.692c-6.304 2.856-9.058 9.59-6.107 15.062 2.952 5.472 10.478 7.585 16.782 4.728l69.948-31.692c6.337-2.871 9.042-9.62 6.091-15.091-2.952-5.472-10.429-7.57-16.766-4.699" fill="#b0c3ff"/><path d="M165.038 321.734c-4.91 0-9.555-2.378-11.79-6.521-1.446-2.681-1.7-5.769-.713-8.693 1.126-3.34 3.782-6.166 7.287-7.753l69.948-31.692c6.774-3.07 14.876-.767 18.059 5.135 1.455 2.697 1.71 5.8.719 8.736-1.125 3.333-3.777 6.155-7.277 7.74l-69.948 31.693a15.27 15.27 0 0 1-6.285 1.355zm65.144-53.75.413.911-69.948 31.692c-3.001 1.36-5.267 3.755-6.217 6.572-.808 2.394-.602 4.917.578 7.104 2.704 5.011 9.652 6.938 15.489 4.292l69.948-31.692c2.997-1.358 5.26-3.749 6.208-6.558.812-2.406.604-4.944-.584-7.148-2.694-4.994-9.634-6.906-15.473-4.263z" fill="#111"/><path d="m276.373 382.704-66.589 30.171c-5.132 2.325-6.904 8.612-3.952 14.084s9.494 8.03 14.626 5.705l66.589-30.171c5.132-2.325 6.889-8.644 3.937-14.116s-9.479-7.998-14.611-5.673" fill="#b0c3ff"/><path d="M216.436 434.515c-4.502 0-9.098-2.656-11.484-7.082-1.634-3.028-1.99-6.487-.977-9.49.908-2.69 2.824-4.813 5.396-5.979l66.589-30.17c5.586-2.529 12.722.209 15.904 6.109 1.639 3.038 1.995 6.512.977 9.528-.907 2.69-2.819 4.812-5.382 5.973l-66.589 30.171c-1.408.637-2.916.94-4.434.94zm60.35-50.899-66.589 30.17a8.024 8.024 0 0 0-4.327 4.797c-.836 2.479-.53 5.359.841 7.901 2.704 5.012 8.685 7.379 13.334 5.269l66.589-30.171c2.052-.93 3.584-2.631 4.312-4.79.841-2.493.535-5.388-.842-7.939-2.693-4.996-8.667-7.348-13.318-5.237zm-.412-.911h.01z" fill="#111"/><path d="m471.267 346.298-100.613 45.586c-5.703 2.584-7.901 9.102-4.95 14.574 2.935 5.441 9.921 7.798 15.624 5.214l100.613-45.586c5.703-2.584 7.903-9.103 4.968-14.544-2.952-5.471-9.939-7.827-15.642-5.244" fill="#b0c3ff"/><path d="M376.451 413.714c-4.705 0-9.322-2.508-11.626-6.781-1.559-2.89-1.858-6.14-.843-9.15 1.02-3.024 3.243-5.442 6.259-6.81l100.613-45.586c6.146-2.784 13.743-.236 16.936 5.682 1.549 2.872 1.844 6.107.831 9.111-1.021 3.028-3.247 5.45-6.267 6.818l-100.613 45.585a12.794 12.794 0 0 1-5.29 1.131zm95.228-66.504-100.613 45.586c-2.506 1.135-4.349 3.134-5.189 5.626-.836 2.479-.585 5.166.708 7.562 2.695 4.995 9.125 7.138 14.331 4.777l100.613-45.585c2.509-1.137 4.354-3.138 5.197-5.636.834-2.472.587-5.144-.696-7.522-2.703-5.012-9.141-7.168-14.351-4.808zm-.412-.912h.01z" fill="#111"/><path d="M611.703 227.934 510.076 273.98c-5.703 2.584-7.95 9.088-4.998 14.56 2.951 5.47 9.97 7.813 15.672 5.229l101.627-46.045c5.703-2.584 7.934-9.117 4.983-14.588-2.952-5.473-9.955-7.786-15.657-5.202" fill="#b0c3ff"/><path d="M515.857 295.814c-4.719 0-9.348-2.514-11.66-6.8-1.549-2.871-1.845-6.103-.833-9.1 1.025-3.038 3.262-5.469 6.299-6.845l101.627-46.045c6.163-2.794 13.767-.264 16.95 5.637 1.553 2.879 1.849 6.123.833 9.134-1.025 3.039-3.257 5.468-6.284 6.839l-101.626 46.045c-1.7.77-3.51 1.135-5.306 1.135zm96.258-66.969L510.488 274.89c-2.526 1.145-4.383 3.156-5.229 5.663-.832 2.466-.584 5.134.699 7.511 2.703 5.01 9.152 7.16 14.379 4.793l101.626-46.045c2.517-1.14 4.368-3.149 5.214-5.657.836-2.479.588-5.159-.699-7.545-2.692-4.995-9.134-7.132-14.363-4.765z" fill="#111"/><path d="M360.441 257.434c-22.048 9.989-39.989 22.771-51.16 35.35a79.77 79.77 0 0 0-2.835 3.372c-9.007 11.346-12.255 22.305-7.756 30.645 4.308 7.987 15.037 12.252 29.408 12.875 1.724.076 3.496.097 5.321.067 17.321-.282 38.947-5.279 60.772-14.874.706-.31 1.409-.625 2.115-.945.414-.187.823-.375 1.235-.563 20.272-9.347 36.985-21.041 48.015-32.699a87.016 87.016 0 0 0 3.395-3.797c10.029-11.927 13.832-23.545 9.122-32.277-4.918-9.118-18.173-13.395-35.661-12.95-1.534.039-3.101.114-4.695.225-16.858 1.179-37.035 6.4-57.276 15.571" fill="#fff"/><path d="M331.83 340.756c-1.29 0-2.554-.027-3.775-.081-15.418-.67-25.877-5.304-30.245-13.4-4.524-8.389-1.735-19.661 7.854-31.741a80.48 80.48 0 0 1 2.87-3.414c11.754-13.235 30.042-25.877 51.495-35.597 19.57-8.867 40.033-14.428 57.619-15.658 1.615-.112 3.21-.189 4.74-.227 18.646-.47 31.623 4.311 36.565 13.475 4.749 8.804 1.469 20.664-9.236 33.395a88.87 88.87 0 0 1-3.434 3.841c-11.516 12.171-28.677 23.861-48.323 32.92l-1.24.566c-.71.321-1.417.638-2.127.949-21.267 9.351-42.987 14.663-61.157 14.958-.539.009-1.075.014-1.606.014zm93.08-98.15c-.812 0-1.636.011-2.473.032-1.5.038-3.065.113-4.651.223-17.354 1.214-37.574 6.713-56.933 15.484-21.204 9.607-39.253 22.074-50.825 35.104a77.872 77.872 0 0 0-2.799 3.329c-9.061 11.415-11.781 21.908-7.66 29.549 3.958 7.337 14.104 11.724 28.572 12.352 1.685.074 3.455.096 5.26.065 17.911-.291 39.356-5.543 60.386-14.789.703-.309 1.402-.621 2.105-.94l1.231-.562c19.418-8.953 36.361-20.487 47.705-32.477a86.021 86.021 0 0 0 3.356-3.753c10.141-12.061 13.34-23.126 9.007-31.159-4.351-8.072-15.769-12.458-32.281-12.458zm-64.469 14.828h.01z" fill="#111"/></g><path d="M28.018 332.986c-2.4.684-4.574 1.158-6.479 1.415-3.468.469-6.047.223-7.48-.771a2.842 2.842 0 0 1-.91-.987l7.277 13.491c.204.378.506.709.91.987 1.434.993 4.012 1.24 7.48.771 1.926-.26 4.127-.742 6.559-1.438z" fill="#3658c1"/><path d="M25.728 349.122c-2.167 0-3.829-.394-4.961-1.178a3.837 3.837 0 0 1-1.221-1.334l-7.277-13.492a1 1 0 1 1 1.761-.949c.131.243.326.452.596.639 1.186.82 3.593 1.036 6.779.603 1.863-.251 3.996-.717 6.339-1.386a1 1 0 0 1 1.152.482l7.357 13.469a1 1 0 0 1-.602 1.44c-2.469.707-4.723 1.201-6.7 1.468-1.175.159-2.25.238-3.223.238zm-9.968-13.746 5.547 10.284c.131.243.327.452.597.639 1.186.82 3.592 1.036 6.779.603 1.559-.21 3.306-.57 5.21-1.075l-6.371-11.663c-2.136.58-4.1.993-5.849 1.229-2.39.323-4.367.317-5.913-.017z" fill="#111"/><path d="M81.862 293.801c-2.831-1.988-9.409-1.554-18.461 1.194-4.586 1.388-9.524 3.282-14.573 5.57a161.138 161.138 0 0 0-14.928 7.753c-18.859 11.077-30.484 23.054-27.757 28.109l7.277 13.491c-2.727-5.055 8.899-17.032 27.757-28.108a160.651 160.651 0 0 1 14.928-7.753c5.049-2.288 9.988-4.181 14.573-5.57 9.052-2.747 15.629-3.182 18.46-1.194z" fill="#b0c3ff"/><g fill="#111"><path d="M13.422 350.918a1 1 0 0 1-.881-.525l-7.278-13.491c-2.549-4.727 5.166-15.957 28.131-29.445a161.742 161.742 0 0 1 15.021-7.802c5.151-2.334 10.096-4.224 14.696-5.616 6.634-2.014 15.371-3.833 19.325-1.055a.999.999 0 0 1 .305.344l7.277 13.491a1 1 0 0 1-1.454 1.293c-2.533-1.777-8.946-1.293-17.595 1.333-4.52 1.368-9.381 3.227-14.452 5.523a159.501 159.501 0 0 0-14.833 7.705c-19.619 11.522-29.489 22.868-27.383 26.771a.998.998 0 0 1-.879 1.474zm63.116-57.354c-3.229 0-7.63.805-12.845 2.388-4.518 1.367-9.379 3.226-14.451 5.523a159.553 159.553 0 0 0-14.834 7.705C14.79 320.702 4.919 332.048 7.024 335.951l5.468 10.137c1.917-5.773 10.56-14.793 28.18-25.142a161.96 161.96 0 0 1 15.021-7.803c5.15-2.332 10.094-4.222 14.696-5.615 5.36-1.628 12.094-3.128 16.567-2.178l-5.855-10.854c-1.014-.623-2.563-.932-4.563-.932z"/><path d="M56.106 314.055c5.049-2.288 9.988-4.181 14.573-5.57 9.052-2.747 15.629-3.182 18.461-1.194l-6.812 3.996c-2.332-1.608-7.665-1.282-15.089.977-3.746 1.134-7.786 2.683-11.915 4.554a130.995 130.995 0 0 0-12.212 6.345c-16.835 9.892-26.601 20.631-21.776 23.958 2.23 1.545 7.229 1.283 14.039-.667l1.252 2.447c-11.368 4.178-19.136 4.246-22.102 2.216-5.883-4.072 6.081-17.226 26.653-29.309a161.138 161.138 0 0 1 14.928-7.753z"/><path d="M20.373 353.415c-2.767 0-4.971-.484-6.413-1.472-1.325-.917-1.991-2.264-1.93-3.896.234-6.285 11.744-17.176 28.642-27.1a161.96 161.96 0 0 1 15.021-7.803c5.156-2.335 10.101-4.225 14.697-5.615 6.634-2.015 15.372-3.832 19.325-1.056a1 1 0 0 1-.069 1.68l-6.812 3.996c-.335.195-.754.18-1.073-.039-2.06-1.419-7.246-1.015-14.23 1.11-3.688 1.117-7.656 2.634-11.794 4.508a129.735 129.735 0 0 0-12.117 6.297c-14.601 8.578-22.377 16.88-22.514 20.647-.026.715.228 1.231.799 1.625 1.93 1.337 6.739 1.044 13.195-.805a.999.999 0 0 1 1.166.506l1.251 2.446a.997.997 0 0 1-.545 1.393c-6.418 2.362-12.215 3.578-16.599 3.578zm36.145-38.449a159.501 159.501 0 0 0-14.833 7.705c-13.569 7.97-27.426 19.27-27.656 25.449-.036.956.303 1.647 1.065 2.175 2.496 1.707 9.649 1.729 20.125-1.951l-.362-.706c-4.937 1.345-11.101 2.376-14.09.306-1.137-.784-1.711-1.94-1.661-3.343.188-5.19 9.632-14.151 23.5-22.3a132.065 132.065 0 0 1 12.305-6.395c4.217-1.91 8.268-3.458 12.038-4.6 5.143-1.564 11.851-2.98 15.38-1.18l4.641-2.723c-3.154-.851-8.802-.147-16 2.038-4.513 1.367-9.375 3.226-14.452 5.525z"/></g><path d="M74.007 418.245c-2.4.684-4.574 1.158-6.479 1.415-3.468.469-6.047.223-7.48-.771a2.842 2.842 0 0 1-.91-.987l7.277 13.491c.204.378.506.709.91.987 1.434.993 4.012 1.24 7.48.771 1.926-.26 4.127-.742 6.559-1.438z" fill="#3658c1"/><path d="M71.718 434.379c-2.168 0-3.83-.393-4.962-1.177a3.845 3.845 0 0 1-1.221-1.335l-7.274-13.486-.003-.005a1 1 0 0 1 1.76-.949c.13.242.326.451.598.64 1.183.818 3.588 1.032 6.778.602 1.869-.253 4.001-.719 6.338-1.386.45-.127.927.072 1.152.482l7.356 13.469a1 1 0 0 1-.602 1.44c-2.462.705-4.716 1.199-6.7 1.468a24.298 24.298 0 0 1-3.22.237zm-9.97-13.745 5.547 10.284c.131.242.327.451.598.639 1.183.82 3.59 1.033 6.778.603 1.562-.211 3.311-.572 5.209-1.075l-6.371-11.663c-2.13.579-4.094.992-5.848 1.229-2.389.322-4.367.315-5.913-.017z" fill="#111"/><path d="M127.851 379.059c-2.831-1.988-9.409-1.554-18.461 1.194-4.586 1.388-9.524 3.282-14.573 5.57a161.138 161.138 0 0 0-14.928 7.753c-18.859 11.077-30.484 23.054-27.757 28.109l7.277 13.491c-2.727-5.055 8.899-17.032 27.757-28.108a160.651 160.651 0 0 1 14.928-7.753c5.049-2.288 9.988-4.181 14.573-5.57 9.052-2.747 15.629-3.182 18.46-1.194z" fill="#b0c3ff"/><path d="M59.411 436.175a1 1 0 0 1-.881-.525l-7.278-13.491c-2.549-4.726 5.167-15.956 28.131-29.445a161.635 161.635 0 0 1 15.021-7.802c5.154-2.335 10.099-4.224 14.696-5.615 6.634-2.015 15.372-3.832 19.325-1.056.127.089.231.207.306.344l7.277 13.491a1 1 0 0 1-1.455 1.293c-2.534-1.779-8.947-1.293-17.595 1.333-4.515 1.366-9.376 3.225-14.451 5.523a159.308 159.308 0 0 0-14.834 7.704c-19.618 11.523-29.489 22.868-27.384 26.771a.999.999 0 0 1-.878 1.475zm63.116-57.353c-3.229 0-7.63.806-12.846 2.389-4.515 1.366-9.376 3.225-14.451 5.523a159.308 159.308 0 0 0-14.834 7.704c-19.618 11.523-29.489 22.868-27.384 26.771l5.468 10.137c1.917-5.772 10.56-14.792 28.18-25.142a161.635 161.635 0 0 1 15.021-7.802c5.154-2.335 10.099-4.224 14.696-5.615 5.36-1.628 12.094-3.129 16.567-2.178l-5.854-10.854c-1.013-.624-2.563-.933-4.563-.933z" fill="#111"/><path d="M102.095 399.314c5.049-2.288 9.988-4.181 14.573-5.57 9.052-2.747 15.629-3.182 18.461-1.194l-6.812 3.996c-2.332-1.608-7.665-1.282-15.089.977-3.746 1.134-7.786 2.683-11.915 4.554a130.995 130.995 0 0 0-12.212 6.345c-16.835 9.892-26.601 20.631-21.776 23.958 2.23 1.545 7.229 1.283 14.039-.667l1.252 2.447c-11.368 4.178-19.136 4.246-22.102 2.216-5.883-4.072 6.081-17.226 26.653-29.309a161.138 161.138 0 0 1 14.928-7.753z" fill="#111"/><path d="M66.362 438.672c-2.767 0-4.971-.483-6.413-1.471-1.325-.917-1.991-2.264-1.931-3.897.234-6.284 11.744-17.175 28.642-27.1a161.635 161.635 0 0 1 15.021-7.802c5.152-2.334 10.097-4.224 14.696-5.616 6.635-2.013 15.374-3.831 19.325-1.055a1 1 0 0 1-.069 1.68l-6.812 3.996a1.003 1.003 0 0 1-1.074-.039c-2.057-1.42-7.244-1.015-14.23 1.11-3.688 1.116-7.655 2.633-11.793 4.508a129.76 129.76 0 0 0-12.118 6.297c-14.6 8.578-22.377 16.88-22.514 20.647-.026.715.228 1.231.799 1.625 1.931 1.338 6.74 1.043 13.195-.805a1 1 0 0 1 1.166.505l1.252 2.446a1 1 0 0 1-.545 1.394c-6.415 2.362-12.212 3.577-16.597 3.577zm63.442-46.359c-3.229 0-7.63.805-12.845 2.388-4.517 1.367-9.378 3.227-14.451 5.524a159.308 159.308 0 0 0-14.834 7.704c-13.569 7.97-27.426 19.271-27.656 25.45-.036.956.303 1.647 1.065 2.175 2.495 1.707 9.65 1.729 20.125-1.951l-.362-.706c-4.935 1.345-11.1 2.376-14.09.306-1.137-.784-1.711-1.94-1.661-3.343.188-5.19 9.632-14.152 23.5-22.3a132.206 132.206 0 0 1 12.306-6.395c4.218-1.91 8.268-3.458 12.038-4.6 5.144-1.565 11.85-2.982 15.38-1.18l4.641-2.723c-.87-.233-1.928-.349-3.156-.349zm-27.709 7.001h.01z" fill="#111"/><path d="M120.137 503.765c-2.4.684-4.574 1.158-6.479 1.415-3.468.469-6.047.223-7.48-.771a2.842 2.842 0 0 1-.91-.987l7.277 13.491c.204.378.506.708.91.987 1.434.993 4.012 1.24 7.48.771 1.926-.26 4.127-.742 6.559-1.438z" fill="#3658c1"/><path d="M117.848 519.9c-2.168 0-3.831-.393-4.962-1.177a3.846 3.846 0 0 1-1.22-1.333l-7.278-13.493a1 1 0 1 1 1.761-.949c.13.242.326.451.598.639 1.183.82 3.59 1.033 6.778.603 1.863-.252 3.996-.718 6.339-1.386a1 1 0 0 1 1.151.482l7.357 13.468a1 1 0 0 1-.602 1.44c-2.46.706-4.714 1.199-6.7 1.469a24.327 24.327 0 0 1-3.222.237zm-9.97-13.745 5.547 10.284c.131.242.327.452.598.639 1.183.819 3.59 1.033 6.778.603 1.564-.212 3.312-.572 5.21-1.075l-6.372-11.663c-2.135.579-4.099.992-5.848 1.229-2.39.322-4.367.315-5.913-.017z" fill="#111"/><path d="M173.982 464.58c-2.831-1.988-9.409-1.554-18.461 1.194-4.586 1.388-9.524 3.282-14.573 5.57a161.138 161.138 0 0 0-14.928 7.753c-18.859 11.077-30.484 23.054-27.757 28.109l7.277 13.491c-2.727-5.055 8.899-17.032 27.757-28.108a160.651 160.651 0 0 1 14.928-7.753c5.049-2.288 9.988-4.181 14.573-5.57 9.052-2.747 15.629-3.182 18.46-1.194z" fill="#b0c3ff"/><path d="M105.541 521.696a1 1 0 0 1-.881-.525l-7.278-13.491c-2.549-4.726 5.167-15.956 28.131-29.445a161.635 161.635 0 0 1 15.021-7.802c5.152-2.334 10.097-4.224 14.696-5.616 6.635-2.014 15.373-3.829 19.325-1.055a.999.999 0 0 1 .305.344l7.277 13.491a1 1 0 0 1-1.454 1.293c-2.533-1.777-8.946-1.294-17.595 1.332-4.522 1.369-9.384 3.228-14.451 5.524a159.29 159.29 0 0 0-14.834 7.704c-19.619 11.522-29.489 22.868-27.384 26.772a.999.999 0 0 1-.878 1.474zm63.116-57.354c-3.229 0-7.63.805-12.845 2.388-4.517 1.367-9.378 3.227-14.451 5.524a159.308 159.308 0 0 0-14.834 7.704c-19.618 11.523-29.489 22.868-27.384 26.771l5.468 10.137c1.917-5.773 10.56-14.793 28.18-25.142a161.616 161.616 0 0 1 15.021-7.802c5.146-2.332 10.091-4.222 14.696-5.616 5.36-1.626 12.095-3.125 16.567-2.177l-5.855-10.854c-1.013-.624-2.563-.933-4.563-.933z" fill="#111"/><path d="M148.225 484.834c5.049-2.288 9.988-4.181 14.573-5.57 9.052-2.747 15.629-3.182 18.461-1.194l-6.812 3.996c-2.332-1.608-7.665-1.282-15.089.977-3.746 1.134-7.786 2.683-11.915 4.554a130.995 130.995 0 0 0-12.212 6.345c-16.835 9.892-26.601 20.631-21.776 23.958 2.23 1.545 7.229 1.283 14.039-.667l1.252 2.447c-11.368 4.178-19.136 4.246-22.102 2.216-5.883-4.072 6.081-17.226 26.653-29.309a161.138 161.138 0 0 1 14.928-7.753z" fill="#111"/><path d="M112.493 524.193c-2.768 0-4.971-.483-6.413-1.471-1.325-.917-1.991-2.264-1.931-3.897.234-6.284 11.744-17.175 28.642-27.1a161.616 161.616 0 0 1 15.021-7.802c5.146-2.332 10.091-4.222 14.696-5.616 6.634-2.014 15.373-3.831 19.325-1.055a1 1 0 0 1-.069 1.68l-6.812 3.996a1.005 1.005 0 0 1-1.074-.039c-2.059-1.42-7.245-1.016-14.23 1.11-3.688 1.116-7.656 2.633-11.794 4.508a129.426 129.426 0 0 0-12.117 6.297c-14.601 8.578-22.377 16.88-22.514 20.647-.026.715.228 1.231.799 1.625 1.93 1.338 6.74 1.044 13.195-.806a1 1 0 0 1 1.166.506l1.252 2.447a.997.997 0 0 1-.545 1.393c-6.416 2.361-12.213 3.577-16.597 3.577zm63.441-46.359c-3.229 0-7.63.805-12.845 2.388-4.522 1.369-9.384 3.228-14.451 5.524a159.29 159.29 0 0 0-14.834 7.704c-13.569 7.97-27.426 19.271-27.656 25.449-.036.957.303 1.648 1.065 2.176 2.495 1.707 9.65 1.729 20.125-1.951l-.362-.707c-4.936 1.347-11.1 2.377-14.09.307-1.137-.784-1.711-1.94-1.661-3.343.188-5.19 9.632-14.151 23.5-22.3a131.64 131.64 0 0 1 12.305-6.395c4.217-1.911 8.268-3.459 12.039-4.6 5.144-1.564 11.85-2.981 15.379-1.18l4.641-2.723c-.869-.233-1.927-.349-3.155-.349zm-27.709 7.001h.01z" fill="#111"/><path d="M166.538 589.787c-2.4.684-4.574 1.158-6.479 1.415-3.468.469-6.047.222-7.48-.771a2.842 2.842 0 0 1-.91-.987l7.277 13.491c.204.378.506.708.91.987 1.434.993 4.012 1.24 7.48.771 1.926-.26 4.127-.742 6.559-1.438z" fill="#3658c1"/><path d="M164.25 605.922c-2.169 0-3.832-.394-4.963-1.179a3.83 3.83 0 0 1-1.22-1.333l-7.277-13.492a1 1 0 1 1 1.761-.949c.131.243.326.452.596.639 1.184.821 3.59 1.034 6.779.604 1.865-.252 3.998-.719 6.338-1.387a1 1 0 0 1 1.152.482l7.357 13.469a1 1 0 0 1-.602 1.44c-2.466.707-4.721 1.2-6.7 1.469a24.324 24.324 0 0 1-3.221.237zm-9.97-13.745 5.547 10.283c.131.243.327.452.597.639 1.184.821 3.589 1.034 6.779.604 1.56-.211 3.307-.572 5.209-1.076l-6.371-11.663c-2.134.58-4.098.993-5.848 1.23-2.389.322-4.367.315-5.913-.017z" fill="#111"/><path d="M220.383 550.602c-2.831-1.988-9.409-1.554-18.461 1.194-4.586 1.388-9.524 3.282-14.573 5.57a161.138 161.138 0 0 0-14.928 7.753c-18.859 11.077-30.484 23.054-27.757 28.109l7.277 13.491c-2.727-5.055 8.899-17.032 27.757-28.108a160.651 160.651 0 0 1 14.928-7.753c5.049-2.288 9.988-4.181 14.573-5.57 9.052-2.747 15.629-3.182 18.46-1.194z" fill="#b0c3ff"/><path d="M151.942 607.718a1 1 0 0 1-.881-.525l-7.278-13.491c-2.549-4.727 5.166-15.957 28.131-29.445a161.635 161.635 0 0 1 15.021-7.802c5.146-2.332 10.09-4.222 14.696-5.616 6.635-2.014 15.374-3.83 19.325-1.055a.999.999 0 0 1 .305.344l7.277 13.491a1 1 0 0 1-1.454 1.293c-2.533-1.777-8.946-1.293-17.595 1.332-4.52 1.368-9.382 3.227-14.451 5.523a159.526 159.526 0 0 0-14.834 7.705c-19.619 11.522-29.489 22.868-27.384 26.771a.999.999 0 0 1-.878 1.475zm63.116-57.353c-3.229 0-7.63.805-12.845 2.388-4.523 1.369-9.385 3.229-14.451 5.524a159.308 159.308 0 0 0-14.834 7.704c-19.618 11.522-29.489 22.868-27.384 26.771l5.468 10.137c1.917-5.773 10.56-14.793 28.18-25.142a162.087 162.087 0 0 1 15.021-7.803c5.149-2.332 10.093-4.222 14.696-5.615 5.36-1.627 12.095-3.127 16.567-2.177l-5.855-10.854c-1.014-.625-2.563-.933-4.563-.933z" fill="#111"/><path d="M194.626 570.857c5.049-2.288 9.988-4.181 14.573-5.57 9.052-2.747 15.629-3.182 18.461-1.194l-6.812 3.996c-2.332-1.608-7.665-1.282-15.089.977-3.746 1.134-7.786 2.683-11.915 4.554a130.995 130.995 0 0 0-12.212 6.345c-16.835 9.892-26.601 20.631-21.776 23.958 2.23 1.545 7.229 1.283 14.039-.667l1.252 2.447c-11.368 4.178-19.136 4.246-22.102 2.216-5.883-4.072 6.081-17.226 26.653-29.309a160.651 160.651 0 0 1 14.928-7.753z" fill="#111"/><path d="M158.894 610.215c-2.768 0-4.972-.484-6.414-1.472-1.325-.917-1.991-2.263-1.93-3.896.234-6.284 11.744-17.175 28.642-27.1a161.616 161.616 0 0 1 15.021-7.802c5.146-2.332 10.091-4.222 14.696-5.616 6.635-2.014 15.374-3.83 19.325-1.055a1 1 0 0 1-.069 1.68l-6.812 3.996a1.005 1.005 0 0 1-1.074-.039c-2.059-1.42-7.245-1.015-14.23 1.11-3.687 1.115-7.654 2.632-11.794 4.508a129.714 129.714 0 0 0-12.118 6.296c-14.6 8.578-22.377 16.88-22.514 20.647-.026.715.228 1.231.799 1.625 1.93 1.338 6.739 1.044 13.195-.805a1 1 0 0 1 1.166.506l1.252 2.447a.997.997 0 0 1-.545 1.393c-6.415 2.362-12.213 3.576-16.596 3.577zm63.441-46.359c-3.229 0-7.63.805-12.845 2.388-4.522 1.369-9.384 3.228-14.451 5.524a159.29 159.29 0 0 0-14.834 7.704c-13.569 7.97-27.426 19.271-27.656 25.449-.035.956.303 1.647 1.065 2.175 2.496 1.707 9.65 1.731 20.125-1.95l-.362-.707c-4.936 1.345-11.102 2.376-14.09.306-1.136-.784-1.711-1.94-1.66-3.343.188-5.19 9.632-14.151 23.5-22.3a132.03 132.03 0 0 1 12.305-6.394c4.219-1.911 8.269-3.459 12.039-4.6 5.144-1.565 11.85-2.982 15.379-1.18l4.641-2.723c-.87-.233-1.928-.349-3.156-.349zm-27.709 7.001h.01z" fill="#111"/><path d="M212.855 675.653c-2.4.684-4.574 1.158-6.479 1.415-3.468.469-6.047.223-7.48-.771a2.842 2.842 0 0 1-.91-.987l7.277 13.491c.204.378.506.708.91.987 1.434.993 4.012 1.24 7.48.771 1.926-.26 4.127-.742 6.559-1.438z" fill="#3658c1"/><path d="M210.564 691.789c-2.167 0-3.828-.394-4.96-1.178a3.83 3.83 0 0 1-1.221-1.335l-7.274-13.486-.002-.004v-.001a.999.999 0 1 1 1.76-.95v.001l.001.001c.131.243.327.451.596.638 1.185.821 3.593 1.036 6.779.603 1.863-.251 3.995-.717 6.339-1.386a1 1 0 0 1 1.152.482l7.356 13.469a1 1 0 0 1-.602 1.44c-2.468.707-4.722 1.201-6.7 1.468a24.222 24.222 0 0 1-3.224.238zm-9.968-13.746 5.547 10.284c.131.243.327.452.597.639 1.186.819 3.592 1.036 6.779.603 1.559-.21 3.307-.57 5.21-1.074l-6.371-11.664c-2.136.581-4.1.994-5.848 1.229-2.39.322-4.368.316-5.914-.017z" fill="#111"/><path d="M266.699 636.468c-2.831-1.988-9.409-1.554-18.461 1.194-4.586 1.388-9.524 3.282-14.573 5.57a161.138 161.138 0 0 0-14.928 7.753c-18.859 11.077-30.484 23.054-27.757 28.109l7.277 13.491c-2.727-5.055 8.899-17.032 27.757-28.108a160.651 160.651 0 0 1 14.928-7.753c5.049-2.288 9.988-4.181 14.573-5.57 9.052-2.747 15.629-3.182 18.46-1.194z" fill="#b0c3ff"/><path d="M198.258 693.585a1 1 0 0 1-.883-.529l-7.275-13.487c-2.549-4.727 5.166-15.957 28.131-29.445a162.34 162.34 0 0 1 15.021-7.803c5.148-2.332 10.092-4.221 14.696-5.615 6.635-2.013 15.373-3.829 19.326-1.056.127.089.231.207.306.344l7.277 13.491a1 1 0 0 1-1.455 1.293c-2.534-1.779-8.947-1.293-17.595 1.333-4.515 1.366-9.376 3.225-14.451 5.523a159.544 159.544 0 0 0-14.834 7.705c-19.618 11.522-29.489 22.868-27.383 26.771a.998.998 0 0 1-.881 1.475zm63.118-57.354c-3.229 0-7.631.805-12.847 2.388-4.521 1.369-9.383 3.228-14.451 5.523a159.526 159.526 0 0 0-14.834 7.705c-19.618 11.522-29.489 22.868-27.384 26.771l5.468 10.137c1.917-5.772 10.56-14.793 28.18-25.142a162.232 162.232 0 0 1 15.021-7.803c5.154-2.335 10.099-4.224 14.696-5.615 5.36-1.628 12.094-3.129 16.567-2.178l-5.854-10.854c-1.013-.623-2.562-.932-4.562-.932z" fill="#111"/><path d="M240.942 656.722c5.049-2.288 9.988-4.181 14.573-5.57 9.052-2.747 15.629-3.182 18.461-1.194l-6.812 3.996c-2.332-1.608-7.665-1.282-15.089.977-3.746 1.134-7.786 2.683-11.915 4.554a130.995 130.995 0 0 0-12.212 6.345c-16.835 9.892-26.601 20.631-21.776 23.958 2.23 1.545 7.229 1.283 14.039-.667l1.252 2.447c-11.368 4.178-19.136 4.246-22.102 2.216-5.883-4.072 6.081-17.226 26.653-29.309a161.264 161.264 0 0 1 14.928-7.753z" fill="#111"/><path d="M205.21 696.082c-2.767 0-4.971-.484-6.413-1.472-1.325-.917-1.991-2.263-1.93-3.896.234-6.285 11.744-17.175 28.642-27.1a162.232 162.232 0 0 1 15.021-7.803c5.154-2.335 10.099-4.224 14.696-5.615 6.634-2.015 15.372-3.832 19.325-1.056a1 1 0 0 1-.069 1.68l-6.812 3.996a1.003 1.003 0 0 1-1.073-.039c-2.06-1.42-7.246-1.015-14.23 1.11-3.688 1.117-7.656 2.634-11.793 4.508a129.76 129.76 0 0 0-12.118 6.297c-14.6 8.578-22.377 16.88-22.514 20.647-.026.715.228 1.231.799 1.625 1.931 1.337 6.74 1.044 13.195-.805a1 1 0 0 1 1.166.505l1.252 2.446a1 1 0 0 1-.545 1.394c-6.418 2.362-12.215 3.578-16.599 3.578zm36.145-38.449a159.544 159.544 0 0 0-14.834 7.705c-13.569 7.97-27.426 19.271-27.656 25.449-.036.956.303 1.647 1.065 2.175 2.496 1.707 9.65 1.731 20.125-1.951l-.362-.706c-4.935 1.345-11.1 2.377-14.09.306-1.137-.784-1.711-1.94-1.661-3.343.188-5.19 9.632-14.152 23.5-22.3a132.206 132.206 0 0 1 12.306-6.395c4.217-1.91 8.267-3.457 12.038-4.6 5.144-1.565 11.849-2.982 15.38-1.18l4.641-2.723c-3.153-.852-8.802-.146-16 2.038-4.515 1.368-9.377 3.227-14.452 5.525z" fill="#111"/><path d="M258.843 760.909c-2.4.684-4.574 1.158-6.479 1.415-3.468.469-6.047.223-7.48-.771a2.842 2.842 0 0 1-.91-.987l7.277 13.491c.204.378.506.709.91.987 1.434.993 4.012 1.24 7.48.771 1.926-.26 4.127-.742 6.559-1.438z" fill="#3658c1"/><path d="M256.553 777.044c-2.168 0-3.83-.393-4.962-1.177a3.85 3.85 0 0 1-1.22-1.334l-7.277-13.492a1 1 0 0 1 1.759-.951v.002c.132.243.328.452.597.638 1.184.82 3.59 1.034 6.779.604 1.862-.252 3.995-.718 6.339-1.386.448-.127.927.072 1.151.482l7.356 13.468a1 1 0 0 1-.602 1.44c-2.465.706-4.72 1.2-6.7 1.469a24.274 24.274 0 0 1-3.22.237zm-9.969-13.746 5.547 10.285c.131.242.327.452.598.639 1.183.82 3.589 1.033 6.778.603 1.56-.211 3.308-.572 5.209-1.075l-6.371-11.664c-2.136.58-4.1.994-5.848 1.23-2.39.321-4.368.315-5.913-.018z" fill="#111"/><path d="M312.687 721.724c-2.831-1.988-9.409-1.554-18.461 1.194-4.586 1.388-9.524 3.282-14.573 5.57a161.138 161.138 0 0 0-14.928 7.753c-18.859 11.077-30.484 23.054-27.757 28.109l7.277 13.491c-2.727-5.055 8.899-17.032 27.757-28.108a160.894 160.894 0 0 1 14.928-7.753c5.049-2.288 9.988-4.181 14.573-5.57 9.052-2.747 15.629-3.182 18.46-1.194z" fill="#b0c3ff"/><path d="M244.246 778.84a1 1 0 0 1-.881-.525l-7.278-13.491c-2.549-4.727 5.167-15.957 28.132-29.445a161.607 161.607 0 0 1 15.021-7.802c5.147-2.332 10.092-4.222 14.696-5.616 6.634-2.013 15.371-3.832 19.325-1.055.127.089.231.207.306.344l7.277 13.491a1 1 0 0 1-1.455 1.293c-2.533-1.777-8.946-1.293-17.595 1.332-4.523 1.369-9.385 3.229-14.451 5.524a159.308 159.308 0 0 0-14.834 7.704c-19.618 11.522-29.489 22.868-27.384 26.771a.999.999 0 0 1-.879 1.475zm63.116-57.353c-3.229 0-7.63.805-12.845 2.388-4.521 1.369-9.384 3.228-14.452 5.524a159.391 159.391 0 0 0-14.833 7.704c-19.619 11.522-29.49 22.868-27.384 26.771l5.468 10.137c1.917-5.773 10.56-14.792 28.18-25.142a161.635 161.635 0 0 1 15.021-7.802c5.146-2.332 10.09-4.222 14.696-5.616 5.36-1.627 12.095-3.125 16.567-2.177l-5.854-10.854c-1.014-.625-2.564-.933-4.564-.933z" fill="#111"/><path d="M286.93 741.979c5.049-2.288 9.988-4.181 14.573-5.57 9.052-2.747 15.629-3.182 18.461-1.194l-6.812 3.996c-2.332-1.608-7.665-1.282-15.089.977-3.746 1.134-7.786 2.683-11.915 4.554a130.995 130.995 0 0 0-12.212 6.345c-16.835 9.892-26.601 20.631-21.776 23.958 2.23 1.545 7.229 1.283 14.039-.667l1.252 2.447c-11.368 4.178-19.136 4.246-22.102 2.216-5.883-4.072 6.081-17.226 26.653-29.309a161.264 161.264 0 0 1 14.928-7.753z" fill="#111"/><path d="M251.199 781.337c-2.768 0-4.972-.484-6.415-1.472-1.325-.917-1.991-2.263-1.93-3.896.234-6.284 11.744-17.175 28.642-27.1a161.635 161.635 0 0 1 15.021-7.802c5.146-2.332 10.09-4.222 14.696-5.616 6.635-2.013 15.374-3.83 19.325-1.055a1 1 0 0 1-.069 1.68l-6.812 3.996c-.335.196-.754.18-1.074-.039-2.057-1.419-7.244-1.015-14.23 1.11-3.688 1.116-7.656 2.633-11.793 4.508a129.345 129.345 0 0 0-12.118 6.297c-14.6 8.578-22.377 16.88-22.514 20.647-.026.715.228 1.231.799 1.625 1.932 1.338 6.741 1.044 13.195-.806a.999.999 0 0 1 1.166.506l1.252 2.447a.997.997 0 0 1-.545 1.393c-6.415 2.362-12.212 3.577-16.596 3.577zm63.44-46.359c-3.229 0-7.63.805-12.845 2.388-4.523 1.369-9.385 3.229-14.451 5.524a159.308 159.308 0 0 0-14.834 7.704c-13.569 7.97-27.426 19.271-27.656 25.449-.036.956.303 1.647 1.065 2.175 2.496 1.71 9.65 1.731 20.125-1.95l-.362-.707c-4.936 1.347-11.1 2.377-14.09.307-1.137-.784-1.711-1.94-1.661-3.343.188-5.19 9.632-14.152 23.5-22.3a131.673 131.673 0 0 1 12.306-6.395c4.217-1.911 8.267-3.458 12.038-4.6 5.143-1.565 11.85-2.982 15.379-1.18l4.641-2.723c-.869-.233-1.927-.349-3.155-.349zm-27.709 7.001h.01z" fill="#111"/><path d="M304.767 846.047c-2.4.684-4.574 1.158-6.479 1.415-3.468.469-6.047.223-7.48-.771a2.842 2.842 0 0 1-.91-.987l7.277 13.491c.204.378.506.709.91.987 1.434.993 4.012 1.24 7.48.771 1.926-.26 4.127-.742 6.559-1.438z" fill="#3658c1"/><path d="M302.477 862.183c-2.167 0-3.829-.394-4.961-1.178a3.837 3.837 0 0 1-1.221-1.334l-7.277-13.492a1 1 0 1 1 1.761-.949c.131.243.326.452.596.639 1.186.82 3.593 1.036 6.779.603 1.863-.251 3.996-.717 6.339-1.386.452-.126.928.072 1.152.482l7.357 13.469a1 1 0 0 1-.602 1.44c-2.469.707-4.723 1.201-6.7 1.468a24.22 24.22 0 0 1-3.223.238zm-9.969-13.746 5.547 10.284c.131.243.327.452.597.639 1.186.82 3.594 1.036 6.779.603 1.559-.21 3.306-.57 5.21-1.075l-6.371-11.663c-2.136.58-4.1.993-5.849 1.229-2.389.324-4.367.318-5.913-.017z" fill="#111"/><path d="M358.611 806.862c-2.831-1.988-9.409-1.554-18.461 1.194-4.586 1.388-9.524 3.282-14.573 5.57a161.138 161.138 0 0 0-14.928 7.753c-18.859 11.077-30.484 23.054-27.757 28.109l7.277 13.491c-2.727-5.055 8.899-17.032 27.757-28.108a160.894 160.894 0 0 1 14.928-7.753c5.049-2.288 9.988-4.181 14.573-5.57 9.052-2.747 15.629-3.182 18.46-1.194z" fill="#b0c3ff"/><path d="M290.17 863.978a1 1 0 0 1-.881-.525l-7.277-13.49c-2.549-4.727 5.166-15.957 28.131-29.445a162.232 162.232 0 0 1 15.021-7.803c5.154-2.335 10.099-4.224 14.696-5.615 6.634-2.013 15.372-3.829 19.325-1.056a.999.999 0 0 1 .305.344l7.277 13.491a1 1 0 0 1-1.454 1.293c-2.534-1.779-8.947-1.293-17.595 1.333-4.514 1.365-9.375 3.224-14.451 5.523a159.775 159.775 0 0 0-14.834 7.704c-19.616 11.522-29.487 22.866-27.384 26.771v.001a.999.999 0 0 1-.879 1.474zm63.118-57.352c-3.229 0-7.631.805-12.847 2.388-4.515 1.366-9.376 3.225-14.451 5.523a159.544 159.544 0 0 0-14.834 7.705c-19.618 11.522-29.489 22.868-27.383 26.771l5.468 10.136c1.917-5.772 10.56-14.792 28.18-25.142a162.102 162.102 0 0 1 15.021-7.802c5.155-2.335 10.1-4.225 14.696-5.615 5.36-1.628 12.095-3.128 16.567-2.178l-5.855-10.854c-1.014-.624-2.563-.932-4.562-.932z" fill="#111"/><path d="M332.854 827.117c5.049-2.288 9.988-4.181 14.573-5.57 9.052-2.747 15.629-3.182 18.461-1.194l-6.812 3.996c-2.332-1.608-7.665-1.282-15.089.977-3.746 1.134-7.786 2.683-11.915 4.554a130.995 130.995 0 0 0-12.212 6.345c-16.835 9.892-26.601 20.631-21.776 23.958 2.23 1.545 7.229 1.283 14.039-.667l1.252 2.447c-11.368 4.178-19.136 4.246-22.102 2.216-5.883-4.072 6.081-17.226 26.653-29.309a161.264 161.264 0 0 1 14.928-7.753z" fill="#111"/><path d="M297.122 866.476c-2.768 0-4.971-.484-6.413-1.472-1.325-.917-1.991-2.263-1.93-3.896.234-6.285 11.744-17.176 28.642-27.101a162.102 162.102 0 0 1 15.021-7.802c5.155-2.335 10.1-4.225 14.696-5.615 6.634-2.015 15.371-3.832 19.325-1.056a1 1 0 0 1-.069 1.68l-6.812 3.996a1.001 1.001 0 0 1-1.073-.039c-2.06-1.419-7.246-1.015-14.23 1.11-3.688 1.117-7.656 2.634-11.794 4.508a129.735 129.735 0 0 0-12.117 6.297c-14.601 8.578-22.377 16.88-22.514 20.647-.026.715.228 1.231.799 1.625 1.93 1.337 6.739 1.044 13.195-.805.458-.133.948.081 1.166.505l1.252 2.446a1 1 0 0 1-.545 1.394c-6.418 2.362-12.216 3.578-16.599 3.578zm36.145-38.448a159.775 159.775 0 0 0-14.834 7.704c-13.569 7.97-27.426 19.271-27.656 25.45-.035.956.303 1.647 1.065 2.175 2.496 1.708 9.649 1.731 20.125-1.951l-.362-.706c-4.936 1.346-11.102 2.376-14.09.306-1.137-.784-1.711-1.94-1.661-3.343.188-5.19 9.632-14.151 23.5-22.3a132.065 132.065 0 0 1 12.305-6.395c4.217-1.91 8.268-3.458 12.038-4.6 5.143-1.564 11.85-2.98 15.38-1.18l4.641-2.723c-3.153-.852-8.802-.146-16 2.038-4.513 1.367-9.375 3.225-14.451 5.525z" fill="#111"/><path d="M350.79 931.37c-2.4.684-4.574 1.158-6.479 1.415-3.468.469-6.047.223-7.48-.771a2.842 2.842 0 0 1-.91-.987l7.277 13.491c.204.378.506.709.91.987 1.434.993 4.012 1.24 7.48.771 1.926-.26 4.127-.742 6.559-1.438z" fill="#3658c1"/><path d="M348.502 947.505c-2.169 0-3.831-.394-4.963-1.179a3.815 3.815 0 0 1-1.22-1.334l-7.274-13.486-.003-.005a1 1 0 0 1 1.76-.949c.131.243.326.452.596.639 1.185.821 3.591 1.034 6.78.604 1.865-.252 3.997-.719 6.338-1.387a1 1 0 0 1 1.152.482l7.357 13.469a1 1 0 0 1-.602 1.44c-2.466.707-4.721 1.2-6.7 1.469a24.324 24.324 0 0 1-3.221.237zm-9.97-13.746 5.547 10.284c.131.243.327.452.597.639 1.184.821 3.59 1.034 6.779.604 1.56-.211 3.307-.572 5.209-1.076l-6.371-11.663c-2.133.58-4.097.993-5.848 1.23-2.389.322-4.367.316-5.913-.018z" fill="#111"/><path d="M404.635 892.185c-2.831-1.988-9.409-1.554-18.461 1.194-4.586 1.388-9.524 3.282-14.573 5.57a161.138 161.138 0 0 0-14.928 7.753c-18.859 11.077-30.484 23.054-27.757 28.109l7.277 13.491c-2.727-5.055 8.899-17.032 27.757-28.108a160.651 160.651 0 0 1 14.928-7.753c5.049-2.288 9.988-4.181 14.573-5.57 9.052-2.747 15.629-3.182 18.46-1.194z" fill="#b0c3ff"/><path d="M336.194 949.301a1 1 0 0 1-.881-.525l-7.278-13.491c-2.549-4.727 5.166-15.957 28.131-29.445a161.635 161.635 0 0 1 15.021-7.802c5.146-2.332 10.09-4.222 14.696-5.616 6.635-2.013 15.373-3.83 19.325-1.055a.999.999 0 0 1 .305.344l7.277 13.491a1 1 0 0 1-1.454 1.293c-2.532-1.777-8.946-1.293-17.595 1.332-4.523 1.369-9.385 3.229-14.451 5.524a159.308 159.308 0 0 0-14.834 7.704c-19.618 11.522-29.489 22.868-27.384 26.771a.999.999 0 0 1-.878 1.475zm63.116-57.353c-3.229 0-7.63.805-12.845 2.388-4.523 1.369-9.385 3.229-14.451 5.524a159.308 159.308 0 0 0-14.834 7.704c-19.618 11.522-29.489 22.868-27.384 26.771l5.468 10.137c1.917-5.773 10.56-14.792 28.18-25.142a161.635 161.635 0 0 1 15.021-7.802c5.146-2.332 10.09-4.222 14.696-5.616 5.36-1.627 12.095-3.127 16.567-2.177l-5.855-10.854c-1.014-.625-2.563-.933-4.563-.933z" fill="#111"/><path d="M378.878 912.44c5.049-2.288 9.988-4.181 14.573-5.57 9.052-2.747 15.629-3.182 18.461-1.194l-6.812 3.996c-2.332-1.608-7.665-1.282-15.089.977-3.746 1.134-7.786 2.683-11.915 4.554a130.995 130.995 0 0 0-12.212 6.345c-16.835 9.892-26.601 20.631-21.776 23.958 2.23 1.545 7.229 1.283 14.039-.667l1.252 2.447c-11.368 4.178-19.136 4.246-22.102 2.216-5.883-4.072 6.081-17.226 26.653-29.309a160.651 160.651 0 0 1 14.928-7.753z" fill="#111"/><path d="M343.146 951.798c-2.768 0-4.972-.484-6.414-1.472-1.325-.917-1.991-2.263-1.93-3.896.234-6.284 11.744-17.175 28.642-27.1a161.635 161.635 0 0 1 15.021-7.802c5.146-2.332 10.09-4.222 14.696-5.616 6.635-2.013 15.374-3.83 19.325-1.055a1 1 0 0 1-.069 1.68l-6.812 3.996a1.003 1.003 0 0 1-1.074-.039c-2.058-1.42-7.245-1.015-14.23 1.11-3.688 1.115-7.655 2.632-11.793 4.508a129.839 129.839 0 0 0-12.118 6.296c-14.6 8.578-22.377 16.88-22.513 20.647-.026.715.228 1.231.799 1.625 1.93 1.338 6.739 1.043 13.195-.805a1 1 0 0 1 1.166.506l1.252 2.447a.997.997 0 0 1-.545 1.393c-6.417 2.362-12.215 3.576-16.598 3.577zm63.441-46.359c-3.229 0-7.63.805-12.845 2.388-4.523 1.369-9.385 3.229-14.451 5.524a159.308 159.308 0 0 0-14.834 7.704c-13.569 7.97-27.426 19.271-27.656 25.449-.036.956.303 1.647 1.065 2.175 2.496 1.708 9.65 1.731 20.125-1.95l-.362-.707c-4.936 1.346-11.102 2.377-14.09.306-1.136-.784-1.711-1.94-1.66-3.343.188-5.19 9.632-14.152 23.5-22.3a132.17 132.17 0 0 1 12.306-6.394c4.218-1.911 8.268-3.459 12.038-4.6 5.143-1.565 11.851-2.982 15.379-1.18l4.641-2.723c-.87-.233-1.928-.349-3.156-.349zm-27.709 7.001h.01z" fill="#111"/></svg></g><g transform="translate(1176.0 2083.2) rotate(-34.80467266260412 448.79999999999995 213.0) scale(1.2230899099170298 1.226269808143468)"><svg width="733.879" height="347.395" viewBox="0 0 733.879 347.395"><path d="M1.292 1.894c-.289.466-.291.919-.292 1.068.002.12.026.239.061.357.129.573.466.884.632 1.022-.05-.038-.079-.124-.082-.26-.01-.513.361-1.55.829-2.316.308-.504.581-.765.735-.736-1.13-.191-1.727.614-1.883.865z" fill="#fff"/><g fill="#111"><path d="M1.692 5.341a.989.989 0 0 1-.606-.206c-.019-.014-.038-.028-.056-.045a2.807 2.807 0 0 1-.937-1.518A2.233 2.233 0 0 1 0 2.979c0-.603.149-1.14.442-1.612C.933.577 1.943-.185 3.327.041a1 1 0 0 1 .186 1.93 2.797 2.797 0 0 0-.221.316c-.383.627-.627 1.365-.673 1.677a.998.998 0 0 1-.927 1.377z"/><path d="M3.167 1.028c-.155-.019-.424.241-.727.737a6.745 6.745 0 0 0-.406.783c-.258.586-.43 1.182-.423 1.534.003.13.029.214.075.255l15.815 13.96c-.206-.182-.325-.558-.337-1.139-.031-1.571.734-4.234 1.889-6.855.396-.899.839-1.794 1.31-2.637.164-.294.332-.581.503-.861 1.355-2.217 2.559-3.38 3.251-3.298z"/><path d="M17.502 19.296a.994.994 0 0 1-.661-.25h-.001L1.025 5.086c-.187-.167-.405-.471-.413-.99-.014-.692.35-1.596.507-1.952a7.972 7.972 0 0 1 .467-.9c.345-.566.887-1.309 1.7-1.21l20.937 2.478.009.001h.004a1 1 0 0 1 .875 1.11.988.988 0 0 1-1.034.882c-.253.097-1.091.75-2.355 2.82a22.71 22.71 0 0 0-.483.827 30.197 30.197 0 0 0-1.269 2.553c-1.123 2.548-1.831 5.072-1.804 6.433.006.276.041.414.058.465a1 1 0 0 1-.722 1.693zM2.643 3.846l13.619 12.021c.237-1.626.899-3.751 1.877-5.969.419-.951.874-1.867 1.353-2.722.171-.305.346-.604.523-.895.538-.882 1.023-1.561 1.458-2.082L3.438 2.067c-.04.056-.089.127-.145.219l-.088.15a6.79 6.79 0 0 0-.255.513 4.94 4.94 0 0 0-.307.897zm-.031.215c0 .001 0 .001 0 0zm.436-2.04h.006-.006z"/></g><path d="M24.118 3.505c-3.461 1.405-7.908 11.284-6.617 14.792l52.017 45.912c-4.638-10.83 12.992-50.85 23.507-52.551z" fill="#fff"/><path d="M69.518 65.209a1 1 0 0 1-.662-.25L16.839 19.047a1.004 1.004 0 0 1-.276-.404c-1.456-3.957 3.241-14.466 7.18-16.064a.988.988 0 0 1 .493-.066l68.906 8.153a1 1 0 0 1 .042 1.981c-3.339.54-8.151 5.988-12.875 14.574-6.937 12.608-12.559 30.322-9.872 36.596a.999.999 0 0 1-.919 1.392zM18.371 17.731 67.846 61.4c-.823-8.405 4.344-23.571 10.71-35.144 2.362-4.293 6.496-10.964 10.826-14.021L24.281 4.532c-2.872 1.505-6.716 10.092-5.91 13.199z" fill="#111"/><path d="M93.025 11.658c-8.86.51-27.915 38.159-23.507 52.551l580.786 259.766c-.25-17.76 17.128-48.976 23.578-52.705z" fill="#b0c3ff"/><path d="M650.303 324.975a.985.985 0 0 1-.408-.087L69.11 65.122a.998.998 0 0 1-.548-.62C65.179 53.458 74.697 30.99 82.568 19.68c2.786-4.002 6.852-8.815 10.399-9.02a.952.952 0 0 1 .466.085l580.856 259.611a1.001 1.001 0 0 1 .093 1.778c-5.75 3.325-23.331 33.942-23.079 51.826a1 1 0 0 1-1 1.015zM70.352 63.487l578.972 258.955c.653-16.944 15.193-44.256 22.611-50.946L92.859 12.68c-2.112.307-5.243 3.25-8.649 8.143-8.696 12.493-16.345 33.172-13.858 42.664z" fill="#111"/><path d="M666.663 334.979c.726.181 1.491.179 2.235-.126l4.169-1.708c-2.205.903-3.584-.424-3.66-4.233-.161-8.162 5.728-24.632 13.154-36.786 6.372-10.429 11.806-14.292 13.322-10.021l-1.507-4.247c-.3-.845-.763-1.44-1.385-1.734l-14.755-6.597c-2.519-1.126-7.349 3.135-12.882 11.941-.202.322-.405.65-.609.983-3.649 5.972-6.966 12.877-9.521 19.514-3.251 8.446-5.269 16.459-5.168 21.563.054 2.755.72 4.347 1.851 4.853z" fill="#3658c1"/><path d="M667.624 336.102c-.392 0-.794-.051-1.203-.152a1.063 1.063 0 0 1-.167-.058l-14.754-6.597c-1.56-.698-2.381-2.632-2.443-5.747-.1-5.043 1.809-13.04 5.234-21.942 2.659-6.906 6.068-13.894 9.601-19.676.206-.337.411-.668.616-.993 2.749-4.376 9.624-14.327 14.137-12.322l14.755 6.597c.883.417 1.522 1.192 1.92 2.313l1.507 4.246a.999.999 0 1 1-1.884.668c-.347-.976-.793-1.021-.961-1.039-1.736-.172-5.664 3.229-10.565 11.248-7.33 11.998-13.166 28.257-13.008 36.245.051 2.527.688 3.215.959 3.393.295.194.74.171 1.318-.064l.004-.002a1.002 1.002 0 0 1 .758 1.852l-4.169 1.707a4.376 4.376 0 0 1-1.655.323zm-.639-2.074c.554.121 1.071.089 1.534-.101l1.165-.478c-.806-.905-1.234-2.42-1.276-4.518-.164-8.31 5.803-25.055 13.301-37.327 2.819-4.613 8.081-12.211 12.152-12.211l-.426-1.201c-.213-.601-.506-.992-.87-1.164l-14.736-6.588c-1.645-.74-5.979 2.572-11.627 11.56-.199.318-.4.642-.603.973-3.472 5.682-6.824 12.555-9.44 19.352-3.337 8.669-5.196 16.391-5.102 21.185.043 2.178.503 3.621 1.261 3.96z" fill="#111"/><path d="m719.85 291.823-25.206-11.27c-2.256-1.009-6.581 2.808-11.536 10.693a87.45 87.45 0 0 0-.546.881c-3.268 5.348-6.238 11.532-8.526 17.475-2.912 7.564-4.719 14.74-4.628 19.311.049 2.467.645 3.893 1.658 4.346l25.32 11.32c11.632 4.574 22.517.418 29.865-11.403v.001c9.028-14.524 10.549-32.942-6.401-41.354z" fill="#fff"/><path d="M705.511 347.409c-3.07 0-6.252-.626-9.491-1.899l-25.362-11.338c-1.437-.644-2.193-2.405-2.25-5.239-.089-4.531 1.623-11.708 4.695-19.69 2.385-6.194 5.441-12.457 8.605-17.637.186-.303.369-.601.554-.893 3.075-4.895 8.824-12.842 12.79-11.072l25.206 11.27.036.018c6.594 3.271 10.85 8.145 12.651 14.481 2.342 8.238.212 18.552-5.845 28.296-5.589 8.99-13.167 13.703-21.589 13.703zm-11.654-66.015c-1.49 0-5.015 2.605-9.902 10.384-.18.285-.359.575-.539.87-3.104 5.079-6.104 11.228-8.445 17.312-2.984 7.75-4.646 14.65-4.562 18.933.037 1.88.436 3.17 1.066 3.452l25.32 11.32c11.096 4.364 21.539.354 28.607-11.019 5.76-9.265 7.809-18.994 5.62-26.691-1.639-5.767-5.541-10.217-11.599-13.229l-25.188-11.261a.927.927 0 0 0-.378-.071z" fill="#111"/></svg></g><g transform="translate(162.0 1075.2) rotate(0.0 231.0 206.39999999999998) scale(1.2230667206722103 1.2278405710886375)"><svg width="377.739" height="336.2" viewBox="0 0 377.739 336.2"><path d="m368.807 334.454 7.932-23.359-14.46-11.956-12.474 19.604z" fill="#b0c3ff"/><g fill="#111"><path d="M368.807 335.454a.998.998 0 0 1-.637-.229l-19.002-15.711a1 1 0 0 1-.207-1.307l12.474-19.604a1 1 0 0 1 1.481-.234l14.459 11.956a1 1 0 0 1 .31 1.092l-7.931 23.359a.997.997 0 0 1-.947.678zm-17.684-16.919 17.204 14.224 7.243-21.333-13.055-10.795z"/><path d="m360.179 335.2 8.628-.746-19.002-15.711-8.627.746z"/><path d="M360.179 336.2c-.232 0-.457-.081-.637-.229l-19.001-15.711a.999.999 0 0 1 .552-1.766l8.627-.746a.998.998 0 0 1 .723.226l19.002 15.711a.999.999 0 0 1-.552 1.766l-8.628.746a1.214 1.214 0 0 1-.086.003zm-16.482-15.925 16.804 13.894 5.786-.5-16.804-13.894z"/></g><path d="m341.178 319.489 8.627-.746 12.474-19.604-8.628.747z" fill="#fff"/><path d="M341.178 320.489a1 1 0 0 1-.844-1.536l12.473-19.604a.996.996 0 0 1 .758-.459l8.628-.746c.378-.042.744.152.941.478s.193.734-.011 1.055l-12.474 19.604a.996.996 0 0 1-.758.459l-8.627.746a1.257 1.257 0 0 1-.086.003zm13.052-19.65-11.122 17.479 6.119-.529 11.122-17.479z" fill="#111"/><path d="m335.367 324.765 15.773-1.364c-34.15-28.172-56.526-40.58-87.92-37.866l-15.773 1.364c31.393-2.714 53.77 9.694 87.92 37.866" fill="#b0c3ff"/><path d="M335.367 325.765a.995.995 0 0 1-.636-.229c-32.877-27.121-55.39-40.396-87.191-37.641h-.007a1 1 0 1 1-.172-1.992l15.772-1.364c32.496-2.814 55.346 10.623 88.643 38.09a1 1 0 0 1-.551 1.768l-15.772 1.364c-.029.002-.057.004-.086.004zm-68.443-39.479c23.001 3.123 42.685 15.961 68.764 37.448l12.921-1.118c-30.611-25.052-52.361-37.766-81.685-36.33z" fill="#111"/><path d="m224.916 290.952 15.773-1.363 66.584-104.646-15.773 1.364z" fill="#fff"/><path d="M224.916 291.952a1 1 0 0 1-.844-1.536l66.584-104.645a.996.996 0 0 1 .758-.459l15.772-1.364a.984.984 0 0 1 .941.478 1 1 0 0 1-.011 1.055l-66.584 104.646a.996.996 0 0 1-.758.459l-15.772 1.364-.086.002zm67.163-104.691-65.232 102.521 13.264-1.147 65.232-102.521z" fill="#111"/><path d="m307.273 184.943-66.584 104.645c44.547-11.51 68.7-.629 110.45 33.813l18.628-29.277c-41.685-34.544-58.259-57.336-62.494-109.181z" fill="#fff"/><path d="M351.139 324.401a.999.999 0 0 1-.636-.229c-40.311-33.254-64.44-45.275-109.564-33.616a1 1 0 0 1-1.094-1.505l66.583-104.646a1 1 0 0 1 1.84.455c4.301 52.645 21.84 75.1 62.136 108.493.388.322.476.882.206 1.307l-18.628 29.276a1 1 0 0 1-.843.465zm-79.637-40.218c27.925 0 49.22 12.917 79.4 37.728l17.548-27.579c-39.522-32.84-57.175-55.378-61.917-106.363L242.88 288.007c10.504-2.56 19.888-3.824 28.622-3.824z" fill="#111"/><path d="M308.76 183.048 87.686 1.827c1.391 1.14 1.791 3.403 1.215 6.433-.631 3.318-2.432 7.557-5.381 12.25l221.074 181.221c2.95-4.693 4.75-8.932 5.381-12.25.575-3.03.176-5.292-1.215-6.433z" fill="#b0c3ff"/><path d="M304.593 202.731a1 1 0 0 1-.634-.227L82.886 21.284a1 1 0 0 1-.213-1.306c2.797-4.45 4.61-8.566 5.245-11.904.504-2.652.199-4.594-.859-5.468l-.006-.005a1 1 0 0 1 1.267-1.547l.007.006 221.066 181.215c1.171.961 2.394 3.023 1.563 7.394-.681 3.58-2.588 7.936-5.517 12.595a1.001 1.001 0 0 1-.846.467zM84.831 20.292l219.511 179.94c2.459-4.079 4.062-7.843 4.65-10.938.505-2.657.198-4.601-.867-5.473L90.135 5.128c.061.923-.005 2.02-.252 3.32-.644 3.387-2.386 7.468-5.052 11.844z" fill="#111"/><path d="M304.593 201.731 83.52 20.51 36.523 95.286l221.073 181.221z" fill="#b0c3ff"/><path d="M257.596 277.507a1 1 0 0 1-.634-.227L35.889 96.059a1 1 0 0 1-.213-1.306l46.997-74.775a1 1 0 0 1 1.48-.242l221.073 181.221a1 1 0 0 1 .213 1.306l-46.997 74.775a1 1 0 0 1-.846.469zM37.839 95.072l219.514 179.943 45.924-73.069L83.763 22.003z" fill="#111"/><path d="M36.523 95.286 83.52 20.51c7.159-11.391 7.55-20.104.872-19.479l-5.729.537c-6.678.626-17.876 10.352-25.036 21.744L6.631 98.087c-7.145 11.369-7.55 20.104-.872 19.479l5.729-.537c6.677-.626 17.889-10.374 25.035-21.743z" fill="#3658c1"/><path d="M5.099 118.597c-2.368 0-3.597-1.143-4.22-2.156-2.157-3.506-.324-10.567 4.905-18.887l46.997-74.775C60.192 10.988 71.52 1.233 78.57.573l5.729-.537c2.867-.271 4.292 1.005 4.979 2.121 2.155 3.503.319 10.563-4.911 18.886L37.37 95.818l-.847-.532.847.532c-7.411 11.792-18.739 21.546-25.789 22.206l-5.729.537a7.95 7.95 0 0 1-.753.036zM85.062 1.999c-.184 0-.375.01-.576.028l-5.729.537c-6.391.599-17.284 10.145-24.282 21.279L7.478 98.619c-5.312 8.451-6.286 14.514-4.896 16.774.574.933 1.58 1.313 3.083 1.177l5.729-.537c6.391-.599 17.284-10.145 24.282-21.279l46.997-74.775c5.313-8.454 6.29-14.516 4.901-16.773-.498-.81-1.323-1.207-2.512-1.207z" fill="#111"/><path d="M36.523 95.286c-3.141 4.998-7.069 9.683-11.051 13.417-5.076 4.76-10.242 7.975-13.984 8.326l-5.729.537c-1.412.132-2.507-.154-3.289-.795l221.073 181.221c.782.641 1.877.927 3.289.795l5.729-.537c3.742-.351 8.908-3.566 13.984-8.326 3.983-3.734 7.91-8.419 11.051-13.417z" fill="#b0c3ff"/><path d="M226.174 299.818c-1.314 0-2.41-.353-3.265-1.053L1.836 117.544a1.001 1.001 0 0 1 1.268-1.547c.59.484 1.454.677 2.561.573l5.729-.537c3.387-.317 8.269-3.255 13.394-8.06 4.05-3.797 7.917-8.492 10.889-13.22a1 1 0 0 1 1.48-.242L258.23 275.733a1 1 0 0 1 .213 1.306c-3.059 4.868-7.042 9.703-11.214 13.615-5.441 5.102-10.754 8.234-14.575 8.592l-5.729.537a8.442 8.442 0 0 1-.751.035zM6.192 118.53l217.984 178.689c.591.483 1.453.675 2.562.572l5.729-.537c3.388-.317 8.269-3.255 13.393-8.06 3.839-3.599 7.512-8.003 10.415-12.478L36.758 96.772c-2.97 4.542-6.704 9.005-10.603 12.661-5.442 5.102-10.754 8.234-14.575 8.592z" fill="#111"/></svg></g></svg>