<svg xmlns="http://www.w3.org/2000/svg" viewBox="0 0 3000 3000" width="3000" height="3000"><g transform="translate(2304.0 1444.8) rotate(0.0 270.5999999999999 277.79999999999995) scale(1.2136461185525047 1.216138126674488)"><svg width="445.929" height="456.856" viewBox="0 0 445.929 456.856"><path d="M435.763 189.981 248.39 18.319a25.64 25.64 0 0 0-8.37-5.15L211.705 2.603a25.644 25.644 0 0 1 8.371 5.15l187.372 171.662c11.497 10.533 12.295 29.607 1.735 42.641L237.44 434.045c-8.233 10.162-20.901 13.607-31.533 9.64l28.315 10.566c10.632 3.967 23.301.522 31.533-9.64l171.744-211.988c10.559-13.035 9.761-32.108-1.736-42.642z" fill="#3658c1"/><path d="M243.129 456.847c-3.131 0-6.259-.541-9.258-1.66l-28.315-10.566a1 1 0 0 1 .7-1.874c10.494 3.916 22.712.165 30.406-9.332l171.743-211.988c10.2-12.589 9.467-31.105-1.633-41.274L219.4 8.49a24.64 24.64 0 0 0-8.019-4.941l-.025-.009a1 1 0 0 1 .7-1.874l28.315 10.565a26.595 26.595 0 0 1 8.696 5.35L436.44 189.244c11.865 10.871 12.689 30.612 1.836 44.008L266.532 445.24c-6.05 7.468-14.738 11.607-23.403 11.607zm-27.442-10.58 18.884 7.046c10.492 3.916 22.712.166 30.406-9.332l171.744-211.988c10.199-12.589 9.466-31.105-1.634-41.274L247.715 19.056a24.626 24.626 0 0 0-8.045-4.951l-18.863-7.039 187.317 171.612c11.865 10.871 12.689 30.612 1.836 44.008L238.217 434.674c-5.847 7.217-14.158 11.325-22.53 11.593z" fill="#111"/><path d="M407.448 179.416c11.497 10.533 12.294 29.607 1.735 42.641L237.44 434.045c-10.56 13.034-28.416 15.017-39.913 4.484L10.154 266.866c-11.497-10.533-12.272-29.586-1.713-42.62L180.184 12.258c10.56-13.034 28.394-15.038 39.891-4.505z" fill="#b0c3ff"/><path d="M214.863 446.291c-6.693 0-13.024-2.455-18.012-7.024L9.478 267.604c-11.853-10.859-12.667-30.591-1.814-43.987L179.407 11.629C184.869 4.887 192.638.676 200.722.076c7.427-.555 14.542 1.913 20.029 6.94l187.373 171.663c11.865 10.87 12.689 30.612 1.836 44.008L238.217 434.674c-5.456 6.734-13.221 10.94-21.307 11.541-.685.051-1.368.076-2.047.076zM202.761 2c-.627 0-1.257.023-1.89.07-7.536.56-14.793 4.502-19.909 10.817L9.218 224.876c-10.199 12.589-9.477 31.096 1.611 41.253l187.373 171.663c5.083 4.657 11.674 6.941 18.56 6.429 7.537-.56 14.791-4.498 19.9-10.805l171.744-211.988c10.199-12.589 9.466-31.105-1.633-41.274L219.4 8.49C214.791 4.268 208.942 2 202.761 2z" fill="#111"/><path d="M312.957 210.105c-6.398-5.861-14.664-5.277-19.81 1.075-5.167 6.378-4.488 15.158 1.91 21.02 6.486 5.942 14.686 5.297 19.853-1.081 5.147-6.353 4.534-15.072-1.953-21.014" fill="#fff"/><path d="M304.754 237.301c-3.627 0-7.276-1.528-10.372-4.364-6.701-6.139-7.547-15.554-2.012-22.386 2.632-3.248 6.168-5.192 9.957-5.473 3.949-.299 7.966 1.23 11.306 4.29 6.822 6.25 7.667 15.453 2.054 22.38-2.656 3.278-6.201 5.237-9.984 5.518-.316.023-.632.035-.949.035zm-1.465-30.259c-.271 0-.542.01-.813.03-3.234.24-6.271 1.923-8.551 4.738-4.849 5.985-4.088 14.25 1.809 19.653 2.955 2.708 6.441 4.053 9.823 3.81 3.227-.24 6.273-1.938 8.578-4.783 4.915-6.066 4.154-14.146-1.851-19.647-2.698-2.471-5.862-3.801-8.995-3.801z" fill="#111"/><path d="m162.825 209.074 52.883-35.019 1.231 1.127-24.879 60.675zm82.164-46.775-20.646-18.915-130.571 82.811 18.566 17.009 32.887-21.593 37.778 34.61-15.373 37.639 19.706 18.054z" fill="#fff"/><path d="M187.337 312.915c-.247 0-.489-.092-.676-.263l-19.706-18.054a1 1 0 0 1-.25-1.115l15.109-36.995-36.691-33.614-32.237 21.166a.999.999 0 0 1-1.224-.099l-18.566-17.009a1.002 1.002 0 0 1 .139-1.581l130.572-82.811a.999.999 0 0 1 1.211.107l20.646 18.915a1 1 0 0 1 .258 1.097L188.27 312.274a.999.999 0 0 1-.933.641zm-18.517-19.321 18.111 16.593 56.88-147.611-19.578-17.937L95.411 226.34l17.029 15.601 32.237-21.166c.383-.25.887-.21 1.224.099l37.778 34.61a1 1 0 0 1 .25 1.115zm23.24-56.737a1 1 0 0 1-.676-.263l-29.235-26.784a1 1 0 0 1 .124-1.571l52.883-35.019a.999.999 0 0 1 1.227.097l1.23 1.127a1 1 0 0 1 .25 1.117l-24.879 60.675a1.003 1.003 0 0 1-.924.621zM164.444 209.2l27.234 24.951 24.07-58.704-.14-.128z" fill="#111"/><path d="m292.287 254.617-17.58-16.106-71.355 88.076 17.58 16.106z" fill="#fff"/><path d="M220.932 343.693c-.249 0-.49-.093-.676-.263l-17.58-16.106a1 1 0 0 1-.102-1.367l71.355-88.076a1 1 0 0 1 1.453-.108l17.58 16.106a1 1 0 0 1 .102 1.367l-71.355 88.076a1 1 0 0 1-.777.371zm-16.211-17.208 16.103 14.752 70.094-86.52-16.103-14.752z" fill="#111"/></svg></g><g transform="translate(206.4 553.1999999999999) rotate(0.0 1209.0 891.0) scale(1.2108495727223334 1.212739893834218)"><svg width="1996.945" height="1469.4" viewBox="0 0 1996.945 1469.4"><linearGradient id="a" gradientUnits="userSpaceOnUse" x1="1225.057" x2="812.666" y1="206.985" y2="1283.784"><stop offset="0" stop-color="#b0c3ff"/><stop offset=".072" stop-color="#8ca3ed"/><stop offset=".177" stop-color="#5e7bd5"/><stop offset=".258" stop-color="#4161c6"/><stop offset=".304" stop-color="#3658c1"/><stop offset=".34" stop-color="#3453b6"/><stop offset=".575" stop-color="#253770"/><stop offset=".771" stop-color="#1a233c"/><stop offset=".918" stop-color="#13161d"/><stop offset="1" stop-color="#111"/></linearGradient><g><path d="m1981.359 380.386-18.298-19.074c14.07 14.667 18.837 37.445 10.419 60.369l-359.308 978.437c-12.441 33.878-48.961 55.23-81.585 47.698L41.685 1103.613c-10.539-2.433-19.38-7.586-26.1-14.591l18.298 19.074c6.72 7.004 15.561 12.158 26.1 14.591l1490.901 344.201c32.624 7.532 69.144-13.819 81.585-47.698l359.308-978.437c8.418-22.923 3.652-45.7-10.418-60.367z" fill="url(#a)"/><path d="M1564.231 1469.391c-4.551 0-9.098-.495-13.571-1.528L59.759 1123.662c-10.359-2.392-19.556-7.535-26.596-14.873l-18.298-19.074a1 1 0 0 1 1.443-1.385c6.77 7.057 15.623 12.005 25.603 14.309l1490.901 344.202c32.092 7.409 68.169-13.706 80.421-47.069l359.308-978.436c7.977-21.723 4.067-44.457-10.202-59.332a1 1 0 0 1 1.443-1.384l18.298 19.074c14.803 15.43 18.878 38.96 10.636 61.406l-359.308 978.437c-10.882 29.635-40.107 49.854-69.177 49.854zM26.103 1098.541l8.503 8.864c6.77 7.057 15.623 12.005 25.603 14.309l1490.901 344.201c32.09 7.409 68.169-13.705 80.421-47.068l359.308-978.437c7.977-21.722 4.067-44.457-10.202-59.331l-8.456-8.814c7.618 14.405 8.609 32.407 2.236 49.761l-359.307 978.437c-12.587 34.276-49.705 55.956-82.749 48.328l-1490.9-344.203c-5.496-1.269-10.665-3.312-15.358-6.047z" fill="#111"/><path d="M1936.94 346.711c32.624 7.532 48.98 41.09 36.539 74.969l-359.307 978.437c-12.441 33.878-48.961 55.23-81.585 47.698L41.685 1103.613c-32.603-7.527-48.959-41.086-36.518-74.964L364.475 50.212c12.441-33.878 48.961-55.23 81.564-47.703z" fill="#b0c3ff"/><path d="M1545.932 1450.317a60.24 60.24 0 0 1-13.571-1.528L41.46 1104.588c-15.221-3.514-27.575-12.79-34.787-26.118-7.9-14.599-8.791-32.884-2.444-50.165L363.536 49.868c12.587-34.276 49.701-55.957 82.728-48.332l1490.901 344.202c15.232 3.516 27.594 12.796 34.808 26.128 7.899 14.597 8.79 32.88 2.444 50.159l-359.308 978.436c-10.882 29.636-40.108 49.856-69.177 49.856zM432.668 2.004c-28.243 0-56.656 19.695-67.254 48.553L6.106 1028.994c-6.148 16.743-5.301 34.429 2.326 48.524 6.935 12.816 18.825 21.738 33.478 25.121l1490.901 344.202c32.095 7.41 68.17-13.706 80.422-47.068l359.307-978.436c6.148-16.741 5.3-34.426-2.325-48.518-6.938-12.821-18.834-21.746-33.5-25.132L445.814 3.484c-4.331-1-8.738-1.48-13.146-1.48z" fill="#111"/><path d="M1905.992 382.603 602.351 81.634c-19.446-4.489-41.222 8.241-48.637 28.435l-348.357 948.619c-7.416 20.194 2.337 40.203 21.783 44.692l1303.641 300.969c19.446 4.49 41.221-8.241 48.636-28.435l348.358-948.619c7.415-20.193-2.337-40.202-21.783-44.692" fill="#fff"/><path d="M1538.73 1406.244c-2.742 0-5.479-.298-8.174-.921L226.915 1104.354c-9.194-2.123-16.657-7.726-21.015-15.779-4.764-8.805-5.305-19.824-1.482-30.233l348.357-948.618c7.572-20.618 29.912-33.655 49.801-29.064l1303.641 300.969c9.194 2.123 16.657 7.726 21.014 15.779 4.765 8.805 5.305 19.824 1.482 30.233l-348.357 948.618c-6.546 17.824-24.132 29.985-41.626 29.985zM594.368 81.735c-16.676 0-33.455 11.633-39.715 28.679l-348.357 948.618c-3.625 9.87-3.127 20.291 1.364 28.592 4.08 7.541 11.078 12.79 19.705 14.782l1303.641 300.969c18.937 4.373 40.236-8.101 47.473-27.805l348.357-948.618c3.625-9.87 3.128-20.291-1.363-28.592-4.08-7.54-11.078-12.79-19.705-14.782L602.126 82.608a34.467 34.467 0 0 0-7.758-.873z" fill="#111"/><path d="M301.51 504.014c-30.555-7.054-64.789 12.961-76.449 44.714-11.652 31.73 3.68 63.187 34.234 70.242 30.576 7.059 64.81-12.955 76.462-44.685 11.66-31.754-3.671-63.212-34.247-70.271" fill="#3658c1"/><path d="M271.808 621.377c-4.272 0-8.539-.465-12.737-1.434-14.284-3.298-25.878-12.004-32.648-24.515-7.412-13.697-8.25-30.845-2.3-47.046 11.809-32.156 46.627-52.497 77.613-45.343 14.294 3.3 25.895 12.009 32.665 24.522 7.413 13.699 8.25 30.854 2.296 47.067-10.206 27.79-37.619 46.749-64.889 46.749zm17.169-117.775c-26.445 0-53.053 18.445-62.978 45.47-5.752 15.663-4.957 32.212 2.182 45.405 6.492 11.999 17.622 20.351 31.339 23.518a54.747 54.747 0 0 0 12.322 1.387c26.452.002 53.057-18.431 62.976-45.443 5.756-15.674 4.962-32.231-2.177-45.426-6.494-12.001-17.63-20.356-31.356-23.525a54.681 54.681 0 0 0-12.308-1.386z" fill="#111"/><path d="M402.096 393.634 291.4 368.077l-20.448 55.684 110.696 25.557z" fill="#3658c1"/><path d="M381.648 450.318a.966.966 0 0 1-.225-.026l-110.696-25.556a.999.999 0 0 1-.714-1.319l20.448-55.684a1 1 0 0 1 1.164-.63l110.696 25.556a.999.999 0 0 1 .714 1.319l-20.448 55.684a1.002 1.002 0 0 1-.939.656zm-109.367-27.276 108.732 25.103 19.754-53.792-108.732-25.103z" fill="#111"/><path d="m442.662 283.169-110.696-25.556-20.448 55.683 110.696 25.556z" fill="#3658c1"/><path d="M422.214 339.852a.966.966 0 0 1-.225-.026L311.293 314.27a1.001 1.001 0 0 1-.714-1.32l20.448-55.683a1 1 0 0 1 1.164-.63l110.696 25.556a.999.999 0 0 1 .714 1.319l-20.448 55.683a1 1 0 0 1-.939.657zm-109.367-27.276 108.732 25.103 19.753-53.791L332.6 258.786z" fill="#111"/><path d="M483.22 172.726 372.523 147.17l-20.44 55.661 110.696 25.557z" fill="#3658c1"/><path d="M462.78 229.388a.966.966 0 0 1-.225-.026l-110.696-25.556a.999.999 0 0 1-.714-1.319l20.44-55.662a1 1 0 0 1 1.164-.63l110.696 25.556a1.001 1.001 0 0 1 .714 1.32l-20.44 55.662c-.148.4-.528.655-.939.655zm-109.368-27.276 108.732 25.103 19.746-53.769-108.732-25.103z" fill="#111"/><path d="M208.743 920.157 98.047 894.601l-20.448 55.683 110.696 25.556z" fill="#3658c1"/><path d="M188.296 976.84c-.074 0-.15-.009-.225-.026L77.374 951.258a1.001 1.001 0 0 1-.714-1.32l20.448-55.683a1 1 0 0 1 1.164-.63l110.696 25.556a.999.999 0 0 1 .714 1.319l-20.448 55.683a1 1 0 0 1-.938.657zM78.928 949.564l108.732 25.103 19.753-53.791-108.731-25.102z" fill="#111"/><path d="m249.309 809.691-110.696-25.556-20.449 55.684 110.697 25.556z" fill="#3658c1"/><path d="M228.861 866.375a.966.966 0 0 1-.225-.026L117.94 840.794a.999.999 0 0 1-.714-1.319l20.448-55.684a1 1 0 0 1 1.164-.63l110.696 25.556a.999.999 0 0 1 .714 1.319l-20.449 55.684a.999.999 0 0 1-.938.655zM119.494 839.1l108.732 25.103 19.754-53.792-108.732-25.103z" fill="#111"/><path d="m289.867 699.248-110.696-25.556-20.441 55.663 110.696 25.556z" fill="#3658c1"/><path d="M269.426 755.911a.966.966 0 0 1-.225-.026l-110.696-25.556a.999.999 0 0 1-.714-1.319l20.441-55.663a1 1 0 0 1 1.164-.63l110.696 25.556a.999.999 0 0 1 .714 1.319l-20.441 55.663a1 1 0 0 1-.939.656zm-109.367-27.276 108.732 25.103 19.746-53.771-108.732-25.103z" fill="#111"/></g></svg></g><g transform="translate(272.4 769.1999999999999) rotate(0.0 406.2 196.8) scale(1.2147347141396077 1.2170272501553752)"><svg width="668.788" height="323.411" viewBox="0 0 668.788 323.411"><path d="M589.119 1.478c16.413-2.87 33.536 7.484 38.064 22.999l39.493 135.318c4.528 15.515-5.182 30.561-21.594 33.431L94.513 289.499c-16.413 2.87-33.536-7.484-38.064-22.999L16.955 131.181c-4.528-15.515 5.182-30.561 21.595-33.431z" fill="#fff"/><path d="M88.952 290.979c-15.002 0-29.312-9.975-33.463-24.199L15.995 131.461c-2.225-7.624-1.22-15.405 2.83-21.91 4.22-6.778 11.164-11.319 19.553-12.786L588.946.493l.172.985-.172-.985c16.938-2.964 34.518 7.673 39.196 23.704l39.494 135.318c2.225 7.625 1.22 15.406-2.83 21.911-4.22 6.778-11.164 11.319-19.553 12.786L94.685 290.483a33.258 33.258 0 0 1-5.733.496zM594.704 1.996c-1.8 0-3.61.152-5.413.467L38.722 98.734c-7.821 1.368-14.284 5.584-18.199 11.874-3.745 6.016-4.671 13.222-2.608 20.292l39.493 135.318c4.402 15.085 20.972 25.081 36.932 22.295l550.569-96.271c7.821-1.368 14.284-5.584 18.2-11.874 3.745-6.016 4.671-13.222 2.607-20.293L626.222 24.757c-3.904-13.38-17.382-22.761-31.518-22.761z" fill="#111"/><g><path d="M121.453 134.326c-27.593 4.825-43.776 29.902-36.153 56.022 7.617 26.098 36.155 43.354 63.748 38.53 27.57-4.821 43.753-29.898 36.137-55.995-7.624-26.121-36.162-43.378-63.732-38.557" fill="#fff"/><path d="M139.731 230.682c-24.833 0-48.52-16.51-55.391-40.053-3.692-12.651-2.054-25.517 4.613-36.225 6.943-11.152 18.424-18.632 32.328-21.063l.172.985-.172-.985c28.018-4.901 57.116 12.713 64.864 39.261 3.689 12.64 2.05 25.497-4.615 36.203-6.942 11.15-18.416 18.628-32.309 21.057a54.95 54.95 0 0 1-9.49.82zm-8.949-96.161c-3.046 0-6.106.257-9.157.79-13.336 2.332-24.337 9.488-30.975 20.15-6.362 10.219-7.921 22.509-4.391 34.607 6.625 22.699 29.481 38.614 53.447 38.616 3.05 0 6.114-.257 9.17-.792 13.325-2.33 24.319-9.484 30.956-20.145 6.361-10.216 7.921-22.499 4.393-34.585-6.629-22.712-29.485-38.641-53.443-38.641z" fill="#111"/><path d="M259.15 110.248c-27.571 4.821-43.755 29.898-36.131 56.018 7.617 26.098 36.155 43.354 63.727 38.533 27.593-4.825 43.776-29.902 36.16-55.999-7.624-26.12-36.162-43.376-63.756-38.552" fill="#b0c3ff"/><path d="M277.436 206.604c-24.824.001-48.505-16.511-55.377-40.057-3.693-12.653-2.054-25.52 4.614-36.23 6.94-11.147 18.413-18.625 32.305-21.053 28.033-4.899 57.139 12.709 64.887 39.257 3.688 12.639 2.05 25.494-4.614 36.198-6.944 11.153-18.427 18.635-32.333 21.066-3.157.552-6.33.819-9.482.819zm-18.113-95.371c-13.323 2.33-24.316 9.482-30.951 20.141-6.363 10.221-7.923 22.513-4.392 34.613 7.468 25.588 35.548 42.555 62.594 37.829 13.338-2.333 24.34-9.49 30.98-20.154 6.359-10.214 7.919-22.496 4.392-34.581-7.472-25.601-35.564-42.575-62.623-37.848zm-.173-.984h.01z" fill="#111"/><path d="M396.871 86.167c-27.571 4.821-43.755 29.898-36.131 56.018 7.617 26.098 36.155 43.354 63.727 38.533 27.593-4.825 43.776-29.902 36.16-55.999-7.624-26.12-36.163-43.377-63.756-38.552" fill="#3658c1"/><g fill="#111"><path d="M415.157 182.522c-24.824.001-48.505-16.511-55.377-40.057-3.693-12.653-2.054-25.52 4.614-36.229 6.941-11.148 18.414-18.625 32.305-21.054 28.033-4.9 57.139 12.708 64.887 39.257 3.689 12.638 2.05 25.493-4.614 36.197-6.944 11.154-18.427 18.636-32.333 21.068a55.036 55.036 0 0 1-9.482.818zm-18.114-95.37c-13.324 2.33-24.316 9.482-30.952 20.141-6.363 10.221-7.923 22.513-4.392 34.612 7.468 25.588 35.546 42.555 62.594 37.829 13.338-2.333 24.341-9.49 30.98-20.155 6.359-10.214 7.919-22.495 4.392-34.58-7.47-25.601-35.566-42.573-62.622-37.847.001 0 .001 0 0 0zm-.172-.985h.01zm137.72-24.082c-27.593 4.825-43.776 29.902-36.153 56.022 7.617 26.098 36.155 43.354 63.748 38.53 27.593-4.825 43.776-29.902 36.16-55.999-7.624-26.121-36.162-43.378-63.755-38.553"/><path d="M552.869 158.441c-24.833 0-48.52-16.51-55.392-40.054-3.692-12.651-2.054-25.516 4.613-36.224 6.943-11.152 18.424-18.632 32.328-21.063 28.03-4.901 57.139 12.708 64.887 39.257 3.688 12.638 2.05 25.494-4.614 36.197-6.944 11.154-18.427 18.636-32.333 21.067a54.93 54.93 0 0 1-9.489.82zM534.763 63.07c-13.336 2.332-24.336 9.488-30.975 20.15-6.362 10.219-7.921 22.509-4.391 34.606 7.468 25.588 35.559 42.558 62.616 37.825 13.338-2.333 24.341-9.49 30.98-20.155 6.359-10.214 7.919-22.495 4.392-34.58-7.47-25.599-35.563-42.575-62.622-37.846zm-.172-.985h.01z"/></g></g><path d="M645.081 193.227 94.513 289.499c-16.413 2.87-33.536-7.484-38.064-23L16.955 131.181c-1.88-6.443-1.305-12.805 1.186-18.248L3.298 145.368c-2.491 5.443-3.066 11.805-1.185 18.248l39.493 135.319c4.528 15.515 21.651 25.869 38.064 22.999l550.568-96.272c9.597-1.678 16.902-7.519 20.409-15.183l14.843-32.435c-3.506 7.664-10.812 13.505-20.409 15.183z" fill="#3658c1"/><path d="M74.11 323.414c-15.003.001-29.313-9.974-33.464-24.199L1.152 163.896c-1.894-6.489-1.466-13.04 1.236-18.944l14.843-32.435a.999.999 0 1 1 1.818.832c-2.5 5.462-2.892 11.531-1.135 17.552l39.493 135.318c4.402 15.084 20.969 25.081 36.932 22.295l550.569-96.271.172.985-.172-.985c8.97-1.569 16.14-6.896 19.672-14.614a.999.999 0 1 1 1.818.832l-.019.042-14.824 32.393c-3.81 8.327-11.518 14.068-21.146 15.751L79.842 322.918a33.346 33.346 0 0 1-5.732.496zM14.851 122.523l-10.644 23.26c-2.5 5.461-2.892 11.531-1.135 17.552l39.493 135.318c4.402 15.084 20.971 25.081 36.932 22.295l550.569-96.272c8.97-1.569 16.14-6.895 19.672-14.614l10.614-23.195c-4.005 3.749-9.191 6.311-15.099 7.344L94.685 290.483c-16.934 2.961-34.517-7.672-39.196-23.704L15.995 131.461c-.872-2.989-1.252-5.991-1.144-8.938z" fill="#111"/></svg></g><g transform="translate(609.6 1070.3999999999999) rotate(0.0 793.8 475.20000000000005) scale(1.2147867925221287 1.2147720576863348)"><svg width="1306.896" height="782.369" viewBox="0 0 1306.896 782.369"><g fill="#111"><path d="M440.702 1.195c-4.2-.97-8.865 1.774-10.459 6.115-1.593 4.339.484 8.641 4.684 9.611 3.079.711 6.433-.592 8.623-3.062a9.624 9.624 0 0 0 1.836-3.053c1.594-4.341-.505-8.646-4.684-9.611"/><path d="M436.624 18.11a8.549 8.549 0 0 1-1.922-.216c-2.204-.509-3.992-1.852-5.036-3.781-1.131-2.09-1.262-4.695-.362-7.149 1.76-4.792 6.975-7.817 11.622-6.744 2.198.508 3.985 1.852 5.031 3.785 1.132 2.092 1.266 4.696.366 7.145a10.7 10.7 0 0 1-2.026 3.371c-2.025 2.286-4.887 3.589-7.673 3.589zM438.972 2c-3.264 0-6.556 2.295-7.79 5.654-.703 1.915-.615 3.922.243 5.507.767 1.418 2.091 2.406 3.727 2.784 2.627.606 5.63-.473 7.65-2.751a8.618 8.618 0 0 0 1.646-2.734c.701-1.91.611-3.916-.248-5.504-.769-1.421-2.091-2.411-3.722-2.788A6.777 6.777 0 0 0 438.972 2zm767.857 438.66c-3.088-.713-6.45.598-8.639 3.079a9.691 9.691 0 0 0-1.82 3.035c-1.594 4.34.504 8.647 4.684 9.612 4.178.965 8.865-1.775 10.459-6.116 1.593-4.339-.506-8.646-4.684-9.61"/><path d="M1202.749 457.577c-.644 0-1.287-.07-1.92-.216-2.198-.508-3.985-1.852-5.031-3.784-1.132-2.093-1.266-4.697-.367-7.146a10.71 10.71 0 0 1 2.009-3.353c2.499-2.832 6.273-4.163 9.614-3.392 2.198.508 3.985 1.852 5.031 3.785 1.132 2.093 1.266 4.697.367 7.145-1.521 4.139-5.619 6.96-9.703 6.961zm2.366-16.11c-2.224 0-4.528 1.067-6.176 2.933a8.718 8.718 0 0 0-1.631 2.719c-.702 1.911-.611 3.917.248 5.505.769 1.421 2.091 2.411 3.721 2.787 3.703.854 7.871-1.607 9.296-5.486.701-1.91.611-3.916-.249-5.504-.769-1.421-2.091-2.411-3.722-2.788a6.665 6.665 0 0 0-1.487-.166z"/><path d="M1197.793 446.01a.997.997 0 0 1-.497-.133l-753.44-432.19a1 1 0 1 1 .995-1.735l753.44 432.19a1 1 0 0 1-.498 1.868z"/><path d="M1305.897 782.369a.787.787 0 0 1-.084-.004c-49.001-4.098-90.146-14.589-125.785-32.072-31.901-15.649-58.708-36.627-81.951-64.132-43.242-51.17-66.719-115.88-91.574-184.389-37.241-102.648-75.75-208.791-185.926-271.99-148.95-85.441-346.057-76.6-485.181-54.138-89.616 14.469-165.089 35.969-212.622 51.456-62.986 20.523-103.935 39.055-121.256 49.554a1 1 0 0 1-1.036-1.711c17.416-10.557 58.525-29.169 121.673-49.745 47.6-15.51 123.18-37.04 212.923-51.529 139.442-22.514 337.037-31.355 486.494 54.377 110.811 63.564 149.447 170.057 186.811 273.043 48.948 134.917 95.182 262.352 297.597 279.283a1 1 0 0 1-.083 1.997z"/><path d="m833.926 221.152-18.887-4.36-2.174 5.921-.907 2.471-.133.362-3.996 10.881 18.887 4.361 2.019-5.499.146-.398.907-2.471z"/><path d="M826.716 241.788a.966.966 0 0 1-.225-.026l-18.887-4.36a.999.999 0 0 1-.714-1.319l7.211-19.636a1.001 1.001 0 0 1 1.164-.63l18.887 4.36a.999.999 0 0 1 .714 1.319l-7.211 19.636a1.002 1.002 0 0 1-.939.656zm-17.558-6.08 16.923 3.907 6.516-17.743-16.923-3.907z"/></g></svg></g><g transform="translate(1693.2 810.0) rotate(0.0 478.19999999999993 259.79999999999995) scale(1.2163064420747407 1.2159932600835466)"><svg width="786.315" height="427.305" viewBox="0 0 786.315 427.305"><g><path d="M16.232 420.886c-.229.12-.63-.088-1.153-.654a7.834 7.834 0 0 1-.484-.586c-.909-1.212-1.793-2.995-2.106-4.317a4.155 4.155 0 0 1-.104-.617c-.036-.424.04-.685.207-.773l-9.49 4.973c-1.613.889-2.398 2.605-2 4.372.446 1.98 2.807 3.917 5.64 2.574z" fill="#111"/><path d="M4.858 427.3a4.686 4.686 0 0 1-2.063-.475c-1.33-.648-2.353-1.92-2.668-3.32-.498-2.213.48-4.359 2.493-5.468l9.509-4.983a1.001 1.001 0 0 1 1.25 1.505l.004.069c.011.135.039.292.081.47.275 1.161 1.087 2.821 1.933 3.948.14.187.28.358.419.508.165.178.283.279.356.334a1 1 0 0 1 .526 1.884l-9.49 4.973c-.784.371-1.578.555-2.35.555zm6.675-11.676-7.966 4.175c-1.213.669-1.791 1.924-1.489 3.267.182.809.807 1.579 1.593 1.961.561.273 1.475.481 2.643-.072l7.931-4.156a9.011 9.011 0 0 1-.449-.553c-.991-1.321-1.915-3.21-2.263-4.622z" fill="#111"/><path d="M95.52 403.756c-1.867-2.024-3.767-4.402-5.642-7.025-7.831-10.955-15.224-26.171-17.93-37.606a43.041 43.041 0 0 1-.794-4.192c-.542-4.039-.13-6.725 1.075-7.964l-61.691 63.44c-.271.279-.364.883-.242 1.792.038.285.097.599.179.943.609 2.573 2.272 5.997 4.034 8.462.422.59.849 1.125 1.27 1.581.948 1.027 1.701 1.479 2.187 1.398l87.273-14.618c-2.16.362-5.507-1.645-9.719-6.211z" fill="#b0c3ff"/><path d="M17.85 425.594c-.814 0-1.736-.568-2.806-1.729a17.553 17.553 0 0 1-1.348-1.677c-1.885-2.638-3.571-6.18-4.194-8.813-.09-.38-.155-.727-.197-1.041-.166-1.236.003-2.094.516-2.622l61.686-63.435a1 1 0 1 1 1.439 1.389l-.005.005c-.577.598-1.441 2.317-.796 7.128.167 1.245.428 2.623.776 4.095 2.623 11.083 9.764 26.054 17.77 37.255 1.893 2.647 3.764 4.978 5.564 6.928 5.322 5.771 7.941 6.051 8.818 5.903a1 1 0 1 1 .331 1.972l-.007.001-87.266 14.617a1.64 1.64 0 0 1-.281.024zM11.262 411.1c.016 0-.07.261.025.968.034.256.087.538.161.846.56 2.367 2.154 5.703 3.875 8.111.409.571.809 1.071 1.191 1.484.933 1.012 1.351 1.085 1.355 1.086l82.956-13.902c-1.792-1.086-3.81-2.842-6.039-5.259-1.855-2.011-3.78-4.407-5.72-7.122-8.143-11.392-15.412-26.646-18.089-37.957a44.17 44.17 0 0 1-.812-4.29c-.219-1.636-.29-3.076-.214-4.317z" fill="#111"/></g><g><path d="M763.941 45.808a50.754 50.754 0 0 1-3.222-3.901c-6.073-8.092-11.974-19.997-14.063-28.826-.37-1.562-.599-2.938-.698-4.124-.237-2.841.275-4.587 1.402-5.16L72.909 346.464c-1.537.781-2.235 3.162-1.912 7.037.135 1.617.448 3.494.952 5.624 2.85 12.041 10.896 28.275 19.178 39.311 1.466 1.954 2.94 3.745 4.394 5.32 4.775 5.176 8.439 7.063 10.52 5.939L771.656 50.163c-1.527.824-4.214-.56-7.715-4.355z" fill="#3658c1"/><path d="M104.737 411.009c-2.552 0-5.943-2.23-9.951-6.575-1.45-1.572-2.95-3.388-4.458-5.398-8.566-11.413-16.523-27.73-19.352-39.68-.506-2.14-.834-4.082-.975-5.771-.359-4.306.467-7.001 2.455-8.011L746.907 2.905c-.013.007-.007.003 0 0a.999.999 0 1 1 .905 1.783c-.725.368-1.046 1.933-.858 4.185.097 1.158.324 2.496.675 3.977 2.024 8.556 7.736 20.257 13.89 28.457a49.201 49.201 0 0 0 3.157 3.823c3.484 3.777 5.68 4.598 6.504 4.154a1 1 0 0 1 .95 1.76L106.516 410.575a3.685 3.685 0 0 1-1.779.434zM745.005 6.115 73.361 347.356c-1.142.581-1.641 2.79-1.368 6.062.133 1.591.445 3.434.928 5.477 2.771 11.71 10.587 27.724 19.005 38.94 1.468 1.957 2.925 3.72 4.329 5.242 4.887 5.298 8.013 6.438 9.31 5.738L768.4 50.785c-1.509-.751-3.244-2.186-5.194-4.299a51.52 51.52 0 0 1-3.286-3.979c-6.301-8.396-12.155-20.402-14.236-29.196-.374-1.577-.617-3.014-.722-4.271-.093-1.117-.079-2.093.043-2.925z" fill="#111"/><path d="M310.757 253.533c-3.498-6.875-9.746-8.651-17.593-5l-98.072 50.421c-14.548 8.237-10.924 23.201-.259 26.23 5.395 1.532 9.57-.417 11.353-1.249l97.62-51.439c9.66-5.678 8.771-14.887 6.951-18.963" fill="#b0c3ff"/><path d="M198.883 326.757a15.75 15.75 0 0 1-4.323-.611c-5.418-1.539-9.343-6.067-9.998-11.535-.762-6.359 2.991-12.537 10.037-16.527l98.107-50.44c8.324-3.876 15.215-1.888 18.942 5.435l.031.067c1.939 4.369 2.886 14.185-7.367 20.212l-97.66 51.461c-1.41.66-4.149 1.938-7.769 1.938zm101.698-79.093c-2.106 0-4.446.59-6.996 1.776l-98.036 50.403c-6.38 3.614-9.674 8.917-9.001 14.53.559 4.665 3.918 8.531 8.559 9.849 5.035 1.43 8.974-.408 10.656-1.193l97.577-51.418c8.994-5.289 8.201-13.848 6.513-17.651-2.137-4.182-5.284-6.296-9.272-6.296z" fill="#111"/><path d="M778.451 9.391c4.454 4.806 5.779 9.959 6.214 11.652 1.208 5.649 2.386 19.844-12.856 29.036-1.678.909-4.366-.474-7.868-4.271-7.087-7.682-14.825-22.335-17.285-32.728-1.255-5.305-.893-8.475.706-9.285 17.315-7.922 28.936 3.272 31.089 5.596" fill="#b0c3ff"/><path d="M770.707 51.341c-2.017 0-4.524-1.628-7.5-4.855-7.173-7.776-15.034-22.659-17.523-33.175-1.353-5.716-.928-9.315 1.227-10.407 17.975-8.226 30.039 3.395 32.274 5.808 4.626 4.992 5.998 10.329 6.449 12.083 1.266 5.918 2.483 20.618-13.308 30.142a3.36 3.36 0 0 1-1.619.404zM759.414 2.007c-3.481 0-7.378.75-11.636 2.698-.836.425-1.407 2.827-.149 8.145 2.422 10.236 10.069 24.716 17.047 32.28 2.957 3.206 5.446 4.725 6.657 4.07 14.65-8.837 13.521-22.49 12.354-27.948-.41-1.592-1.688-6.561-5.97-11.181-1.542-1.666-8.14-8.064-18.303-8.064z" fill="#111"/></g></svg></g><g transform="translate(2256.0 2072.4) rotate(0.0 235.79999999999995 198.0) scale(1.215786665016744 1.2157494819249366)"><svg width="387.897" height="325.725" viewBox="0 0 387.897 325.725"><path d="m376.771 211.6-181.849 72.495c-11.158 4.448-26.96-.453-35.28-10.943L24.046 102.193c-5.145-6.487-6.228-13.597-3.667-19.13L2.333 122.051C-.229 127.585.854 134.695 6 141.181L141.595 312.14c8.32 10.49 24.122 15.392 35.28 10.943l181.849-72.495c4.254-1.696 7.218-4.505 8.796-7.915l18.046-38.988c-1.578 3.41-4.541 6.219-8.795 7.915z" fill="#111"/><path d="M167.857 325.711c-9.851 0-20.63-4.861-27.045-12.95L5.216 141.803c-5.191-6.545-6.608-14.085-3.791-20.172l18.046-38.988a1 1 0 0 1 1.815.84c-2.493 5.387-1.169 12.149 3.542 18.089l135.596 170.959c8.055 10.155 23.364 14.925 34.126 10.636l181.849-72.495c3.866-1.542 6.718-4.095 8.248-7.384l.01-.021a1 1 0 0 1 1.815.84l-18.046 38.988c-1.747 3.772-4.974 6.686-9.333 8.423l-181.849 72.495c-2.89 1.152-6.087 1.698-9.387 1.698zM18.087 90.395 3.24 122.471c-2.493 5.387-1.169 12.149 3.542 18.089l135.596 170.959c8.055 10.156 23.364 14.926 34.126 10.636l181.849-72.495c3.875-1.545 6.731-4.106 8.259-7.406l14.858-32.101a19.424 19.424 0 0 1-4.33 2.376l-.37-.929.37.929-181.849 72.495c-11.525 4.596-27.869-.452-36.434-11.25L23.262 102.814c-3.138-3.956-4.897-8.276-5.175-12.419z" fill="#111"/><path d="M211.035 2.64c11.158-4.448 26.939.462 35.258 10.952l135.597 170.96c8.32 10.49 6.039 22.6-5.119 27.048l-181.849 72.495c-11.158 4.448-26.96-.453-35.28-10.943L24.046 102.193c-8.32-10.49-6.018-22.609 5.14-27.057z" fill="#3658c1"/><path d="M185.903 286.723c-9.851 0-20.629-4.861-27.045-12.95L23.262 102.814c-4.472-5.638-6.178-12.091-4.682-17.705 1.312-4.922 4.947-8.795 10.236-10.903L210.665 1.712l.37.929-.37-.929c11.513-4.591 27.847.46 36.412 11.259L382.673 183.93c4.476 5.644 6.186 12.1 4.69 17.712-1.31 4.915-4.94 8.781-10.222 10.886l-181.849 72.495c-2.892 1.154-6.089 1.7-9.389 1.7zM220.105 1.997c-3.061 0-6.021.505-8.699 1.573L29.556 76.064c-4.687 1.869-7.899 5.264-9.044 9.561-1.332 4.997.242 10.809 4.316 15.946L160.425 272.53c8.055 10.156 23.364 14.926 34.126 10.636L376.4 210.671c4.68-1.866 7.887-5.255 9.03-9.543 1.331-4.996-.245-10.811-4.325-15.955L245.51 14.214c-6.048-7.626-16.181-12.217-25.405-12.217z" fill="#111"/><path d="m149.362 166.736-27.809-35.061 17.67-7.044c12.852-5.123 25.006-1.83 34.119 9.66 8.855 11.164 6.345 20.356-6.375 25.427zm-16.569-57.994-40.182 16.019 74.313 93.694 17.823-7.105-24.361-30.714 21.6-8.611c20.166-8.039 24.193-26.379 9.462-44.951-14.99-18.899-38.749-26.268-58.655-18.332" fill="#b0c3ff"/><path d="M166.924 219.454c-.299 0-.59-.134-.784-.378l-74.313-93.693a1 1 0 0 1 .413-1.55l40.182-16.019c20.463-8.157 44.497-.667 59.808 18.638 7.647 9.642 10.59 19.714 8.285 28.36-2.127 7.98-8.406 14.253-18.16 18.141l-20.352 8.114 23.526 29.661a1 1 0 0 1-.413 1.55l-17.823 7.105a.988.988 0 0 1-.369.071zm-72.695-94.262 73.016 92.058 15.883-6.332-23.526-29.661a1 1 0 0 1 .413-1.55l21.6-8.611c9.144-3.645 15.011-9.454 16.969-16.799 2.138-8.021-.675-17.468-7.919-26.602-14.759-18.607-37.865-25.851-57.501-18.024zm55.133 42.544c-.299 0-.59-.134-.784-.378l-27.809-35.061a1 1 0 0 1 .413-1.55l17.67-7.044c13.408-5.347 25.935-1.806 35.273 9.967 4.628 5.835 6.331 11.209 5.061 15.973-1.243 4.663-5.229 8.365-11.85 11.004l-17.605 7.019c-.119.047-.245.07-.369.07zm-26.191-35.63 26.511 33.425 16.913-6.743c6.001-2.393 9.587-5.643 10.658-9.662 1.098-4.12-.482-8.902-4.695-14.215-8.741-11.021-20.449-14.342-32.965-9.353z" fill="#111"/><path d="M222.653 100.854c-17.8 7.096-23.16 20.944-12.963 33.801 8.498 10.715 20.316 14.304 37.277 11.624l15.731-2.43c8.383-1.354 13.625-.112 16.829 3.928 4.16 5.245.979 11.214-7.659 14.658-8.575 3.419-16.348 2.408-22.175-2.201l-16.932 6.75c11.549 12.4 29.53 15.331 48.373 7.819s24.991-21.916 14.162-35.569c-8.287-10.449-19.64-13.632-36.489-10.918l-15.573 2.448c-8.876 1.417-14.438.383-17.627-3.638-4.079-5.143-.98-10.998 6.813-14.105 8.01-3.193 15.594-2.025 20.796 2.481l16.086-6.413c-11.484-12.423-28.697-15.392-46.649-8.235" fill="#b0c3ff"/><path d="M261.103 179.886c-11.359 0-21.563-4.157-29.074-12.22a1 1 0 0 1 .361-1.61l16.932-6.75a.995.995 0 0 1 .99.145c5.693 4.502 13.217 5.232 21.185 2.056 4.721-1.882 7.875-4.634 8.651-7.55.501-1.88.028-3.75-1.405-5.557-2.98-3.757-7.882-4.856-15.886-3.562l-15.737 2.43c-17.401 2.751-29.544-1.061-38.214-11.991-4.708-5.936-6.354-12.237-4.759-18.223 1.904-7.143 8.344-13.226 18.135-17.128 18.535-7.389 35.939-4.296 47.752 8.487a1 1 0 0 1-.364 1.607l-16.086 6.413a.999.999 0 0 1-1.025-.173c-5.119-4.434-12.324-5.276-19.771-2.308-4.212 1.679-7.052 4.234-7.792 7.009-.495 1.856-.013 3.773 1.392 5.545 2.89 3.644 8.035 4.652 16.686 3.272l15.576-2.449c17.465-2.812 29.007.668 37.428 11.284 4.878 6.151 6.585 12.671 4.938 18.855-2.016 7.565-8.946 14.051-19.513 18.264-6.984 2.785-13.883 4.154-20.4 4.154zm-26.585-12.525c11.268 11.165 28.431 13.616 46.246 6.514 9.964-3.973 16.471-9.982 18.32-16.921 1.479-5.549-.102-11.461-4.572-17.097-7.917-9.982-18.879-13.235-35.546-10.552l-15.577 2.449c-9.445 1.509-15.173.273-18.566-4.004-1.813-2.287-2.421-4.812-1.757-7.303.904-3.392 4.178-6.437 8.983-8.352 7.941-3.167 15.683-2.336 21.35 2.259l14.152-5.642c-11.193-11.248-27.333-13.785-44.529-6.929-9.188 3.664-15.206 9.27-16.942 15.786-1.426 5.35.093 11.043 4.393 16.464 8.174 10.306 19.722 13.884 36.337 11.258l15.734-2.43c8.683-1.403 14.329-.039 17.766 4.294 1.822 2.297 2.434 4.827 1.771 7.315-.956 3.585-4.451 6.744-9.844 8.893-8.449 3.369-16.486 2.658-22.703-1.99zm-11.866-66.507h.01z" fill="#111"/></svg></g><g transform="translate(296.4 682.8) rotate(0.0 119.39999999999998 120.0) scale(1.2366329199140362 1.232469406514628)"><svg width="193.105" height="194.731" viewBox="0 0 193.105 194.731"><path d="M50.289 8.198c-4.497-4.5-10.463-7.054-16.8-7.192C26.558.855 20.958 3.58 17.48 5.893 11.772 9.69 7.006 14.905 4.06 20.579.519 27.401.872 33.601 1.188 35.951c.167 1.237.556 4.133 2.251 7.628 1.5 3.093 2.93 4.659 4.586 6.473l.001.001L35.115 77.42c-2.106-2.128-.943-7.42 3.787-14.653C46.5 51.148 60.425 38.92 70.004 35.455c3.616-1.308 6.096-1.18 7.373.11z" fill="#3658c1"/><path d="M35.117 78.421a1 1 0 0 1-.711-.296L7.317 50.757c-1.737-1.901-3.213-3.518-4.776-6.741C.774 40.373.371 37.368.198 36.084c-.329-2.443-.698-8.891 2.975-15.966 3.023-5.822 7.908-11.169 13.754-15.057C20.525 2.668 26.345-.134 33.511.006c6.596.145 12.806 2.803 17.485 7.485l.004.004 27.089 27.367a1 1 0 0 1-1.422 1.408l-.004-.004c-1.017-1.022-3.26-.975-6.318.13-9.39 3.397-23.119 15.473-30.604 26.919-5.044 7.714-5.26 12.041-3.912 13.402a1 1 0 0 1-.712 1.704zM32.937 2c-6.428 0-11.634 2.551-14.903 4.726C12.465 10.43 7.817 15.513 4.948 21.04 1.539 27.608 1.877 33.562 2.18 35.818a23.154 23.154 0 0 0 2.159 7.325c1.437 2.962 2.822 4.479 4.426 6.234l24.368 24.618c.17-3.001 1.843-7.05 4.933-11.775 7.688-11.754 21.862-24.183 31.599-27.705 1.733-.627 3.152-.911 4.311-.964L49.579 8.903c-4.313-4.315-10.035-6.764-16.111-6.897A23.635 23.635 0 0 0 32.937 2z" fill="#111"/><path d="M98.418 43.783c-1.553-4.377-3.621-6.218-6.731-8.669-13.102-10.32-28.949 2.366-39.796 11.765C39.912 58.51 22.693 78.045 34.522 91.728c3.813 4.189 8.009 8.116 14.327 7.705 18.386-.221 56.308-36.623 49.569-55.65zm-11.16 25.235C81.254 78.2 70.25 87.862 62.68 90.601c-7.57 2.738-8.838-2.485-2.834-11.667S76.854 60.09 84.424 57.351c7.569-2.738 8.838 2.485 2.834 11.667z" fill="#3658c1"/><path d="M47.883 100.465c-6.215 0-10.373-3.969-14.101-8.064-13.786-15.946 9.694-38.747 17.411-46.24 9.367-8.12 26.726-23.162 41.111-11.833 3.202 2.523 5.424 4.521 7.055 9.12 2.329 6.576-.258 15.745-7.285 25.816-11.69 16.754-31.479 31.027-43.214 31.168-.33.022-.656.033-.977.033zm33.003-68.203c-9.036 0-18.843 7.143-28.341 15.373-20.04 19.461-25.701 33.683-17.267 43.439 3.574 3.926 7.558 7.75 13.506 7.361 11.037-.134 30.475-14.298 41.649-30.314 6.648-9.528 9.148-18.053 7.041-24.004-1.485-4.186-3.402-5.85-6.408-8.217-3.231-2.546-6.646-3.638-10.18-3.638zM59.207 92.327c-1.746 0-2.743-.672-3.31-1.389-1.799-2.274-.693-6.731 3.112-12.552 6.097-9.321 17.345-19.18 25.075-21.976 4.27-1.545 6.231-.525 7.123.602 1.799 2.274.694 6.732-3.112 12.552C82 78.886 70.751 88.745 63.02 91.541c-1.558.564-2.809.786-3.813.786zm28.687-34.703c-.837 0-1.9.223-3.13.667-7.383 2.67-18.186 12.176-24.081 21.189-3.774 5.772-4.092 9.111-3.218 10.217.677.853 2.453.839 4.875-.038 7.384-2.671 18.187-12.177 24.081-21.19 3.774-5.772 4.092-9.111 3.218-10.216-.333-.419-.932-.629-1.745-.629zm-.636 11.394h.01z" fill="#111"/><path d="m190.822 180.182-8.371-8.456c4.159-11.253 1.823-18.264-4.795-25.983L90.249 57.439c-1.155-1.14-3.08-1.036-5.815-.145-7.045 2.294-21.792 14.638-26.647 25.102-1.334 2.874-2.673 6.304-.936 8.117l87.408 88.304c8.38 8.114 18.102 8.186 25.938 5.067l8.359 8.445c5.16 5.65 17.543-7.292 12.266-12.147z" fill="#b0c3ff"/><path d="M181.781 194.727c-1.555 0-2.925-.587-3.962-1.723l-7.872-7.951c-5.862 2.181-16.536 4.018-26.382-5.517-78.23-79.032-86.511-87.396-87.426-88.34l-.009.009c-2.092-2.184-.876-5.727.75-9.23 5.058-10.898 20.104-23.307 27.245-25.632 2.255-.734 5.066-1.354 6.827.383l87.412 88.31c6.216 7.246 9.457 14.511 5.242 26.435l7.911 7.992c1.44 1.339 1.92 3.309 1.349 5.552-1.052 4.135-5.353 8.482-9.391 9.494a6.964 6.964 0 0 1-1.694.218zm-11.583-11.842a1 1 0 0 1 .711.296l8.359 8.445c.935 1.022 2.176 1.33 3.722.943 3.293-.825 7.077-4.66 7.939-8.047.395-1.55.131-2.763-.783-3.604l-.034-.032-8.371-8.457a1.002 1.002 0 0 1-.227-1.05c4.215-11.406 1.358-18.017-4.616-24.986l.059-.05c-.622-.514-1.688-1.591-3.767-3.691l-83.65-84.51c-.756-.746-2.284-.716-4.795.103-6.656 2.168-21.279 14.293-26.05 24.572-1.19 2.564-2.393 5.677-1.121 7.005l87.397 88.293c9.381 9.084 19.603 6.934 24.856 4.841.121-.048.247-.071.371-.071z" fill="#111"/></svg></g></svg>